sourcesanspro-medium.sfdir
StartChar: exclam
Encoding: 33 33 1146
Width: 306
Flags: MW
HStem: -12 146<133.5 172.5>
VStem: 84 138<39.5 81.5> 111 84
LayerCount: 2
Fore
SplineSet
118 209 m 1xa0
 104 563 l 1
 101 670 l 1
 206 670 l 1
 202 563 l 1
 188 209 l 1
 118 209 l 1xa0
153 -12 m 0xc0
 114 -12 84 19 84 60 c 0
 84 103 114 134 153 134 c 0
 192 134 222 103 222 60 c 0
 222 19 192 -12 153 -12 c 0xc0
EndSplineSet
Substitution2: "'c2sc' Capitals to Small Capitals lookup 19 subtable" exclam.sc
Substitution2: "'aalt' Access All Alternates lookup 0 subtable" exclam.sc
PairPos2: "'kern' Horizontal Kerning lookup 10 per glyph data 8" uni02BE dx=0 dy=0 dh=-39 dv=0 dx=0 dy=0 dh=0 dv=0
PairPos2: "'kern' Horizontal Kerning lookup 10 per glyph data 8" uni02BC dx=0 dy=0 dh=-39 dv=0 dx=0 dy=0 dh=0 dv=0
PairPos2: "'kern' Horizontal Kerning lookup 10 per glyph data 8" quotedblright dx=0 dy=0 dh=-39 dv=0 dx=0 dy=0 dh=0 dv=0
PairPos2: "'kern' Horizontal Kerning lookup 10 per glyph data 8" quoteright dx=0 dy=0 dh=-39 dv=0 dx=0 dy=0 dh=0 dv=0
EndChar
StartChar: numbersign
Encoding: 35 35 1215
Width: 497
Flags: MW
HStem: 0 21G<90 90 90 144 277 277 277 330> 204 57<35 115 35 122 35 169 176 301 362 447> 409 58<55 140 55 147 55 194 200 326 386 467> 630 20G<170 223 223 223 357 410 410 410>
VStem: 35 432<204 467 261 467>
LayerCount: 2
Fore
SplineSet
90 0 m 1
 115 204 l 1
 35 204 l 1
 35 261 l 1
 122 261 l 1
 140 409 l 1
 55 409 l 1
 55 467 l 1
 147 467 l 1
 170 650 l 1
 223 650 l 1
 200 467 l 1
 333 467 l 1
 357 650 l 1
 410 650 l 1
 386 467 l 1
 467 467 l 1
 467 409 l 1
 380 409 l 1
 362 261 l 1
 447 261 l 1
 447 204 l 1
 355 204 l 1
 330 0 l 1
 277 0 l 1
 301 204 l 1
 169 204 l 1
 144 0 l 1
 90 0 l 1
176 261 m 1
 308 261 l 1
 326 409 l 1
 194 409 l 1
 176 261 l 1
EndSplineSet
EndChar
StartChar: dollar
Encoding: 36 36 1702
Width: 497
Flags: MW
HStem: -110 166<222 222 222 282> -11 67<222 222> 581 68<282 282 282 285> 581 167<227.5 282 222 285> 627 20G<222 222> 629 20G<282 282>
VStem: 77 81<412.5 514 412.5 525.5> 222 60<-110 -11 -11 -11 649 748> 356 81<128 240>
LayerCount: 2
Fore
SplineSet
222 -110 m 1x8780
 222 -11 l 1
 158 -5 94 27 52 66 c 1
 90 123 l 1
 133 86 184 56 245 56 c 0
 319 56 356 97 356 159 c 0
 356 321 77 286 77 481 c 0
 77 570 135 634 222 647 c 1x4b80
 222 748 l 1
 282 748 l 1x5380
 282 649 l 1
 346 642 388 611 424 573 c 1
 380 524 l 1
 343 560 312 581 258 581 c 0
 197 581 158 543 158 485 c 0
 158 340 437 380 437 165 c 0
 437 70 377 4 282 -9 c 1x6380
 282 -110 l 1
 222 -110 l 1x8780
EndSplineSet
PairPos2: "'kern' Horizontal Kerning lookup 10 per glyph data 0" nine.onum dx=0 dy=0 dh=-11 dv=0 dx=0 dy=0 dh=0 dv=0
PairPos2: "'kern' Horizontal Kerning lookup 10 per glyph data 0" seven.onum dx=0 dy=0 dh=-58 dv=0 dx=0 dy=0 dh=0 dv=0
PairPos2: "'kern' Horizontal Kerning lookup 10 per glyph data 0" five.onum dx=0 dy=0 dh=-21 dv=0 dx=0 dy=0 dh=0 dv=0
PairPos2: "'kern' Horizontal Kerning lookup 10 per glyph data 0" three.onum dx=0 dy=0 dh=-21 dv=0 dx=0 dy=0 dh=0 dv=0
PairPos2: "'kern' Horizontal Kerning lookup 10 per glyph data 0" two.onum dx=0 dy=0 dh=-17 dv=0 dx=0 dy=0 dh=0 dv=0
PairPos2: "'kern' Horizontal Kerning lookup 10 per glyph data 0" one.onum dx=0 dy=0 dh=-24 dv=0 dx=0 dy=0 dh=0 dv=0
PairPos2: "'kern' Horizontal Kerning lookup 10 per glyph data 0" nine.pnum dx=0 dy=0 dh=-21 dv=0 dx=0 dy=0 dh=0 dv=0
PairPos2: "'kern' Horizontal Kerning lookup 10 per glyph data 0" seven.pnum dx=0 dy=0 dh=-33 dv=0 dx=0 dy=0 dh=0 dv=0
PairPos2: "'kern' Horizontal Kerning lookup 10 per glyph data 0" five.pnum dx=0 dy=0 dh=-7 dv=0 dx=0 dy=0 dh=0 dv=0
PairPos2: "'kern' Horizontal Kerning lookup 10 per glyph data 0" three.pnum dx=0 dy=0 dh=-7 dv=0 dx=0 dy=0 dh=0 dv=0
PairPos2: "'kern' Horizontal Kerning lookup 10 per glyph data 0" two.pnum dx=0 dy=0 dh=-10 dv=0 dx=0 dy=0 dh=0 dv=0
PairPos2: "'kern' Horizontal Kerning lookup 10 per glyph data 0" one.pnum dx=0 dy=0 dh=-27 dv=0 dx=0 dy=0 dh=0 dv=0
EndChar
StartChar: percent
Encoding: 37 37 1727
Width: 835
Flags: MW
HStem: -12 61<627.5 672.5 627.5 695.5> 253 61<162.5 207.5 162.5 230.5> 341 61<627.5 672.5> 606 61<162.5 207.5>
VStem: 32 75<411 511 411 526.5> 263 76<411 511> 497 75<146 246 146 261.5> 728 76<146 246>
LayerCount: 2
Fore
SplineSet
185 253 m 0
 94 253 32 329 32 461 c 0
 32 592 94 667 185 667 c 0
 276 667 339 592 339 461 c 0
 339 329 276 253 185 253 c 0
185 314 m 0
 230 314 263 361 263 461 c 0
 263 561 230 606 185 606 c 0
 140 606 107 561 107 461 c 0
 107 361 140 314 185 314 c 0
206 -12 m 1
 564 667 l 1
 630 667 l 1
 271 -12 l 1
 206 -12 l 1
650 -12 m 0
 559 -12 497 64 497 196 c 0
 497 327 559 402 650 402 c 0xbf
 741 402 804 327 804 196 c 0
 804 64 741 -12 650 -12 c 0
650 49 m 0
 695 49 728 96 728 196 c 0
 728 296 695 341 650 341 c 0xbf
 605 341 572 296 572 196 c 0
 572 96 605 49 650 49 c 0
EndSplineSet
EndChar
StartChar: ampersand
Encoding: 38 38 1086
Width: 609
Flags: MW
HStem: -12 66<205 263.5 205 270.5> 609 59<245.5 292>
VStem: 32 80<138.5 200.5 138.5 214> 118 71<496 541 496 556.5> 332 67<508 556>
LayerCount: 2
Fore
SplineSet
232 -12 m 0
 113 -12 32 64 32 170 c 0xe8
 32 258 94 313 161 359 c 1
 134 413 118 465 118 513 c 0xd8
 118 600 179 668 270 668 c 0
 351 668 399 615 399 538 c 0
 399 452 324 397 251 344 c 1
 294 277 355 212 417 160 c 1
 457 214 489 279 509 354 c 1
 586 354 l 1
 560 268 523 188 471 119 c 1
 516 88 558 66 594 56 c 1
 572 -12 l 1
 526 1 474 26 421 63 c 1
 371 18 309 -12 232 -12 c 0
189 514 m 0xd8
 189 478 201 439 220 399 c 1
 280 439 332 479 332 537 c 0
 332 575 314 609 270 609 c 0
 221 609 189 568 189 514 c 0xd8
241 54 m 0
 286 54 328 74 366 107 c 1
 302 163 240 231 194 302 c 1
 148 265 112 226 112 175 c 0xe8
 112 102 169 54 241 54 c 0
EndSplineSet
Substitution2: "'c2sc' Capitals to Small Capitals lookup 19 subtable" ampersand.sc
Substitution2: "'aalt' Access All Alternates lookup 0 subtable" ampersand.sc
EndChar
StartChar: parenleft
Encoding: 40 40 1175
Width: 317
Flags: MW
HStem: -177 910<211 211>
VStem: 79 85<203.5 352.5 203.5 366>
LayerCount: 2
Fore
SplineSet
211 -177 m 1
 128 -42 79 102 79 278 c 0
 79 454 128 598 211 733 c 1
 275 704 l 1
 200 576 164 427 164 278 c 0
 164 129 200 -20 275 -148 c 1
 211 -177 l 1
EndSplineSet
Substitution2: "'subs' Subscript lookup 30 subtable" parenleft.subs
Substitution2: "'sups' Superscript lookup 28 subtable" parenleft.sups
Substitution2: "'dnom' Denominators lookup 23 subtable" parenleft.dnom
Substitution2: "'numr' Numerators lookup 22 subtable" parenleft.numr
Substitution2: "'c2sc' Capitals to Small Capitals lookup 19 subtable" parenleft.sc
AlternateSubs2: "'aalt' Access All Alternates lookup 1 subtable" parenleft.sc parenleft.numr parenleft.dnom parenleft.sups parenleft.subs
PairPos2: "'kern' Horizontal Kerning lookup 10 per glyph data 8" Jcircumflex dx=0 dy=0 dh=-20 dv=0 dx=0 dy=0 dh=0 dv=0
PairPos2: "'kern' Horizontal Kerning lookup 10 per glyph data 8" J dx=0 dy=0 dh=-20 dv=0 dx=0 dy=0 dh=0 dv=0
PairPos2: "'kern' Horizontal Kerning lookup 10 per glyph data 8" uni0284 dx=0 dy=0 dh=80 dv=0 dx=0 dy=0 dh=0 dv=0
PairPos2: "'kern' Horizontal Kerning lookup 10 per glyph data 8" uni0283 dx=0 dy=0 dh=80 dv=0 dx=0 dy=0 dh=0 dv=0
PairPos2: "'kern' Horizontal Kerning lookup 10 per glyph data 8" uni0272 dx=0 dy=0 dh=80 dv=0 dx=0 dy=0 dh=0 dv=0
PairPos2: "'kern' Horizontal Kerning lookup 10 per glyph data 8" uni025F dx=0 dy=0 dh=80 dv=0 dx=0 dy=0 dh=0 dv=0
PairPos2: "'kern' Horizontal Kerning lookup 10 per glyph data 8" uni0237 dx=0 dy=0 dh=80 dv=0 dx=0 dy=0 dh=0 dv=0
PairPos2: "'kern' Horizontal Kerning lookup 10 per glyph data 8" jcircumflex dx=0 dy=0 dh=80 dv=0 dx=0 dy=0 dh=0 dv=0
PairPos2: "'kern' Horizontal Kerning lookup 10 per glyph data 8" j dx=0 dy=0 dh=80 dv=0 dx=0 dy=0 dh=0 dv=0
PairPos2: "'kern' Horizontal Kerning lookup 10 per glyph data 8" uni04C1 dx=0 dy=0 dh=10 dv=0 dx=0 dy=0 dh=0 dv=0
PairPos2: "'kern' Horizontal Kerning lookup 10 per glyph data 8" uni0496 dx=0 dy=0 dh=10 dv=0 dx=0 dy=0 dh=0 dv=0
PairPos2: "'kern' Horizontal Kerning lookup 10 per glyph data 8" uni0416 dx=0 dy=0 dh=10 dv=0 dx=0 dy=0 dh=0 dv=0
PairPos2: "'kern' Horizontal Kerning lookup 10 per glyph data 8" uni0463 dx=0 dy=0 dh=-20 dv=0 dx=0 dy=0 dh=0 dv=0
PairPos2: "'kern' Horizontal Kerning lookup 10 per glyph data 8" uni04F2 dx=0 dy=0 dh=10 dv=0 dx=0 dy=0 dh=0 dv=0
PairPos2: "'kern' Horizontal Kerning lookup 10 per glyph data 8" uni04EE dx=0 dy=0 dh=10 dv=0 dx=0 dy=0 dh=0 dv=0
PairPos2: "'kern' Horizontal Kerning lookup 10 per glyph data 8" uni040E dx=0 dy=0 dh=10 dv=0 dx=0 dy=0 dh=0 dv=0
PairPos2: "'kern' Horizontal Kerning lookup 10 per glyph data 8" uni0423 dx=0 dy=0 dh=10 dv=0 dx=0 dy=0 dh=0 dv=0
PairPos2: "'kern' Horizontal Kerning lookup 10 per glyph data 8" uni0408 dx=0 dy=0 dh=-20 dv=0 dx=0 dy=0 dh=0 dv=0
PairPos2: "'kern' Horizontal Kerning lookup 10 per glyph data 8" uni0458 dx=0 dy=0 dh=80 dv=0 dx=0 dy=0 dh=0 dv=0
PairPos2: "'kern' Horizontal Kerning lookup 10 per glyph data 8" uni0424.sc dx=0 dy=0 dh=-10 dv=0 dx=0 dy=0 dh=0 dv=0
PairPos2: "'kern' Horizontal Kerning lookup 10 per glyph data 8" uni0414 dx=0 dy=0 dh=20 dv=0 dx=0 dy=0 dh=0 dv=0
PairPos2: "'kern' Horizontal Kerning lookup 10 per glyph data 8" uni0414.sc dx=0 dy=0 dh=20 dv=0 dx=0 dy=0 dh=0 dv=0
PairPos2: "'kern' Horizontal Kerning lookup 10 per glyph data 8" uni0434 dx=0 dy=0 dh=20 dv=0 dx=0 dy=0 dh=0 dv=0
PairPos2: "'kern' Horizontal Kerning lookup 10 per glyph data 0" uni041B.sc dx=0 dy=0 dh=-10 dv=0 dx=0 dy=0 dh=0 dv=0
EndChar
StartChar: parenright
Encoding: 41 41 1176
Width: 317
Flags: MW
HStem: -177 910<106 106>
VStem: 153 85<203.5 352.5>
LayerCount: 2
Fore
SplineSet
106 -177 m 1
 41 -148 l 1
 117 -20 153 129 153 278 c 0
 153 427 117 576 41 704 c 1
 106 733 l 1
 189 598 238 454 238 278 c 0
 238 102 189 -42 106 -177 c 1
EndSplineSet
Substitution2: "'subs' Subscript lookup 30 subtable" parenright.subs
Substitution2: "'sups' Superscript lookup 28 subtable" parenright.sups
Substitution2: "'dnom' Denominators lookup 23 subtable" parenright.dnom
Substitution2: "'numr' Numerators lookup 22 subtable" parenright.numr
Substitution2: "'c2sc' Capitals to Small Capitals lookup 19 subtable" parenright.sc
AlternateSubs2: "'aalt' Access All Alternates lookup 1 subtable" parenright.sc parenright.numr parenright.dnom parenright.sups parenright.subs
EndChar
StartChar: asterisk
Encoding: 42 42 1185
Width: 418
Flags: MW
HStem: 420 292<138 233 184 280>
VStem: 179.5 58
LayerCount: 2
Fore
SplineSet
138 420 m 1
 98 449 l 1
 155 543 l 1
 58 583 l 1
 73 629 l 1
 175 604 l 1
 184 712 l 1
 233 712 l 1
 242 605 l 1
 345 629 l 1
 360 583 l 1
 263 543 l 1
 319 449 l 1
 280 420 l 1
 209 506 l 1
 138 420 l 1
EndSplineSet
EndChar
StartChar: plus
Encoding: 43 43 1748
Width: 507
Flags: MW
HStem: 292 76<34 214 34 214 294 473>
VStem: 214 80<101 292 101 292 368 559>
LayerCount: 2
Fore
SplineSet
214 101 m 1
 214 292 l 1
 34 292 l 1
 34 368 l 1
 214 368 l 1
 214 559 l 1
 294 559 l 1
 294 368 l 1
 473 368 l 1
 473 292 l 1
 294 292 l 1
 294 101 l 1
 214 101 l 1
EndSplineSet
EndChar
StartChar: zero
Encoding: 48 48 1087
Width: 497
Flags: MW
HStem: -12 66<211.5 286 211.5 312.5> 584 66<211.5 286>
VStem: 44 80<227.5 414.5 227.5 428> 373 80<227.5 414.5>
LayerCount: 2
Fore
SplineSet
249 -12 m 0
 121 -12 44 107 44 321 c 0
 44 535 121 650 249 650 c 0
 376 650 453 535 453 321 c 0
 453 107 376 -12 249 -12 c 0
249 54 m 0
 323 54 373 134 373 321 c 0
 373 508 323 584 249 584 c 0
 174 584 124 508 124 321 c 0
 124 134 174 54 249 54 c 0
EndSplineSet
Substitution2: "'zero' Slashed Zero lookup 34 subtable" zero.0
Substitution2: "'ss05' Style Set 5 lookup 33 subtable" zero.0s
Substitution2: "'onum' Oldstyle Figures lookup 32 subtable" zero.tnum
Substitution2: "'pnum' Proportional Numbers lookup 31 subtable" zero.pnum
Substitution2: "'subs' Subscript lookup 30 subtable" zero.subs
Substitution2: "'sups' Superscript lookup 28 subtable" zero.sups
Substitution2: "'dnom' Denominators lookup 23 subtable" zero.dnom
Substitution2: "'numr' Numerators lookup 22 subtable" zero.numr
Substitution2: "'smcp' Lowercase to Small Capitals lookup 18 subtable" zero.sc
AlternateSubs2: "'aalt' Access All Alternates lookup 1 subtable" zero.sc zero.numr zero.dnom zero.sups zero.subs zero.pnum zero.tnum zero.0s zero.0
EndChar
StartChar: one
Encoding: 49 49 1088
Width: 497
Flags: MW
HStem: 0 68<79 225 79 225 307 439> 538 100<109 307>
VStem: 225 82<68 538 538 538>
LayerCount: 2
Fore
SplineSet
79 0 m 1
 79 68 l 1
 225 68 l 1
 225 538 l 1
 109 538 l 1
 109 591 l 1
 167 601 209 617 244 638 c 1
 307 638 l 1
 307 68 l 1
 439 68 l 1
 439 0 l 1
 79 0 l 1
EndSplineSet
Substitution2: "'onum' Oldstyle Figures lookup 32 subtable" one.tnum
Substitution2: "'pnum' Proportional Numbers lookup 31 subtable" one.pnum
Substitution2: "'subs' Subscript lookup 30 subtable" one.subs
Substitution2: "'sups' Superscript lookup 28 subtable" one.sups
Substitution2: "'dnom' Denominators lookup 23 subtable" one.dnom
Substitution2: "'numr' Numerators lookup 22 subtable" one.numr
Substitution2: "'smcp' Lowercase to Small Capitals lookup 18 subtable" one.sc
AlternateSubs2: "'aalt' Access All Alternates lookup 1 subtable" one.sc one.numr one.dnom one.sups one.subs one.pnum one.tnum
EndChar
StartChar: two
Encoding: 50 50 1089
Width: 497
Flags: MW
HStem: 0 71<267 452 267 452> 583 67<192.5 259.5>
VStem: 340 80<406.5 494.5>
LayerCount: 2
Fore
SplineSet
40 0 m 1
 40 49 l 1
 232 240 340 355 340 458 c 0
 340 531 300 583 219 583 c 0
 166 583 120 549 83 506 c 1
 36 553 l 1
 89 611 146 650 229 650 c 0
 347 650 420 575 420 462 c 0
 420 342 311 223 160 65 c 1
 195 68 234 71 267 71 c 2
 452 71 l 1
 452 0 l 1
 40 0 l 1
EndSplineSet
Substitution2: "'onum' Oldstyle Figures lookup 32 subtable" two.tnum
Substitution2: "'pnum' Proportional Numbers lookup 31 subtable" two.pnum
Substitution2: "'subs' Subscript lookup 30 subtable" two.subs
Substitution2: "'sups' Superscript lookup 28 subtable" two.sups
Substitution2: "'dnom' Denominators lookup 23 subtable" two.dnom
Substitution2: "'numr' Numerators lookup 22 subtable" two.numr
Substitution2: "'smcp' Lowercase to Small Capitals lookup 18 subtable" two.sc
AlternateSubs2: "'aalt' Access All Alternates lookup 1 subtable" two.sc two.numr two.dnom two.sups two.subs two.pnum two.tnum
EndChar
StartChar: three
Encoding: 51 51 1090
Width: 497
Flags: MW
HStem: -12 68<193.5 269.5 193.5 294.5> 300 63<159 227 159 235> 583 67<203.5 264>
VStem: 159 149<332 336 332 363 332 363> 340 84<449.5 513> 363 83<137.5 211>
LayerCount: 2
Fore
SplineSet
236 -12 m 0xf4
 134 -12 69 31 26 78 c 1
 68 132 l 1
 106 92 156 56 231 56 c 0
 308 56 363 102 363 173 c 0xf4
 363 249 311 300 159 300 c 1
 159 363 l 1
 295 363 340 415 340 482 c 0
 340 544 298 583 230 583 c 0
 177 583 132 556 94 518 c 1
 50 570 l 1
 99 616 158 650 233 650 c 0
 344 650 424 591 424 488 c 0xf8
 424 411 377 362 308 336 c 1
 308 332 l 1
 385 314 446 258 446 170 c 0
 446 57 353 -12 236 -12 c 0xf4
EndSplineSet
Substitution2: "'onum' Oldstyle Figures lookup 32 subtable" three.tnum
Substitution2: "'pnum' Proportional Numbers lookup 31 subtable" three.pnum
Substitution2: "'subs' Subscript lookup 30 subtable" three.subs
Substitution2: "'sups' Superscript lookup 28 subtable" three.sups
Substitution2: "'dnom' Denominators lookup 23 subtable" three.dnom
Substitution2: "'numr' Numerators lookup 22 subtable" three.numr
Substitution2: "'smcp' Lowercase to Small Capitals lookup 18 subtable" three.sc
AlternateSubs2: "'aalt' Access All Alternates lookup 1 subtable" three.sc three.numr three.dnom three.sups three.subs three.pnum three.tnum
EndChar
StartChar: four
Encoding: 52 52 1091
Width: 507
Flags: MW
HStem: 0 21G<301 301 301 398> 168 81<122 301 122 301 398 481> 536 101<302 306 302 302>
VStem: 301 97<0 168 0 168 249 407 407 425>
LayerCount: 2
Fore
SplineSet
301 0 m 1
 301 168 l 1
 18 168 l 1
 18 238 l 1
 277 637 l 1
 398 637 l 1
 398 249 l 1
 481 249 l 1
 481 168 l 1
 398 168 l 1
 398 0 l 1
 301 0 l 1
122 249 m 1
 301 249 l 1
 301 407 l 2
 301 443 304 500 306 536 c 1
 302 536 l 1
 286 504 268 474 250 440 c 1
 122 249 l 1
EndSplineSet
Substitution2: "'onum' Oldstyle Figures lookup 32 subtable" four.tnum
Substitution2: "'pnum' Proportional Numbers lookup 31 subtable" four.pnum
Substitution2: "'subs' Subscript lookup 30 subtable" four.subs
Substitution2: "'sups' Superscript lookup 28 subtable" four.sups
Substitution2: "'dnom' Denominators lookup 23 subtable" four.dnom
Substitution2: "'numr' Numerators lookup 22 subtable" four.numr
Substitution2: "'smcp' Lowercase to Small Capitals lookup 18 subtable" four.sc
AlternateSubs2: "'aalt' Access All Alternates lookup 1 subtable" four.sc four.numr four.dnom four.sups four.subs four.pnum four.tnum
EndChar
StartChar: five
Encoding: 53 53 1092
Width: 497
Flags: MW
HStem: -12 68<188.5 265 188.5 289.5> 342 62<231.5 271> 567 71<170 417 170 170>
VStem: 366 83<157.5 246>
LayerCount: 2
Fore
SplineSet
234 -12 m 0
 132 -12 69 31 25 75 c 1
 65 129 l 1
 103 91 151 56 226 56 c 0
 304 56 366 113 366 202 c 0
 366 290 312 342 230 342 c 0
 186 342 159 328 121 303 c 1
 77 331 l 1
 98 638 l 1
 417 638 l 1
 417 567 l 1
 170 567 l 1
 153 378 l 1
 183 394 212 404 251 404 c 0
 360 404 449 342 449 204 c 0
 449 66 345 -12 234 -12 c 0
EndSplineSet
Substitution2: "'onum' Oldstyle Figures lookup 32 subtable" five.tnum
Substitution2: "'pnum' Proportional Numbers lookup 31 subtable" five.pnum
Substitution2: "'subs' Subscript lookup 30 subtable" five.subs
Substitution2: "'sups' Superscript lookup 28 subtable" five.sups
Substitution2: "'dnom' Denominators lookup 23 subtable" five.dnom
Substitution2: "'numr' Numerators lookup 22 subtable" five.numr
Substitution2: "'smcp' Lowercase to Small Capitals lookup 18 subtable" five.sc
AlternateSubs2: "'aalt' Access All Alternates lookup 1 subtable" five.sc five.numr five.dnom five.sups five.subs five.pnum five.tnum
EndChar
StartChar: six
Encoding: 54 54 1093
Width: 507
Flags: MW
HStem: -12 80<237 299.5 237 326> 316 76<260 300> 558 20G<458 458> 564 85<257.5 318>
VStem: 46 96 372 97<155 234>
LayerCount: 2
Fore
SplineSet
273 -12 m 0xdc
 148 -12 46 87 46 297 c 0
 46 548 164 649 293 649 c 0xdc
 367 649 420 618 458 578 c 1xec
 401 515 l 1
 377 544 337 564 299 564 c 0
 216 564 147 500 142 316 c 1
 180 364 236 392 284 392 c 0
 394 392 469 328 469 195 c 0
 469 70 379 -12 273 -12 c 0xdc
271 68 m 0
 328 68 372 115 372 195 c 0
 372 273 334 316 266 316 c 0
 227 316 180 294 145 239 c 1
 156 122 203 68 271 68 c 0
EndSplineSet
Substitution2: "'onum' Oldstyle Figures lookup 32 subtable" six.tnum
Substitution2: "'pnum' Proportional Numbers lookup 31 subtable" six.pnum
Substitution2: "'subs' Subscript lookup 30 subtable" six.subs
Substitution2: "'sups' Superscript lookup 28 subtable" six.sups
Substitution2: "'dnom' Denominators lookup 23 subtable" six.dnom
Substitution2: "'numr' Numerators lookup 22 subtable" six.numr
Substitution2: "'smcp' Lowercase to Small Capitals lookup 18 subtable" six.sc
AlternateSubs2: "'aalt' Access All Alternates lookup 1 subtable" six.sc six.numr six.dnom six.sups six.subs six.pnum six.tnum
EndChar
StartChar: seven
Encoding: 55 55 1094
Width: 497
Flags: MW
HStem: 0 21G<177 177 177 262> 567 71<44 362 44 455>
VStem: 177 85<0 0>
LayerCount: 2
Fore
SplineSet
177 0 m 1
 188 240 236 392 362 567 c 1
 44 567 l 1
 44 638 l 1
 455 638 l 1
 455 587 l 1
 304 394 273 249 262 0 c 1
 177 0 l 1
EndSplineSet
Substitution2: "'onum' Oldstyle Figures lookup 32 subtable" seven.tnum
Substitution2: "'pnum' Proportional Numbers lookup 31 subtable" seven.pnum
Substitution2: "'subs' Subscript lookup 30 subtable" seven.subs
Substitution2: "'sups' Superscript lookup 28 subtable" seven.sups
Substitution2: "'dnom' Denominators lookup 23 subtable" seven.dnom
Substitution2: "'numr' Numerators lookup 22 subtable" seven.numr
Substitution2: "'smcp' Lowercase to Small Capitals lookup 18 subtable" seven.sc
AlternateSubs2: "'aalt' Access All Alternates lookup 1 subtable" seven.sc seven.numr seven.dnom seven.sups seven.subs seven.pnum seven.tnum
EndChar
StartChar: eight
Encoding: 56 56 1095
Width: 497
Flags: MW
HStem: -12 61<213 289 213 312> 589 61<221.5 286>
VStem: 41 74<135.5 200 135.5 204.5> 72 76<452.5 517 448 535> 362 71<452.5 507.5> 377 79<128 201 110.5 202>
LayerCount: 2
Fore
SplineSet
250 -12 m 0xe4
 130 -12 41 62 41 163 c 0xe4
 41 246 101 303 161 335 c 1
 161 339 l 1
 114 372 72 419 72 486 c 0
 72 584 150 650 253 650 c 0
 364 650 433 579 433 480 c 0xd8
 433 413 384 356 345 326 c 1
 345 322 l 1
 402 289 456 244 456 158 c 0
 456 63 374 -12 250 -12 c 0xe4
295 348 m 1xd8
 338 386 362 429 362 476 c 0
 362 539 321 589 251 589 c 0
 192 589 148 548 148 486 c 0
 148 410 218 378 295 348 c 1xd8
252 49 m 0xe4
 326 49 377 95 377 161 c 0
 377 243 296 273 204 310 c 1
 153 276 115 229 115 171 c 0
 115 100 174 49 252 49 c 0xe4
EndSplineSet
Substitution2: "'onum' Oldstyle Figures lookup 32 subtable" eight.tnum
Substitution2: "'pnum' Proportional Numbers lookup 31 subtable" eight.pnum
Substitution2: "'subs' Subscript lookup 30 subtable" eight.subs
Substitution2: "'sups' Superscript lookup 28 subtable" eight.sups
Substitution2: "'dnom' Denominators lookup 23 subtable" eight.dnom
Substitution2: "'numr' Numerators lookup 22 subtable" eight.numr
Substitution2: "'smcp' Lowercase to Small Capitals lookup 18 subtable" eight.sc
AlternateSubs2: "'aalt' Access All Alternates lookup 1 subtable" eight.sc eight.numr eight.dnom eight.sups eight.subs eight.pnum eight.tnum
EndChar
StartChar: nine
Encoding: 57 57 1096
Width: 507
Flags: MW
HStem: -12 85<188.5 249.5 188.5 277.5> 245 75<206.5 246> 569 80<207 269.5>
VStem: 38 96<403 481.5 403 504.5> 364 97
LayerCount: 2
Fore
SplineSet
241 320 m 0
 279 320 326 343 361 398 c 1
 350 515 304 569 235 569 c 0
 179 569 134 521 134 442 c 0
 134 364 172 320 241 320 c 0
213 -12 m 0
 139 -12 85 19 49 58 c 1
 105 122 l 1
 129 93 169 73 208 73 c 0
 291 73 359 136 364 321 c 1
 327 273 270 245 222 245 c 0
 112 245 38 309 38 442 c 0
 38 567 127 649 234 649 c 0
 359 649 461 550 461 340 c 0
 461 89 342 -12 213 -12 c 0
EndSplineSet
Substitution2: "'onum' Oldstyle Figures lookup 32 subtable" nine.tnum
Substitution2: "'pnum' Proportional Numbers lookup 31 subtable" nine.pnum
Substitution2: "'subs' Subscript lookup 30 subtable" nine.subs
Substitution2: "'sups' Superscript lookup 28 subtable" nine.sups
Substitution2: "'dnom' Denominators lookup 23 subtable" nine.dnom
Substitution2: "'numr' Numerators lookup 22 subtable" nine.numr
Substitution2: "'smcp' Lowercase to Small Capitals lookup 18 subtable" nine.sc
AlternateSubs2: "'aalt' Access All Alternates lookup 1 subtable" nine.sc nine.numr nine.dnom nine.sups nine.subs nine.pnum nine.tnum
EndChar
StartChar: colon
Encoding: 58 58 1143
Width: 266
Flags: MW
HStem: -12 146<113.5 152.5> 336 146<113.5 152.5>
VStem: 64 138<39.5 81.5 387.5 429.5>
LayerCount: 2
Fore
SplineSet
133 336 m 0
 94 336 64 367 64 408 c 0
 64 451 94 482 133 482 c 0
 172 482 202 451 202 408 c 0
 202 367 172 336 133 336 c 0
133 -12 m 0
 94 -12 64 19 64 60 c 0
 64 103 94 134 133 134 c 0
 172 134 202 103 202 60 c 0
 202 19 172 -12 133 -12 c 0
EndSplineSet
Substitution2: "'sups' Superscript lookup 29 subtable" colon.sups
Substitution2: "'aalt' Access All Alternates lookup 0 subtable" colon.sups
PairPos2: "'kern' Horizontal Kerning lookup 10 per glyph data 8" asterisk dx=0 dy=0 dh=-42 dv=0 dx=0 dy=0 dh=0 dv=0
PairPos2: "'kern' Horizontal Kerning lookup 10 per glyph data 8" uni1EF8 dx=0 dy=0 dh=-29 dv=0 dx=0 dy=0 dh=0 dv=0
PairPos2: "'kern' Horizontal Kerning lookup 10 per glyph data 8" uni1EF6 dx=0 dy=0 dh=-29 dv=0 dx=0 dy=0 dh=0 dv=0
PairPos2: "'kern' Horizontal Kerning lookup 10 per glyph data 8" uni1EF4 dx=0 dy=0 dh=-29 dv=0 dx=0 dy=0 dh=0 dv=0
PairPos2: "'kern' Horizontal Kerning lookup 10 per glyph data 8" uni1E8E dx=0 dy=0 dh=-29 dv=0 dx=0 dy=0 dh=0 dv=0
PairPos2: "'kern' Horizontal Kerning lookup 10 per glyph data 8" Ydieresis dx=0 dy=0 dh=-29 dv=0 dx=0 dy=0 dh=0 dv=0
PairPos2: "'kern' Horizontal Kerning lookup 10 per glyph data 8" Ycircumflex dx=0 dy=0 dh=-29 dv=0 dx=0 dy=0 dh=0 dv=0
PairPos2: "'kern' Horizontal Kerning lookup 10 per glyph data 8" Yacute dx=0 dy=0 dh=-29 dv=0 dx=0 dy=0 dh=0 dv=0
PairPos2: "'kern' Horizontal Kerning lookup 10 per glyph data 8" Ygrave dx=0 dy=0 dh=-29 dv=0 dx=0 dy=0 dh=0 dv=0
PairPos2: "'kern' Horizontal Kerning lookup 10 per glyph data 8" Y dx=0 dy=0 dh=-29 dv=0 dx=0 dy=0 dh=0 dv=0
PairPos2: "'kern' Horizontal Kerning lookup 10 per glyph data 8" hbar dx=0 dy=0 dh=-10 dv=0 dx=0 dy=0 dh=0 dv=0
PairPos2: "'kern' Horizontal Kerning lookup 10 per glyph data 8" uni0180 dx=0 dy=0 dh=-10 dv=0 dx=0 dy=0 dh=0 dv=0
PairPos2: "'kern' Horizontal Kerning lookup 10 per glyph data 8" uni1FE9 dx=0 dy=0 dh=-29 dv=0 dx=0 dy=0 dh=0 dv=0
PairPos2: "'kern' Horizontal Kerning lookup 10 per glyph data 8" uni1FE8 dx=0 dy=0 dh=-29 dv=0 dx=0 dy=0 dh=0 dv=0
PairPos2: "'kern' Horizontal Kerning lookup 10 per glyph data 8" Upsilondieresis dx=0 dy=0 dh=-29 dv=0 dx=0 dy=0 dh=0 dv=0
PairPos2: "'kern' Horizontal Kerning lookup 10 per glyph data 8" Upsilon dx=0 dy=0 dh=-29 dv=0 dx=0 dy=0 dh=0 dv=0
PairPos2: "'kern' Horizontal Kerning lookup 10 per glyph data 8" uni0409 dx=0 dy=0 dh=21 dv=0 dx=0 dy=0 dh=0 dv=0
PairPos2: "'kern' Horizontal Kerning lookup 10 per glyph data 8" uni041B dx=0 dy=0 dh=21 dv=0 dx=0 dy=0 dh=0 dv=0
PairPos2: "'kern' Horizontal Kerning lookup 10 per glyph data 8" uni0459 dx=0 dy=0 dh=30 dv=0 dx=0 dy=0 dh=0 dv=0
PairPos2: "'kern' Horizontal Kerning lookup 10 per glyph data 8" uni043B dx=0 dy=0 dh=30 dv=0 dx=0 dy=0 dh=0 dv=0
PairPos2: "'kern' Horizontal Kerning lookup 10 per glyph data 8" uni045B dx=0 dy=0 dh=-10 dv=0 dx=0 dy=0 dh=0 dv=0
PairPos2: "'kern' Horizontal Kerning lookup 10 per glyph data 8" uni0452 dx=0 dy=0 dh=-10 dv=0 dx=0 dy=0 dh=0 dv=0
PairPos2: "'kern' Horizontal Kerning lookup 10 per glyph data 8" uni0284 dx=0 dy=0 dh=4 dv=0 dx=0 dy=0 dh=0 dv=0
PairPos2: "'kern' Horizontal Kerning lookup 10 per glyph data 8" uni0283 dx=0 dy=0 dh=4 dv=0 dx=0 dy=0 dh=0 dv=0
PairPos2: "'kern' Horizontal Kerning lookup 10 per glyph data 8" uni0272 dx=0 dy=0 dh=4 dv=0 dx=0 dy=0 dh=0 dv=0
PairPos2: "'kern' Horizontal Kerning lookup 10 per glyph data 8" uni025F dx=0 dy=0 dh=4 dv=0 dx=0 dy=0 dh=0 dv=0
PairPos2: "'kern' Horizontal Kerning lookup 10 per glyph data 8" uni0237 dx=0 dy=0 dh=4 dv=0 dx=0 dy=0 dh=0 dv=0
PairPos2: "'kern' Horizontal Kerning lookup 10 per glyph data 8" jcircumflex dx=0 dy=0 dh=4 dv=0 dx=0 dy=0 dh=0 dv=0
PairPos2: "'kern' Horizontal Kerning lookup 10 per glyph data 8" j dx=0 dy=0 dh=4 dv=0 dx=0 dy=0 dh=0 dv=0
PairPos2: "'kern' Horizontal Kerning lookup 10 per glyph data 8" uni0458 dx=0 dy=0 dh=4 dv=0 dx=0 dy=0 dh=0 dv=0
PairPos2: "'kern' Horizontal Kerning lookup 10 per glyph data 8" uni0414 dx=0 dy=0 dh=40 dv=0 dx=0 dy=0 dh=0 dv=0
PairPos2: "'kern' Horizontal Kerning lookup 10 per glyph data 8" uni0414.sc dx=0 dy=0 dh=40 dv=0 dx=0 dy=0 dh=0 dv=0
PairPos2: "'kern' Horizontal Kerning lookup 10 per glyph data 8" uni0434 dx=0 dy=0 dh=30 dv=0 dx=0 dy=0 dh=0 dv=0
EndChar
StartChar: semicolon
Encoding: 59 59 1144
Width: 249
Flags: MW
HStem: -1 115<112.5 128.5> 349 126<108.5 141>
VStem: 65 119<393 430> 137 61
LayerCount: 2
Fore
SplineSet
125 349 m 0xe0
 92 349 65 375 65 411 c 0
 65 449 92 475 125 475 c 0
 157 475 184 449 184 411 c 0
 184 375 157 349 125 349 c 0xe0
67 -170 m 1
 47 -122 l 1
 104 -97 138 -53 137 0 c 1
 134 -1 130 -1 127 -1 c 0
 95 -1 68 19 68 56 c 0
 68 92 96 114 129 114 c 0
 172 114 198 77 198 17 c 0xd0
 198 -69 148 -136 67 -170 c 1
EndSplineSet
PairPos2: "'kern' Horizontal Kerning lookup 10 per glyph data 8" asterisk dx=0 dy=0 dh=-49 dv=0 dx=0 dy=0 dh=0 dv=0
PairPos2: "'kern' Horizontal Kerning lookup 10 per glyph data 8" uni1EF8 dx=0 dy=0 dh=-26 dv=0 dx=0 dy=0 dh=0 dv=0
PairPos2: "'kern' Horizontal Kerning lookup 10 per glyph data 8" uni1EF6 dx=0 dy=0 dh=-26 dv=0 dx=0 dy=0 dh=0 dv=0
PairPos2: "'kern' Horizontal Kerning lookup 10 per glyph data 8" uni1EF4 dx=0 dy=0 dh=-26 dv=0 dx=0 dy=0 dh=0 dv=0
PairPos2: "'kern' Horizontal Kerning lookup 10 per glyph data 8" uni1E8E dx=0 dy=0 dh=-26 dv=0 dx=0 dy=0 dh=0 dv=0
PairPos2: "'kern' Horizontal Kerning lookup 10 per glyph data 8" Ydieresis dx=0 dy=0 dh=-26 dv=0 dx=0 dy=0 dh=0 dv=0
PairPos2: "'kern' Horizontal Kerning lookup 10 per glyph data 8" Ycircumflex dx=0 dy=0 dh=-26 dv=0 dx=0 dy=0 dh=0 dv=0
PairPos2: "'kern' Horizontal Kerning lookup 10 per glyph data 8" Yacute dx=0 dy=0 dh=-26 dv=0 dx=0 dy=0 dh=0 dv=0
PairPos2: "'kern' Horizontal Kerning lookup 10 per glyph data 8" Ygrave dx=0 dy=0 dh=-26 dv=0 dx=0 dy=0 dh=0 dv=0
PairPos2: "'kern' Horizontal Kerning lookup 10 per glyph data 8" Y dx=0 dy=0 dh=-26 dv=0 dx=0 dy=0 dh=0 dv=0
PairPos2: "'kern' Horizontal Kerning lookup 10 per glyph data 8" hbar dx=0 dy=0 dh=-10 dv=0 dx=0 dy=0 dh=0 dv=0
PairPos2: "'kern' Horizontal Kerning lookup 10 per glyph data 8" uni0180 dx=0 dy=0 dh=-10 dv=0 dx=0 dy=0 dh=0 dv=0
PairPos2: "'kern' Horizontal Kerning lookup 10 per glyph data 8" uni1FE9 dx=0 dy=0 dh=-26 dv=0 dx=0 dy=0 dh=0 dv=0
PairPos2: "'kern' Horizontal Kerning lookup 10 per glyph data 8" uni1FE8 dx=0 dy=0 dh=-26 dv=0 dx=0 dy=0 dh=0 dv=0
PairPos2: "'kern' Horizontal Kerning lookup 10 per glyph data 8" Upsilondieresis dx=0 dy=0 dh=-26 dv=0 dx=0 dy=0 dh=0 dv=0
PairPos2: "'kern' Horizontal Kerning lookup 10 per glyph data 8" Upsilon dx=0 dy=0 dh=-26 dv=0 dx=0 dy=0 dh=0 dv=0
PairPos2: "'kern' Horizontal Kerning lookup 10 per glyph data 8" uni0409 dx=0 dy=0 dh=15 dv=0 dx=0 dy=0 dh=0 dv=0
PairPos2: "'kern' Horizontal Kerning lookup 10 per glyph data 8" uni041B dx=0 dy=0 dh=15 dv=0 dx=0 dy=0 dh=0 dv=0
PairPos2: "'kern' Horizontal Kerning lookup 10 per glyph data 8" uni0459 dx=0 dy=0 dh=33 dv=0 dx=0 dy=0 dh=0 dv=0
PairPos2: "'kern' Horizontal Kerning lookup 10 per glyph data 8" uni043B dx=0 dy=0 dh=33 dv=0 dx=0 dy=0 dh=0 dv=0
PairPos2: "'kern' Horizontal Kerning lookup 10 per glyph data 8" uni045B dx=0 dy=0 dh=-10 dv=0 dx=0 dy=0 dh=0 dv=0
PairPos2: "'kern' Horizontal Kerning lookup 10 per glyph data 8" uni0452 dx=0 dy=0 dh=-10 dv=0 dx=0 dy=0 dh=0 dv=0
PairPos2: "'kern' Horizontal Kerning lookup 10 per glyph data 8" uni0284 dx=0 dy=0 dh=4 dv=0 dx=0 dy=0 dh=0 dv=0
PairPos2: "'kern' Horizontal Kerning lookup 10 per glyph data 8" uni0283 dx=0 dy=0 dh=4 dv=0 dx=0 dy=0 dh=0 dv=0
PairPos2: "'kern' Horizontal Kerning lookup 10 per glyph data 8" uni0272 dx=0 dy=0 dh=4 dv=0 dx=0 dy=0 dh=0 dv=0
PairPos2: "'kern' Horizontal Kerning lookup 10 per glyph data 8" uni025F dx=0 dy=0 dh=4 dv=0 dx=0 dy=0 dh=0 dv=0
PairPos2: "'kern' Horizontal Kerning lookup 10 per glyph data 8" uni0237 dx=0 dy=0 dh=4 dv=0 dx=0 dy=0 dh=0 dv=0
PairPos2: "'kern' Horizontal Kerning lookup 10 per glyph data 8" jcircumflex dx=0 dy=0 dh=4 dv=0 dx=0 dy=0 dh=0 dv=0
PairPos2: "'kern' Horizontal Kerning lookup 10 per glyph data 8" j dx=0 dy=0 dh=4 dv=0 dx=0 dy=0 dh=0 dv=0
PairPos2: "'kern' Horizontal Kerning lookup 10 per glyph data 8" uni0458 dx=0 dy=0 dh=4 dv=0 dx=0 dy=0 dh=0 dv=0
PairPos2: "'kern' Horizontal Kerning lookup 10 per glyph data 8" uni0414 dx=0 dy=0 dh=40 dv=0 dx=0 dy=0 dh=0 dv=0
PairPos2: "'kern' Horizontal Kerning lookup 10 per glyph data 8" uni0414.sc dx=0 dy=0 dh=40 dv=0 dx=0 dy=0 dh=0 dv=0
PairPos2: "'kern' Horizontal Kerning lookup 10 per glyph data 8" uni0434 dx=0 dy=0 dh=33 dv=0 dx=0 dy=0 dh=0 dv=0
EndChar
StartChar: less
Encoding: 60 60 1754
Width: 497
Flags: MW
HStem: 131 402<463 463>
VStem: 34 84<330 334 330 365 330 365>
LayerCount: 2
Fore
SplineSet
463 131 m 1
 34 299 l 1
 34 365 l 1
 463 533 l 1
 463 462 l 1
 252 384 l 1
 118 334 l 1
 118 330 l 1
 252 280 l 1
 463 202 l 1
 463 131 l 1
EndSplineSet
EndChar
StartChar: equal
Encoding: 61 61 1753
Width: 507
Flags: MW
HStem: 182 76<34 473 34 473> 402 76<34 473 34 473>
VStem: 34 439<182 258 182 258 402 478 182 478>
LayerCount: 2
Fore
SplineSet
34 402 m 1
 34 478 l 1
 473 478 l 1
 473 402 l 1
 34 402 l 1
34 182 m 1
 34 258 l 1
 473 258 l 1
 473 182 l 1
 34 182 l 1
EndSplineSet
EndChar
StartChar: greater
Encoding: 62 62 1755
Width: 507
Flags: MW
HStem: 122 420<34 34>
VStem: 368 105<330 334 334 334>
LayerCount: 2
Fore
SplineSet
34 122 m 1
 34 210 l 1
 233 281 l 1
 368 330 l 1
 368 334 l 1
 233 383 l 1
 34 454 l 1
 34 542 l 1
 473 371 l 1
 473 293 l 1
 34 122 l 1
EndSplineSet
EndChar
StartChar: question
Encoding: 63 63 1148
Width: 425
Flags: MW
HStem: -12 21G<181.5 214.5> -12 126<181.5 214.5> 614 68<178 232>
VStem: 139 119<32 69> 297 80<464 543.5>
LayerCount: 2
Fore
SplineSet
160 198 m 1xb8
 138 354 297 411 297 517 c 0
 297 570 264 614 200 614 c 0
 156 614 116 592 85 556 c 1
 38 599 l 1
 80 647 137 682 210 682 c 0
 311 682 377 621 377 522 c 0
 377 391 216 338 232 198 c 1
 160 198 l 1xb8
198 -12 m 0
 165 -12 139 14 139 50 c 0
 139 88 165 114 198 114 c 0x78
 231 114 258 88 258 50 c 0
 258 14 231 -12 198 -12 c 0
EndSplineSet
Substitution2: "'c2sc' Capitals to Small Capitals lookup 19 subtable" question.sc
Substitution2: "'aalt' Access All Alternates lookup 0 subtable" question.sc
PairPos2: "'kern' Horizontal Kerning lookup 10 per glyph data 8" uni02BE dx=0 dy=0 dh=-21 dv=0 dx=0 dy=0 dh=0 dv=0
PairPos2: "'kern' Horizontal Kerning lookup 10 per glyph data 8" uni02BC dx=0 dy=0 dh=-21 dv=0 dx=0 dy=0 dh=0 dv=0
PairPos2: "'kern' Horizontal Kerning lookup 10 per glyph data 8" quotedblright dx=0 dy=0 dh=-21 dv=0 dx=0 dy=0 dh=0 dv=0
PairPos2: "'kern' Horizontal Kerning lookup 10 per glyph data 8" quoteright dx=0 dy=0 dh=-21 dv=0 dx=0 dy=0 dh=0 dv=0
EndChar
StartChar: at
Encoding: 64 64 1213
Width: 847
Flags: MW
HStem: -155 55<324 437.5> 49 56<576.5 635.5 576.5 641.5> 57 56<365 391> 373 57<402.5 455.5> 591 55<372 552>
VStem: 51 60<108.5 323 108.5 337> 249 66<171 240.5 171 251.5> 493 49 738 58<247 392.5>
LayerCount: 2
Fore
SplineSet
403 -155 m 0xdf80
 207 -155 51 -30 51 203 c 0
 51 471 244 646 468 646 c 0
 670 646 796 512 796 315 c 0
 796 140 687 49 596 49 c 0xdf80
 542 49 500 75 493 125 c 1
 491 125 l 1
 458 86 413 57 369 57 c 0xbf80
 301 57 249 107 249 198 c 0
 249 305 324 430 441 430 c 0
 475 430 503 415 521 382 c 1
 523 382 l 1
 534 422 l 1
 589 422 l 1
 550 222 l 1
 530 143 549 105 604 105 c 0
 667 105 738 182 738 312 c 0
 738 473 643 591 461 591 c 0
 283 591 111 440 111 206 c 0
 111 11 239 -100 409 -100 c 0
 470 -100 526 -81 571 -55 c 1
 593 -104 l 1
 535 -139 472 -155 403 -155 c 0xdf80
385 113 m 0xbf80
 413 113 443 131 477 172 c 1
 506 331 l 1
 487 362 469 373 442 373 c 0
 363 373 315 278 315 203 c 0
 315 139 345 113 385 113 c 0xbf80
EndSplineSet
Substitution2: "'case' Case-Sensitive Forms lookup 35 subtable" at.case
Substitution2: "'aalt' Access All Alternates lookup 0 subtable" at.case
EndChar
StartChar: B
Encoding: 66 66 3
Width: 588
GlyphClass: 2
Flags: MW
HStem: 0 66<173 287 287 299> 313 64<173 270 270 287 173 270> 590 66<173 274 173 173>
VStem: 90 83<66 66 66 313 377 590> 428 82<463.5 523> 466 82<151 235.5>
AnchorPoint: "Anchor-4" 302 -22 basechar 0
AnchorPoint: "Anchor-1" 287 678 basechar 0
LayerCount: 2
Fore
SplineSet
90 0 m 1xf4
 90 656 l 1
 285 656 l 2
 418 656 510 611 510 496 c 0xf8
 510 431 476 373 414 353 c 1
 414 349 l 1
 493 334 548 282 548 192 c 0
 548 63 446 0 299 0 c 2
 90 0 l 1xf4
173 377 m 1
 270 377 l 2
 382 377 428 418 428 485 c 0
 428 561 376 590 274 590 c 2
 173 590 l 1
 173 377 l 1
173 66 m 1
 287 66 l 2
 400 66 466 107 466 195 c 0xf4
 466 276 402 313 287 313 c 2
 173 313 l 1
 173 66 l 1
EndSplineSet
Substitution2: "'sups' Superscript lookup 27 subtable" B.sups
Substitution2: "'c2sc' Capitals to Small Capitals lookup 17 subtable" B.sc
AlternateSubs2: "'aalt' Access All Alternates lookup 1 subtable" B.sc B.sups
PairPos2: "'kern' Horizontal Kerning lookup 10 per glyph data 5" uni1E62 dx=0 dy=0 dh=-14 dv=0 dx=0 dy=0 dh=0 dv=0
PairPos2: "'kern' Horizontal Kerning lookup 10 per glyph data 5" uni1E60 dx=0 dy=0 dh=-14 dv=0 dx=0 dy=0 dh=0 dv=0
PairPos2: "'kern' Horizontal Kerning lookup 10 per glyph data 5" uni0218 dx=0 dy=0 dh=-14 dv=0 dx=0 dy=0 dh=0 dv=0
PairPos2: "'kern' Horizontal Kerning lookup 10 per glyph data 5" uni015E dx=0 dy=0 dh=-14 dv=0 dx=0 dy=0 dh=0 dv=0
PairPos2: "'kern' Horizontal Kerning lookup 10 per glyph data 5" Scaron dx=0 dy=0 dh=-14 dv=0 dx=0 dy=0 dh=0 dv=0
PairPos2: "'kern' Horizontal Kerning lookup 10 per glyph data 5" Scircumflex dx=0 dy=0 dh=-14 dv=0 dx=0 dy=0 dh=0 dv=0
PairPos2: "'kern' Horizontal Kerning lookup 10 per glyph data 5" Sacute dx=0 dy=0 dh=-14 dv=0 dx=0 dy=0 dh=0 dv=0
PairPos2: "'kern' Horizontal Kerning lookup 10 per glyph data 5" S dx=0 dy=0 dh=-14 dv=0 dx=0 dy=0 dh=0 dv=0
PairPos2: "'kern' Horizontal Kerning lookup 10 per glyph data 5" Jcircumflex dx=0 dy=0 dh=-16 dv=0 dx=0 dy=0 dh=0 dv=0
PairPos2: "'kern' Horizontal Kerning lookup 10 per glyph data 5" J dx=0 dy=0 dh=-16 dv=0 dx=0 dy=0 dh=0 dv=0
PairPos2: "'kern' Horizontal Kerning lookup 10 per glyph data 5" trademark dx=0 dy=0 dh=-20 dv=0 dx=0 dy=0 dh=0 dv=0
PairPos2: "'kern' Horizontal Kerning lookup 10 per glyph data 5" uni02BF dx=0 dy=0 dh=-14 dv=0 dx=0 dy=0 dh=0 dv=0
PairPos2: "'kern' Horizontal Kerning lookup 10 per glyph data 5" uni02BB dx=0 dy=0 dh=-14 dv=0 dx=0 dy=0 dh=0 dv=0
PairPos2: "'kern' Horizontal Kerning lookup 10 per glyph data 5" quotedblleft dx=0 dy=0 dh=-14 dv=0 dx=0 dy=0 dh=0 dv=0
PairPos2: "'kern' Horizontal Kerning lookup 10 per glyph data 5" quoteleft dx=0 dy=0 dh=-14 dv=0 dx=0 dy=0 dh=0 dv=0
PairPos2: "'kern' Horizontal Kerning lookup 10 per glyph data 5" uni1E94 dx=0 dy=0 dh=-4 dv=0 dx=0 dy=0 dh=0 dv=0
PairPos2: "'kern' Horizontal Kerning lookup 10 per glyph data 5" uni1E92 dx=0 dy=0 dh=-4 dv=0 dx=0 dy=0 dh=0 dv=0
PairPos2: "'kern' Horizontal Kerning lookup 10 per glyph data 5" Zdotaccent dx=0 dy=0 dh=-4 dv=0 dx=0 dy=0 dh=0 dv=0
PairPos2: "'kern' Horizontal Kerning lookup 10 per glyph data 5" Zcaron dx=0 dy=0 dh=-4 dv=0 dx=0 dy=0 dh=0 dv=0
PairPos2: "'kern' Horizontal Kerning lookup 10 per glyph data 5" Zacute dx=0 dy=0 dh=-4 dv=0 dx=0 dy=0 dh=0 dv=0
PairPos2: "'kern' Horizontal Kerning lookup 10 per glyph data 5" Z dx=0 dy=0 dh=-4 dv=0 dx=0 dy=0 dh=0 dv=0
PairPos2: "'kern' Horizontal Kerning lookup 10 per glyph data 5" uni0263 dx=0 dy=0 dh=-14 dv=0 dx=0 dy=0 dh=0 dv=0
PairPos2: "'kern' Horizontal Kerning lookup 10 per glyph data 5" uni1EF9 dx=0 dy=0 dh=-14 dv=0 dx=0 dy=0 dh=0 dv=0
PairPos2: "'kern' Horizontal Kerning lookup 10 per glyph data 5" uni1EF7 dx=0 dy=0 dh=-14 dv=0 dx=0 dy=0 dh=0 dv=0
PairPos2: "'kern' Horizontal Kerning lookup 10 per glyph data 5" uni1EF5 dx=0 dy=0 dh=-14 dv=0 dx=0 dy=0 dh=0 dv=0
PairPos2: "'kern' Horizontal Kerning lookup 10 per glyph data 5" uni1E8F dx=0 dy=0 dh=-14 dv=0 dx=0 dy=0 dh=0 dv=0
PairPos2: "'kern' Horizontal Kerning lookup 10 per glyph data 5" ydieresis dx=0 dy=0 dh=-14 dv=0 dx=0 dy=0 dh=0 dv=0
PairPos2: "'kern' Horizontal Kerning lookup 10 per glyph data 5" ycircumflex dx=0 dy=0 dh=-14 dv=0 dx=0 dy=0 dh=0 dv=0
PairPos2: "'kern' Horizontal Kerning lookup 10 per glyph data 5" yacute dx=0 dy=0 dh=-14 dv=0 dx=0 dy=0 dh=0 dv=0
PairPos2: "'kern' Horizontal Kerning lookup 10 per glyph data 5" ygrave dx=0 dy=0 dh=-14 dv=0 dx=0 dy=0 dh=0 dv=0
PairPos2: "'kern' Horizontal Kerning lookup 10 per glyph data 5" y dx=0 dy=0 dh=-14 dv=0 dx=0 dy=0 dh=0 dv=0
PairPos2: "'kern' Horizontal Kerning lookup 10 per glyph data 5" X dx=0 dy=0 dh=-4 dv=0 dx=0 dy=0 dh=0 dv=0
PairPos2: "'kern' Horizontal Kerning lookup 10 per glyph data 5" x dx=0 dy=0 dh=-10 dv=0 dx=0 dy=0 dh=0 dv=0
PairPos2: "'kern' Horizontal Kerning lookup 10 per glyph data 5" wdieresis dx=0 dy=0 dh=-10 dv=0 dx=0 dy=0 dh=0 dv=0
PairPos2: "'kern' Horizontal Kerning lookup 10 per glyph data 5" wcircumflex dx=0 dy=0 dh=-10 dv=0 dx=0 dy=0 dh=0 dv=0
PairPos2: "'kern' Horizontal Kerning lookup 10 per glyph data 5" wacute dx=0 dy=0 dh=-10 dv=0 dx=0 dy=0 dh=0 dv=0
PairPos2: "'kern' Horizontal Kerning lookup 10 per glyph data 5" wgrave dx=0 dy=0 dh=-10 dv=0 dx=0 dy=0 dh=0 dv=0
PairPos2: "'kern' Horizontal Kerning lookup 10 per glyph data 5" w dx=0 dy=0 dh=-10 dv=0 dx=0 dy=0 dh=0 dv=0
PairPos2: "'kern' Horizontal Kerning lookup 10 per glyph data 5" v dx=0 dy=0 dh=-14 dv=0 dx=0 dy=0 dh=0 dv=0
PairPos2: "'kern' Horizontal Kerning lookup 10 per glyph data 5" uni1E52.sc dx=0 dy=0 dh=10 dv=0 dx=0 dy=0 dh=0 dv=0
PairPos2: "'kern' Horizontal Kerning lookup 10 per glyph data 5" uni014E.sc dx=0 dy=0 dh=10 dv=0 dx=0 dy=0 dh=0 dv=0
PairPos2: "'kern' Horizontal Kerning lookup 10 per glyph data 5" uni01EA.sc dx=0 dy=0 dh=10 dv=0 dx=0 dy=0 dh=0 dv=0
PairPos2: "'kern' Horizontal Kerning lookup 10 per glyph data 5" uni1EE2.sc dx=0 dy=0 dh=10 dv=0 dx=0 dy=0 dh=0 dv=0
PairPos2: "'kern' Horizontal Kerning lookup 10 per glyph data 5" uni1EE0.sc dx=0 dy=0 dh=10 dv=0 dx=0 dy=0 dh=0 dv=0
PairPos2: "'kern' Horizontal Kerning lookup 10 per glyph data 5" uni1EDE.sc dx=0 dy=0 dh=10 dv=0 dx=0 dy=0 dh=0 dv=0
PairPos2: "'kern' Horizontal Kerning lookup 10 per glyph data 5" uni1EDC.sc dx=0 dy=0 dh=10 dv=0 dx=0 dy=0 dh=0 dv=0
PairPos2: "'kern' Horizontal Kerning lookup 10 per glyph data 5" uni1EDA.sc dx=0 dy=0 dh=10 dv=0 dx=0 dy=0 dh=0 dv=0
PairPos2: "'kern' Horizontal Kerning lookup 10 per glyph data 5" Ohorn.sc dx=0 dy=0 dh=10 dv=0 dx=0 dy=0 dh=0 dv=0
PairPos2: "'kern' Horizontal Kerning lookup 10 per glyph data 5" OE.sc dx=0 dy=0 dh=10 dv=0 dx=0 dy=0 dh=0 dv=0
PairPos2: "'kern' Horizontal Kerning lookup 10 per glyph data 5" Oslash.sc dx=0 dy=0 dh=10 dv=0 dx=0 dy=0 dh=0 dv=0
PairPos2: "'kern' Horizontal Kerning lookup 10 per glyph data 5" uni1ED8.sc dx=0 dy=0 dh=10 dv=0 dx=0 dy=0 dh=0 dv=0
PairPos2: "'kern' Horizontal Kerning lookup 10 per glyph data 5" uni1ED6.sc dx=0 dy=0 dh=10 dv=0 dx=0 dy=0 dh=0 dv=0
PairPos2: "'kern' Horizontal Kerning lookup 10 per glyph data 5" uni1ED4.sc dx=0 dy=0 dh=10 dv=0 dx=0 dy=0 dh=0 dv=0
PairPos2: "'kern' Horizontal Kerning lookup 10 per glyph data 5" uni1ED2.sc dx=0 dy=0 dh=10 dv=0 dx=0 dy=0 dh=0 dv=0
PairPos2: "'kern' Horizontal Kerning lookup 10 per glyph data 5" uni1ED0.sc dx=0 dy=0 dh=10 dv=0 dx=0 dy=0 dh=0 dv=0
PairPos2: "'kern' Horizontal Kerning lookup 10 per glyph data 5" uni1ECE.sc dx=0 dy=0 dh=10 dv=0 dx=0 dy=0 dh=0 dv=0
PairPos2: "'kern' Horizontal Kerning lookup 10 per glyph data 5" uni1ECC.sc dx=0 dy=0 dh=10 dv=0 dx=0 dy=0 dh=0 dv=0
PairPos2: "'kern' Horizontal Kerning lookup 10 per glyph data 5" uni01D1.sc dx=0 dy=0 dh=10 dv=0 dx=0 dy=0 dh=0 dv=0
PairPos2: "'kern' Horizontal Kerning lookup 10 per glyph data 5" Ohungarumlaut.sc dx=0 dy=0 dh=10 dv=0 dx=0 dy=0 dh=0 dv=0
PairPos2: "'kern' Horizontal Kerning lookup 10 per glyph data 5" Omacron.sc dx=0 dy=0 dh=10 dv=0 dx=0 dy=0 dh=0 dv=0
PairPos2: "'kern' Horizontal Kerning lookup 10 per glyph data 5" Odieresis.sc dx=0 dy=0 dh=10 dv=0 dx=0 dy=0 dh=0 dv=0
PairPos2: "'kern' Horizontal Kerning lookup 10 per glyph data 5" Otilde.sc dx=0 dy=0 dh=10 dv=0 dx=0 dy=0 dh=0 dv=0
PairPos2: "'kern' Horizontal Kerning lookup 10 per glyph data 5" Ocircumflex.sc dx=0 dy=0 dh=10 dv=0 dx=0 dy=0 dh=0 dv=0
PairPos2: "'kern' Horizontal Kerning lookup 10 per glyph data 5" Oacute.sc dx=0 dy=0 dh=10 dv=0 dx=0 dy=0 dh=0 dv=0
PairPos2: "'kern' Horizontal Kerning lookup 10 per glyph data 5" Ograve.sc dx=0 dy=0 dh=10 dv=0 dx=0 dy=0 dh=0 dv=0
PairPos2: "'kern' Horizontal Kerning lookup 10 per glyph data 5" uni0193.sc dx=0 dy=0 dh=10 dv=0 dx=0 dy=0 dh=0 dv=0
PairPos2: "'kern' Horizontal Kerning lookup 10 per glyph data 5" uni00470303.sc dx=0 dy=0 dh=10 dv=0 dx=0 dy=0 dh=0 dv=0
PairPos2: "'kern' Horizontal Kerning lookup 10 per glyph data 5" uni1E20.sc dx=0 dy=0 dh=10 dv=0 dx=0 dy=0 dh=0 dv=0
PairPos2: "'kern' Horizontal Kerning lookup 10 per glyph data 5" Gcaron.sc dx=0 dy=0 dh=10 dv=0 dx=0 dy=0 dh=0 dv=0
PairPos2: "'kern' Horizontal Kerning lookup 10 per glyph data 5" uni0122.sc dx=0 dy=0 dh=10 dv=0 dx=0 dy=0 dh=0 dv=0
PairPos2: "'kern' Horizontal Kerning lookup 10 per glyph data 5" Gdotaccent.sc dx=0 dy=0 dh=10 dv=0 dx=0 dy=0 dh=0 dv=0
PairPos2: "'kern' Horizontal Kerning lookup 10 per glyph data 5" Gbreve.sc dx=0 dy=0 dh=10 dv=0 dx=0 dy=0 dh=0 dv=0
PairPos2: "'kern' Horizontal Kerning lookup 10 per glyph data 5" Gcircumflex.sc dx=0 dy=0 dh=10 dv=0 dx=0 dy=0 dh=0 dv=0
PairPos2: "'kern' Horizontal Kerning lookup 10 per glyph data 5" uni01F4.sc dx=0 dy=0 dh=10 dv=0 dx=0 dy=0 dh=0 dv=0
PairPos2: "'kern' Horizontal Kerning lookup 10 per glyph data 5" Cdotaccent.sc dx=0 dy=0 dh=10 dv=0 dx=0 dy=0 dh=0 dv=0
PairPos2: "'kern' Horizontal Kerning lookup 10 per glyph data 5" Ccaron.sc dx=0 dy=0 dh=10 dv=0 dx=0 dy=0 dh=0 dv=0
PairPos2: "'kern' Horizontal Kerning lookup 10 per glyph data 5" Ccircumflex.sc dx=0 dy=0 dh=10 dv=0 dx=0 dy=0 dh=0 dv=0
PairPos2: "'kern' Horizontal Kerning lookup 10 per glyph data 5" Cacute.sc dx=0 dy=0 dh=10 dv=0 dx=0 dy=0 dh=0 dv=0
PairPos2: "'kern' Horizontal Kerning lookup 10 per glyph data 5" Ccedilla.sc dx=0 dy=0 dh=10 dv=0 dx=0 dy=0 dh=0 dv=0
PairPos2: "'kern' Horizontal Kerning lookup 10 per glyph data 5" Q.sc dx=0 dy=0 dh=10 dv=0 dx=0 dy=0 dh=0 dv=0
PairPos2: "'kern' Horizontal Kerning lookup 10 per glyph data 5" O.sc dx=0 dy=0 dh=10 dv=0 dx=0 dy=0 dh=0 dv=0
PairPos2: "'kern' Horizontal Kerning lookup 10 per glyph data 5" G.sc dx=0 dy=0 dh=10 dv=0 dx=0 dy=0 dh=0 dv=0
PairPos2: "'kern' Horizontal Kerning lookup 10 per glyph data 5" C.sc dx=0 dy=0 dh=10 dv=0 dx=0 dy=0 dh=0 dv=0
PairPos2: "'kern' Horizontal Kerning lookup 10 per glyph data 5" periodcentered dx=0 dy=0 dh=-20 dv=0 dx=0 dy=0 dh=0 dv=0
PairPos2: "'kern' Horizontal Kerning lookup 10 per glyph data 5" uni1EF8.sc dx=0 dy=0 dh=6 dv=0 dx=0 dy=0 dh=0 dv=0
PairPos2: "'kern' Horizontal Kerning lookup 10 per glyph data 5" uni1EF6.sc dx=0 dy=0 dh=6 dv=0 dx=0 dy=0 dh=0 dv=0
PairPos2: "'kern' Horizontal Kerning lookup 10 per glyph data 5" uni1EF4.sc dx=0 dy=0 dh=6 dv=0 dx=0 dy=0 dh=0 dv=0
PairPos2: "'kern' Horizontal Kerning lookup 10 per glyph data 5" uni1E8E.sc dx=0 dy=0 dh=6 dv=0 dx=0 dy=0 dh=0 dv=0
PairPos2: "'kern' Horizontal Kerning lookup 10 per glyph data 5" Ydieresis.sc dx=0 dy=0 dh=6 dv=0 dx=0 dy=0 dh=0 dv=0
PairPos2: "'kern' Horizontal Kerning lookup 10 per glyph data 5" Ycircumflex.sc dx=0 dy=0 dh=6 dv=0 dx=0 dy=0 dh=0 dv=0
PairPos2: "'kern' Horizontal Kerning lookup 10 per glyph data 5" Yacute.sc dx=0 dy=0 dh=6 dv=0 dx=0 dy=0 dh=0 dv=0
PairPos2: "'kern' Horizontal Kerning lookup 10 per glyph data 5" Ygrave.sc dx=0 dy=0 dh=6 dv=0 dx=0 dy=0 dh=0 dv=0
PairPos2: "'kern' Horizontal Kerning lookup 10 per glyph data 5" Y.sc dx=0 dy=0 dh=6 dv=0 dx=0 dy=0 dh=0 dv=0
PairPos2: "'kern' Horizontal Kerning lookup 10 per glyph data 5" Wdieresis.sc dx=0 dy=0 dh=16 dv=0 dx=0 dy=0 dh=0 dv=0
PairPos2: "'kern' Horizontal Kerning lookup 10 per glyph data 5" Wcircumflex.sc dx=0 dy=0 dh=16 dv=0 dx=0 dy=0 dh=0 dv=0
PairPos2: "'kern' Horizontal Kerning lookup 10 per glyph data 5" Wacute.sc dx=0 dy=0 dh=16 dv=0 dx=0 dy=0 dh=0 dv=0
PairPos2: "'kern' Horizontal Kerning lookup 10 per glyph data 5" Wgrave.sc dx=0 dy=0 dh=16 dv=0 dx=0 dy=0 dh=0 dv=0
PairPos2: "'kern' Horizontal Kerning lookup 10 per glyph data 5" W.sc dx=0 dy=0 dh=16 dv=0 dx=0 dy=0 dh=0 dv=0
PairPos2: "'kern' Horizontal Kerning lookup 10 per glyph data 5" V.sc dx=0 dy=0 dh=10 dv=0 dx=0 dy=0 dh=0 dv=0
PairPos2: "'kern' Horizontal Kerning lookup 10 per glyph data 5" uni1EF0.sc dx=0 dy=0 dh=16 dv=0 dx=0 dy=0 dh=0 dv=0
PairPos2: "'kern' Horizontal Kerning lookup 10 per glyph data 5" uni1EEE.sc dx=0 dy=0 dh=16 dv=0 dx=0 dy=0 dh=0 dv=0
PairPos2: "'kern' Horizontal Kerning lookup 10 per glyph data 5" uni1EEC.sc dx=0 dy=0 dh=16 dv=0 dx=0 dy=0 dh=0 dv=0
PairPos2: "'kern' Horizontal Kerning lookup 10 per glyph data 5" uni1EEA.sc dx=0 dy=0 dh=16 dv=0 dx=0 dy=0 dh=0 dv=0
PairPos2: "'kern' Horizontal Kerning lookup 10 per glyph data 5" uni1EE8.sc dx=0 dy=0 dh=16 dv=0 dx=0 dy=0 dh=0 dv=0
PairPos2: "'kern' Horizontal Kerning lookup 10 per glyph data 5" Uhorn.sc dx=0 dy=0 dh=16 dv=0 dx=0 dy=0 dh=0 dv=0
PairPos2: "'kern' Horizontal Kerning lookup 10 per glyph data 5" Uogonek.sc dx=0 dy=0 dh=16 dv=0 dx=0 dy=0 dh=0 dv=0
PairPos2: "'kern' Horizontal Kerning lookup 10 per glyph data 5" uni1EE6.sc dx=0 dy=0 dh=16 dv=0 dx=0 dy=0 dh=0 dv=0
PairPos2: "'kern' Horizontal Kerning lookup 10 per glyph data 5" uni1EE4.sc dx=0 dy=0 dh=16 dv=0 dx=0 dy=0 dh=0 dv=0
PairPos2: "'kern' Horizontal Kerning lookup 10 per glyph data 5" uni01DB.sc dx=0 dy=0 dh=16 dv=0 dx=0 dy=0 dh=0 dv=0
PairPos2: "'kern' Horizontal Kerning lookup 10 per glyph data 5" uni01D9.sc dx=0 dy=0 dh=16 dv=0 dx=0 dy=0 dh=0 dv=0
PairPos2: "'kern' Horizontal Kerning lookup 10 per glyph data 5" uni01D7.sc dx=0 dy=0 dh=16 dv=0 dx=0 dy=0 dh=0 dv=0
PairPos2: "'kern' Horizontal Kerning lookup 10 per glyph data 5" uni01D5.sc dx=0 dy=0 dh=16 dv=0 dx=0 dy=0 dh=0 dv=0
PairPos2: "'kern' Horizontal Kerning lookup 10 per glyph data 5" uni01D3.sc dx=0 dy=0 dh=16 dv=0 dx=0 dy=0 dh=0 dv=0
PairPos2: "'kern' Horizontal Kerning lookup 10 per glyph data 5" Uhungarumlaut.sc dx=0 dy=0 dh=16 dv=0 dx=0 dy=0 dh=0 dv=0
PairPos2: "'kern' Horizontal Kerning lookup 10 per glyph data 5" Uring.sc dx=0 dy=0 dh=16 dv=0 dx=0 dy=0 dh=0 dv=0
PairPos2: "'kern' Horizontal Kerning lookup 10 per glyph data 5" Ubreve.sc dx=0 dy=0 dh=16 dv=0 dx=0 dy=0 dh=0 dv=0
PairPos2: "'kern' Horizontal Kerning lookup 10 per glyph data 5" Umacron.sc dx=0 dy=0 dh=16 dv=0 dx=0 dy=0 dh=0 dv=0
PairPos2: "'kern' Horizontal Kerning lookup 10 per glyph data 5" Udieresis.sc dx=0 dy=0 dh=16 dv=0 dx=0 dy=0 dh=0 dv=0
PairPos2: "'kern' Horizontal Kerning lookup 10 per glyph data 5" Utilde.sc dx=0 dy=0 dh=16 dv=0 dx=0 dy=0 dh=0 dv=0
PairPos2: "'kern' Horizontal Kerning lookup 10 per glyph data 5" Ucircumflex.sc dx=0 dy=0 dh=16 dv=0 dx=0 dy=0 dh=0 dv=0
PairPos2: "'kern' Horizontal Kerning lookup 10 per glyph data 5" Uacute.sc dx=0 dy=0 dh=16 dv=0 dx=0 dy=0 dh=0 dv=0
PairPos2: "'kern' Horizontal Kerning lookup 10 per glyph data 5" Ugrave.sc dx=0 dy=0 dh=16 dv=0 dx=0 dy=0 dh=0 dv=0
PairPos2: "'kern' Horizontal Kerning lookup 10 per glyph data 5" U.sc dx=0 dy=0 dh=16 dv=0 dx=0 dy=0 dh=0 dv=0
PairPos2: "'kern' Horizontal Kerning lookup 10 per glyph data 5" germandbls.sc dx=0 dy=0 dh=4 dv=0 dx=0 dy=0 dh=0 dv=0
PairPos2: "'kern' Horizontal Kerning lookup 10 per glyph data 5" uni1E62.sc dx=0 dy=0 dh=4 dv=0 dx=0 dy=0 dh=0 dv=0
PairPos2: "'kern' Horizontal Kerning lookup 10 per glyph data 5" uni1E60.sc dx=0 dy=0 dh=4 dv=0 dx=0 dy=0 dh=0 dv=0
PairPos2: "'kern' Horizontal Kerning lookup 10 per glyph data 5" uni0218.sc dx=0 dy=0 dh=4 dv=0 dx=0 dy=0 dh=0 dv=0
PairPos2: "'kern' Horizontal Kerning lookup 10 per glyph data 5" uni015E.sc dx=0 dy=0 dh=4 dv=0 dx=0 dy=0 dh=0 dv=0
PairPos2: "'kern' Horizontal Kerning lookup 10 per glyph data 5" Scaron.sc dx=0 dy=0 dh=4 dv=0 dx=0 dy=0 dh=0 dv=0
PairPos2: "'kern' Horizontal Kerning lookup 10 per glyph data 5" Scircumflex.sc dx=0 dy=0 dh=4 dv=0 dx=0 dy=0 dh=0 dv=0
PairPos2: "'kern' Horizontal Kerning lookup 10 per glyph data 5" Sacute.sc dx=0 dy=0 dh=4 dv=0 dx=0 dy=0 dh=0 dv=0
PairPos2: "'kern' Horizontal Kerning lookup 10 per glyph data 5" S.sc dx=0 dy=0 dh=4 dv=0 dx=0 dy=0 dh=0 dv=0
PairPos2: "'kern' Horizontal Kerning lookup 10 per glyph data 5" Jcircumflex.sc dx=0 dy=0 dh=-6 dv=0 dx=0 dy=0 dh=0 dv=0
PairPos2: "'kern' Horizontal Kerning lookup 10 per glyph data 5" J.sc dx=0 dy=0 dh=-6 dv=0 dx=0 dy=0 dh=0 dv=0
PairPos2: "'kern' Horizontal Kerning lookup 10 per glyph data 5" Aogonek.sc dx=0 dy=0 dh=10 dv=0 dx=0 dy=0 dh=0 dv=0
PairPos2: "'kern' Horizontal Kerning lookup 10 per glyph data 5" uni1EB6.sc dx=0 dy=0 dh=10 dv=0 dx=0 dy=0 dh=0 dv=0
PairPos2: "'kern' Horizontal Kerning lookup 10 per glyph data 5" uni1EB4.sc dx=0 dy=0 dh=10 dv=0 dx=0 dy=0 dh=0 dv=0
PairPos2: "'kern' Horizontal Kerning lookup 10 per glyph data 5" uni1EB2.sc dx=0 dy=0 dh=10 dv=0 dx=0 dy=0 dh=0 dv=0
PairPos2: "'kern' Horizontal Kerning lookup 10 per glyph data 5" uni1EB0.sc dx=0 dy=0 dh=10 dv=0 dx=0 dy=0 dh=0 dv=0
PairPos2: "'kern' Horizontal Kerning lookup 10 per glyph data 5" uni1EAE.sc dx=0 dy=0 dh=10 dv=0 dx=0 dy=0 dh=0 dv=0
PairPos2: "'kern' Horizontal Kerning lookup 10 per glyph data 5" uni1EAC.sc dx=0 dy=0 dh=10 dv=0 dx=0 dy=0 dh=0 dv=0
PairPos2: "'kern' Horizontal Kerning lookup 10 per glyph data 5" uni1EAA.sc dx=0 dy=0 dh=10 dv=0 dx=0 dy=0 dh=0 dv=0
PairPos2: "'kern' Horizontal Kerning lookup 10 per glyph data 5" uni1EA8.sc dx=0 dy=0 dh=10 dv=0 dx=0 dy=0 dh=0 dv=0
PairPos2: "'kern' Horizontal Kerning lookup 10 per glyph data 5" uni1EA6.sc dx=0 dy=0 dh=10 dv=0 dx=0 dy=0 dh=0 dv=0
PairPos2: "'kern' Horizontal Kerning lookup 10 per glyph data 5" uni1EA4.sc dx=0 dy=0 dh=10 dv=0 dx=0 dy=0 dh=0 dv=0
PairPos2: "'kern' Horizontal Kerning lookup 10 per glyph data 5" uni1EA2.sc dx=0 dy=0 dh=10 dv=0 dx=0 dy=0 dh=0 dv=0
PairPos2: "'kern' Horizontal Kerning lookup 10 per glyph data 5" uni1EA0.sc dx=0 dy=0 dh=10 dv=0 dx=0 dy=0 dh=0 dv=0
PairPos2: "'kern' Horizontal Kerning lookup 10 per glyph data 5" uni01CD.sc dx=0 dy=0 dh=10 dv=0 dx=0 dy=0 dh=0 dv=0
PairPos2: "'kern' Horizontal Kerning lookup 10 per glyph data 5" Aring.sc dx=0 dy=0 dh=10 dv=0 dx=0 dy=0 dh=0 dv=0
PairPos2: "'kern' Horizontal Kerning lookup 10 per glyph data 5" Abreve.sc dx=0 dy=0 dh=10 dv=0 dx=0 dy=0 dh=0 dv=0
PairPos2: "'kern' Horizontal Kerning lookup 10 per glyph data 5" Amacron.sc dx=0 dy=0 dh=10 dv=0 dx=0 dy=0 dh=0 dv=0
PairPos2: "'kern' Horizontal Kerning lookup 10 per glyph data 5" Adieresis.sc dx=0 dy=0 dh=10 dv=0 dx=0 dy=0 dh=0 dv=0
PairPos2: "'kern' Horizontal Kerning lookup 10 per glyph data 5" Atilde.sc dx=0 dy=0 dh=10 dv=0 dx=0 dy=0 dh=0 dv=0
PairPos2: "'kern' Horizontal Kerning lookup 10 per glyph data 5" Acircumflex.sc dx=0 dy=0 dh=10 dv=0 dx=0 dy=0 dh=0 dv=0
PairPos2: "'kern' Horizontal Kerning lookup 10 per glyph data 5" Aacute.sc dx=0 dy=0 dh=10 dv=0 dx=0 dy=0 dh=0 dv=0
PairPos2: "'kern' Horizontal Kerning lookup 10 per glyph data 5" Agrave.sc dx=0 dy=0 dh=10 dv=0 dx=0 dy=0 dh=0 dv=0
PairPos2: "'kern' Horizontal Kerning lookup 10 per glyph data 5" A.sc dx=0 dy=0 dh=10 dv=0 dx=0 dy=0 dh=0 dv=0
PairPos2: "'kern' Horizontal Kerning lookup 10 per glyph data 5" asterisk dx=0 dy=0 dh=-30 dv=0 dx=0 dy=0 dh=0 dv=0
PairPos2: "'kern' Horizontal Kerning lookup 10 per glyph data 5" uni02BE dx=0 dy=0 dh=-20 dv=0 dx=0 dy=0 dh=0 dv=0
PairPos2: "'kern' Horizontal Kerning lookup 10 per glyph data 5" uni02BC dx=0 dy=0 dh=-20 dv=0 dx=0 dy=0 dh=0 dv=0
PairPos2: "'kern' Horizontal Kerning lookup 10 per glyph data 5" quotedblright dx=0 dy=0 dh=-20 dv=0 dx=0 dy=0 dh=0 dv=0
PairPos2: "'kern' Horizontal Kerning lookup 10 per glyph data 5" quoteright dx=0 dy=0 dh=-20 dv=0 dx=0 dy=0 dh=0 dv=0
PairPos2: "'kern' Horizontal Kerning lookup 10 per glyph data 5" uni1EF8 dx=0 dy=0 dh=-14 dv=0 dx=0 dy=0 dh=0 dv=0
PairPos2: "'kern' Horizontal Kerning lookup 10 per glyph data 5" uni1EF6 dx=0 dy=0 dh=-14 dv=0 dx=0 dy=0 dh=0 dv=0
PairPos2: "'kern' Horizontal Kerning lookup 10 per glyph data 5" uni1EF4 dx=0 dy=0 dh=-14 dv=0 dx=0 dy=0 dh=0 dv=0
PairPos2: "'kern' Horizontal Kerning lookup 10 per glyph data 5" uni1E8E dx=0 dy=0 dh=-14 dv=0 dx=0 dy=0 dh=0 dv=0
PairPos2: "'kern' Horizontal Kerning lookup 10 per glyph data 5" Ydieresis dx=0 dy=0 dh=-14 dv=0 dx=0 dy=0 dh=0 dv=0
PairPos2: "'kern' Horizontal Kerning lookup 10 per glyph data 5" Ycircumflex dx=0 dy=0 dh=-14 dv=0 dx=0 dy=0 dh=0 dv=0
PairPos2: "'kern' Horizontal Kerning lookup 10 per glyph data 5" Yacute dx=0 dy=0 dh=-14 dv=0 dx=0 dy=0 dh=0 dv=0
PairPos2: "'kern' Horizontal Kerning lookup 10 per glyph data 5" Ygrave dx=0 dy=0 dh=-14 dv=0 dx=0 dy=0 dh=0 dv=0
PairPos2: "'kern' Horizontal Kerning lookup 10 per glyph data 5" Y dx=0 dy=0 dh=-14 dv=0 dx=0 dy=0 dh=0 dv=0
PairPos2: "'kern' Horizontal Kerning lookup 10 per glyph data 5" Wdieresis dx=0 dy=0 dh=-4 dv=0 dx=0 dy=0 dh=0 dv=0
PairPos2: "'kern' Horizontal Kerning lookup 10 per glyph data 5" Wcircumflex dx=0 dy=0 dh=-4 dv=0 dx=0 dy=0 dh=0 dv=0
PairPos2: "'kern' Horizontal Kerning lookup 10 per glyph data 5" Wacute dx=0 dy=0 dh=-4 dv=0 dx=0 dy=0 dh=0 dv=0
PairPos2: "'kern' Horizontal Kerning lookup 10 per glyph data 5" Wgrave dx=0 dy=0 dh=-4 dv=0 dx=0 dy=0 dh=0 dv=0
PairPos2: "'kern' Horizontal Kerning lookup 10 per glyph data 5" W dx=0 dy=0 dh=-4 dv=0 dx=0 dy=0 dh=0 dv=0
PairPos2: "'kern' Horizontal Kerning lookup 10 per glyph data 5" V dx=0 dy=0 dh=-6 dv=0 dx=0 dy=0 dh=0 dv=0
PairPos2: "'kern' Horizontal Kerning lookup 10 per glyph data 5" uni0166 dx=0 dy=0 dh=-24 dv=0 dx=0 dy=0 dh=0 dv=0
PairPos2: "'kern' Horizontal Kerning lookup 10 per glyph data 5" uni1E6E dx=0 dy=0 dh=-24 dv=0 dx=0 dy=0 dh=0 dv=0
PairPos2: "'kern' Horizontal Kerning lookup 10 per glyph data 5" uni1E6C dx=0 dy=0 dh=-24 dv=0 dx=0 dy=0 dh=0 dv=0
PairPos2: "'kern' Horizontal Kerning lookup 10 per glyph data 5" uni021A dx=0 dy=0 dh=-24 dv=0 dx=0 dy=0 dh=0 dv=0
PairPos2: "'kern' Horizontal Kerning lookup 10 per glyph data 5" uni0162 dx=0 dy=0 dh=-24 dv=0 dx=0 dy=0 dh=0 dv=0
PairPos2: "'kern' Horizontal Kerning lookup 10 per glyph data 5" Tcaron dx=0 dy=0 dh=-24 dv=0 dx=0 dy=0 dh=0 dv=0
PairPos2: "'kern' Horizontal Kerning lookup 10 per glyph data 5" T dx=0 dy=0 dh=-24 dv=0 dx=0 dy=0 dh=0 dv=0
PairPos2: "'kern' Horizontal Kerning lookup 10 per glyph data 5" uni0288 dx=0 dy=0 dh=-10 dv=0 dx=0 dy=0 dh=0 dv=0
PairPos2: "'kern' Horizontal Kerning lookup 10 per glyph data 5" uni0167 dx=0 dy=0 dh=-10 dv=0 dx=0 dy=0 dh=0 dv=0
PairPos2: "'kern' Horizontal Kerning lookup 10 per glyph data 5" uni1E97 dx=0 dy=0 dh=-10 dv=0 dx=0 dy=0 dh=0 dv=0
PairPos2: "'kern' Horizontal Kerning lookup 10 per glyph data 5" uni1E6F dx=0 dy=0 dh=-10 dv=0 dx=0 dy=0 dh=0 dv=0
PairPos2: "'kern' Horizontal Kerning lookup 10 per glyph data 5" uni1E6D dx=0 dy=0 dh=-10 dv=0 dx=0 dy=0 dh=0 dv=0
PairPos2: "'kern' Horizontal Kerning lookup 10 per glyph data 5" uni021B dx=0 dy=0 dh=-10 dv=0 dx=0 dy=0 dh=0 dv=0
PairPos2: "'kern' Horizontal Kerning lookup 10 per glyph data 5" uni0163 dx=0 dy=0 dh=-10 dv=0 dx=0 dy=0 dh=0 dv=0
PairPos2: "'kern' Horizontal Kerning lookup 10 per glyph data 5" tcaron dx=0 dy=0 dh=-10 dv=0 dx=0 dy=0 dh=0 dv=0
PairPos2: "'kern' Horizontal Kerning lookup 10 per glyph data 5" t dx=0 dy=0 dh=-10 dv=0 dx=0 dy=0 dh=0 dv=0
EndChar
StartChar: C
Encoding: 67 67 4
Width: 574
GlyphClass: 2
Flags: MW
HStem: -12 91<288.5 375.5 288.5 384> 565 20G<532 532> 575 92<292.5 375>
VStem: 50 108<251.5 405 251.5 432.5>
AnchorPoint: "Anchor-4" 345 -22 basechar 0
AnchorPoint: "Anchor-3" 345 0 basechar 0
AnchorPoint: "Anchor-1" 334 677 basechar 0
LayerCount: 2
Fore
SplineSet
342 -12 m 0xb0
 177 -12 50 110 50 326 c 0
 50 539 181 667 346 667 c 0xb0
 428 667 492 628 532 585 c 1xd0
 476 517 l 1
 442 552 401 575 349 575 c 0
 236 575 158 481 158 329 c 0
 158 174 231 79 346 79 c 0
 405 79 451 106 490 149 c 1
 546 83 l 1
 493 22 426 -12 342 -12 c 0xb0
EndSplineSet
Substitution2: "'sups' Superscript lookup 27 subtable" C.sups
Substitution2: "'c2sc' Capitals to Small Capitals lookup 17 subtable" C.sc
AlternateSubs2: "'aalt' Access All Alternates lookup 1 subtable" C.sc C.sups
PairPos2: "'kern' Horizontal Kerning lookup 10 per glyph data 5" guillemotleft dx=0 dy=0 dh=-15 dv=0 dx=0 dy=0 dh=0 dv=0
PairPos2: "'kern' Horizontal Kerning lookup 10 per glyph data 5" guilsinglleft dx=0 dy=0 dh=-15 dv=0 dx=0 dy=0 dh=0 dv=0
PairPos2: "'kern' Horizontal Kerning lookup 10 per glyph data 5" uni2015 dx=0 dy=0 dh=-29 dv=0 dx=0 dy=0 dh=0 dv=0
PairPos2: "'kern' Horizontal Kerning lookup 10 per glyph data 5" figuredash dx=0 dy=0 dh=-29 dv=0 dx=0 dy=0 dh=0 dv=0
PairPos2: "'kern' Horizontal Kerning lookup 10 per glyph data 5" emdash dx=0 dy=0 dh=-29 dv=0 dx=0 dy=0 dh=0 dv=0
PairPos2: "'kern' Horizontal Kerning lookup 10 per glyph data 5" endash dx=0 dy=0 dh=-29 dv=0 dx=0 dy=0 dh=0 dv=0
PairPos2: "'kern' Horizontal Kerning lookup 10 per glyph data 5" uni00AD dx=0 dy=0 dh=-29 dv=0 dx=0 dy=0 dh=0 dv=0
PairPos2: "'kern' Horizontal Kerning lookup 10 per glyph data 5" hyphen dx=0 dy=0 dh=-29 dv=0 dx=0 dy=0 dh=0 dv=0
PairPos2: "'kern' Horizontal Kerning lookup 10 per glyph data 5" uni00670303 dx=0 dy=0 dh=-20 dv=0 dx=0 dy=0 dh=0 dv=0
PairPos2: "'kern' Horizontal Kerning lookup 10 per glyph data 5" uni1E21 dx=0 dy=0 dh=-20 dv=0 dx=0 dy=0 dh=0 dv=0
PairPos2: "'kern' Horizontal Kerning lookup 10 per glyph data 5" gcaron dx=0 dy=0 dh=-20 dv=0 dx=0 dy=0 dh=0 dv=0
PairPos2: "'kern' Horizontal Kerning lookup 10 per glyph data 5" uni0123 dx=0 dy=0 dh=-20 dv=0 dx=0 dy=0 dh=0 dv=0
PairPos2: "'kern' Horizontal Kerning lookup 10 per glyph data 5" gdotaccent dx=0 dy=0 dh=-20 dv=0 dx=0 dy=0 dh=0 dv=0
PairPos2: "'kern' Horizontal Kerning lookup 10 per glyph data 5" gbreve dx=0 dy=0 dh=-20 dv=0 dx=0 dy=0 dh=0 dv=0
PairPos2: "'kern' Horizontal Kerning lookup 10 per glyph data 5" gcircumflex dx=0 dy=0 dh=-20 dv=0 dx=0 dy=0 dh=0 dv=0
PairPos2: "'kern' Horizontal Kerning lookup 10 per glyph data 5" uni01F5 dx=0 dy=0 dh=-20 dv=0 dx=0 dy=0 dh=0 dv=0
PairPos2: "'kern' Horizontal Kerning lookup 10 per glyph data 5" g dx=0 dy=0 dh=-20 dv=0 dx=0 dy=0 dh=0 dv=0
PairPos2: "'kern' Horizontal Kerning lookup 10 per glyph data 5" X dx=0 dy=0 dh=-5 dv=0 dx=0 dy=0 dh=0 dv=0
PairPos2: "'kern' Horizontal Kerning lookup 10 per glyph data 5" uni1E62 dx=0 dy=0 dh=-25 dv=0 dx=0 dy=0 dh=0 dv=0
PairPos2: "'kern' Horizontal Kerning lookup 10 per glyph data 5" uni1E60 dx=0 dy=0 dh=-25 dv=0 dx=0 dy=0 dh=0 dv=0
PairPos2: "'kern' Horizontal Kerning lookup 10 per glyph data 5" uni0218 dx=0 dy=0 dh=-25 dv=0 dx=0 dy=0 dh=0 dv=0
PairPos2: "'kern' Horizontal Kerning lookup 10 per glyph data 5" uni015E dx=0 dy=0 dh=-25 dv=0 dx=0 dy=0 dh=0 dv=0
PairPos2: "'kern' Horizontal Kerning lookup 10 per glyph data 5" Scaron dx=0 dy=0 dh=-25 dv=0 dx=0 dy=0 dh=0 dv=0
PairPos2: "'kern' Horizontal Kerning lookup 10 per glyph data 5" Scircumflex dx=0 dy=0 dh=-25 dv=0 dx=0 dy=0 dh=0 dv=0
PairPos2: "'kern' Horizontal Kerning lookup 10 per glyph data 5" Sacute dx=0 dy=0 dh=-25 dv=0 dx=0 dy=0 dh=0 dv=0
PairPos2: "'kern' Horizontal Kerning lookup 10 per glyph data 5" S dx=0 dy=0 dh=-25 dv=0 dx=0 dy=0 dh=0 dv=0
PairPos2: "'kern' Horizontal Kerning lookup 10 per glyph data 5" Jcircumflex dx=0 dy=0 dh=-10 dv=0 dx=0 dy=0 dh=0 dv=0
PairPos2: "'kern' Horizontal Kerning lookup 10 per glyph data 5" J dx=0 dy=0 dh=-10 dv=0 dx=0 dy=0 dh=0 dv=0
PairPos2: "'kern' Horizontal Kerning lookup 10 per glyph data 5" trademark dx=0 dy=0 dh=21 dv=0 dx=0 dy=0 dh=0 dv=0
PairPos2: "'kern' Horizontal Kerning lookup 10 per glyph data 5" registered dx=0 dy=0 dh=5 dv=0 dx=0 dy=0 dh=0 dv=0
PairPos2: "'kern' Horizontal Kerning lookup 10 per glyph data 5" uni1E94 dx=0 dy=0 dh=-10 dv=0 dx=0 dy=0 dh=0 dv=0
PairPos2: "'kern' Horizontal Kerning lookup 10 per glyph data 5" uni1E92 dx=0 dy=0 dh=-10 dv=0 dx=0 dy=0 dh=0 dv=0
PairPos2: "'kern' Horizontal Kerning lookup 10 per glyph data 5" Zdotaccent dx=0 dy=0 dh=-10 dv=0 dx=0 dy=0 dh=0 dv=0
PairPos2: "'kern' Horizontal Kerning lookup 10 per glyph data 5" Zcaron dx=0 dy=0 dh=-10 dv=0 dx=0 dy=0 dh=0 dv=0
PairPos2: "'kern' Horizontal Kerning lookup 10 per glyph data 5" Zacute dx=0 dy=0 dh=-10 dv=0 dx=0 dy=0 dh=0 dv=0
PairPos2: "'kern' Horizontal Kerning lookup 10 per glyph data 5" Z dx=0 dy=0 dh=-10 dv=0 dx=0 dy=0 dh=0 dv=0
PairPos2: "'kern' Horizontal Kerning lookup 10 per glyph data 5" uni0263 dx=0 dy=0 dh=-15 dv=0 dx=0 dy=0 dh=0 dv=0
PairPos2: "'kern' Horizontal Kerning lookup 10 per glyph data 5" uni1EF9 dx=0 dy=0 dh=-15 dv=0 dx=0 dy=0 dh=0 dv=0
PairPos2: "'kern' Horizontal Kerning lookup 10 per glyph data 5" uni1EF7 dx=0 dy=0 dh=-15 dv=0 dx=0 dy=0 dh=0 dv=0
PairPos2: "'kern' Horizontal Kerning lookup 10 per glyph data 5" uni1EF5 dx=0 dy=0 dh=-15 dv=0 dx=0 dy=0 dh=0 dv=0
PairPos2: "'kern' Horizontal Kerning lookup 10 per glyph data 5" uni1E8F dx=0 dy=0 dh=-15 dv=0 dx=0 dy=0 dh=0 dv=0
PairPos2: "'kern' Horizontal Kerning lookup 10 per glyph data 5" ydieresis dx=0 dy=0 dh=-15 dv=0 dx=0 dy=0 dh=0 dv=0
PairPos2: "'kern' Horizontal Kerning lookup 10 per glyph data 5" ycircumflex dx=0 dy=0 dh=-15 dv=0 dx=0 dy=0 dh=0 dv=0
PairPos2: "'kern' Horizontal Kerning lookup 10 per glyph data 5" yacute dx=0 dy=0 dh=-15 dv=0 dx=0 dy=0 dh=0 dv=0
PairPos2: "'kern' Horizontal Kerning lookup 10 per glyph data 5" ygrave dx=0 dy=0 dh=-15 dv=0 dx=0 dy=0 dh=0 dv=0
PairPos2: "'kern' Horizontal Kerning lookup 10 per glyph data 5" y dx=0 dy=0 dh=-15 dv=0 dx=0 dy=0 dh=0 dv=0
PairPos2: "'kern' Horizontal Kerning lookup 10 per glyph data 5" X.sc dx=0 dy=0 dh=12 dv=0 dx=0 dy=0 dh=0 dv=0
PairPos2: "'kern' Horizontal Kerning lookup 10 per glyph data 5" wdieresis dx=0 dy=0 dh=-10 dv=0 dx=0 dy=0 dh=0 dv=0
PairPos2: "'kern' Horizontal Kerning lookup 10 per glyph data 5" wcircumflex dx=0 dy=0 dh=-10 dv=0 dx=0 dy=0 dh=0 dv=0
PairPos2: "'kern' Horizontal Kerning lookup 10 per glyph data 5" wacute dx=0 dy=0 dh=-10 dv=0 dx=0 dy=0 dh=0 dv=0
PairPos2: "'kern' Horizontal Kerning lookup 10 per glyph data 5" wgrave dx=0 dy=0 dh=-10 dv=0 dx=0 dy=0 dh=0 dv=0
PairPos2: "'kern' Horizontal Kerning lookup 10 per glyph data 5" w dx=0 dy=0 dh=-10 dv=0 dx=0 dy=0 dh=0 dv=0
PairPos2: "'kern' Horizontal Kerning lookup 10 per glyph data 5" v dx=0 dy=0 dh=-15 dv=0 dx=0 dy=0 dh=0 dv=0
PairPos2: "'kern' Horizontal Kerning lookup 10 per glyph data 5" uni1EF0 dx=0 dy=0 dh=-15 dv=0 dx=0 dy=0 dh=0 dv=0
PairPos2: "'kern' Horizontal Kerning lookup 10 per glyph data 5" uni1EEE dx=0 dy=0 dh=-15 dv=0 dx=0 dy=0 dh=0 dv=0
PairPos2: "'kern' Horizontal Kerning lookup 10 per glyph data 5" uni1EEC dx=0 dy=0 dh=-15 dv=0 dx=0 dy=0 dh=0 dv=0
PairPos2: "'kern' Horizontal Kerning lookup 10 per glyph data 5" uni1EEA dx=0 dy=0 dh=-15 dv=0 dx=0 dy=0 dh=0 dv=0
PairPos2: "'kern' Horizontal Kerning lookup 10 per glyph data 5" uni1EE8 dx=0 dy=0 dh=-15 dv=0 dx=0 dy=0 dh=0 dv=0
PairPos2: "'kern' Horizontal Kerning lookup 10 per glyph data 5" Uhorn dx=0 dy=0 dh=-15 dv=0 dx=0 dy=0 dh=0 dv=0
PairPos2: "'kern' Horizontal Kerning lookup 10 per glyph data 5" Uogonek dx=0 dy=0 dh=-15 dv=0 dx=0 dy=0 dh=0 dv=0
PairPos2: "'kern' Horizontal Kerning lookup 10 per glyph data 5" uni1EE6 dx=0 dy=0 dh=-15 dv=0 dx=0 dy=0 dh=0 dv=0
PairPos2: "'kern' Horizontal Kerning lookup 10 per glyph data 5" uni1EE4 dx=0 dy=0 dh=-15 dv=0 dx=0 dy=0 dh=0 dv=0
PairPos2: "'kern' Horizontal Kerning lookup 10 per glyph data 5" uni01DB dx=0 dy=0 dh=-15 dv=0 dx=0 dy=0 dh=0 dv=0
PairPos2: "'kern' Horizontal Kerning lookup 10 per glyph data 5" uni01D9 dx=0 dy=0 dh=-15 dv=0 dx=0 dy=0 dh=0 dv=0
PairPos2: "'kern' Horizontal Kerning lookup 10 per glyph data 5" uni01D7 dx=0 dy=0 dh=-15 dv=0 dx=0 dy=0 dh=0 dv=0
PairPos2: "'kern' Horizontal Kerning lookup 10 per glyph data 5" uni01D5 dx=0 dy=0 dh=-15 dv=0 dx=0 dy=0 dh=0 dv=0
PairPos2: "'kern' Horizontal Kerning lookup 10 per glyph data 5" uni01D3 dx=0 dy=0 dh=-15 dv=0 dx=0 dy=0 dh=0 dv=0
PairPos2: "'kern' Horizontal Kerning lookup 10 per glyph data 5" Uhungarumlaut dx=0 dy=0 dh=-15 dv=0 dx=0 dy=0 dh=0 dv=0
PairPos2: "'kern' Horizontal Kerning lookup 10 per glyph data 5" Uring dx=0 dy=0 dh=-15 dv=0 dx=0 dy=0 dh=0 dv=0
PairPos2: "'kern' Horizontal Kerning lookup 10 per glyph data 5" Ubreve dx=0 dy=0 dh=-15 dv=0 dx=0 dy=0 dh=0 dv=0
PairPos2: "'kern' Horizontal Kerning lookup 10 per glyph data 5" Umacron dx=0 dy=0 dh=-15 dv=0 dx=0 dy=0 dh=0 dv=0
PairPos2: "'kern' Horizontal Kerning lookup 10 per glyph data 5" Udieresis dx=0 dy=0 dh=-15 dv=0 dx=0 dy=0 dh=0 dv=0
PairPos2: "'kern' Horizontal Kerning lookup 10 per glyph data 5" Utilde dx=0 dy=0 dh=-15 dv=0 dx=0 dy=0 dh=0 dv=0
PairPos2: "'kern' Horizontal Kerning lookup 10 per glyph data 5" Ucircumflex dx=0 dy=0 dh=-15 dv=0 dx=0 dy=0 dh=0 dv=0
PairPos2: "'kern' Horizontal Kerning lookup 10 per glyph data 5" Uacute dx=0 dy=0 dh=-15 dv=0 dx=0 dy=0 dh=0 dv=0
PairPos2: "'kern' Horizontal Kerning lookup 10 per glyph data 5" Ugrave dx=0 dy=0 dh=-15 dv=0 dx=0 dy=0 dh=0 dv=0
PairPos2: "'kern' Horizontal Kerning lookup 10 per glyph data 5" U dx=0 dy=0 dh=-15 dv=0 dx=0 dy=0 dh=0 dv=0
PairPos2: "'kern' Horizontal Kerning lookup 10 per glyph data 5" uni028B dx=0 dy=0 dh=-10 dv=0 dx=0 dy=0 dh=0 dv=0
PairPos2: "'kern' Horizontal Kerning lookup 10 per glyph data 5" uni0270 dx=0 dy=0 dh=-10 dv=0 dx=0 dy=0 dh=0 dv=0
PairPos2: "'kern' Horizontal Kerning lookup 10 per glyph data 5" uni026F dx=0 dy=0 dh=-10 dv=0 dx=0 dy=0 dh=0 dv=0
PairPos2: "'kern' Horizontal Kerning lookup 10 per glyph data 5" uni0265 dx=0 dy=0 dh=-10 dv=0 dx=0 dy=0 dh=0 dv=0
PairPos2: "'kern' Horizontal Kerning lookup 10 per glyph data 5" uni0250 dx=0 dy=0 dh=-10 dv=0 dx=0 dy=0 dh=0 dv=0
PairPos2: "'kern' Horizontal Kerning lookup 10 per glyph data 5" uni1EF1 dx=0 dy=0 dh=-10 dv=0 dx=0 dy=0 dh=0 dv=0
PairPos2: "'kern' Horizontal Kerning lookup 10 per glyph data 5" uni1EEF dx=0 dy=0 dh=-10 dv=0 dx=0 dy=0 dh=0 dv=0
PairPos2: "'kern' Horizontal Kerning lookup 10 per glyph data 5" uni1EED dx=0 dy=0 dh=-10 dv=0 dx=0 dy=0 dh=0 dv=0
PairPos2: "'kern' Horizontal Kerning lookup 10 per glyph data 5" uni1EEB dx=0 dy=0 dh=-10 dv=0 dx=0 dy=0 dh=0 dv=0
PairPos2: "'kern' Horizontal Kerning lookup 10 per glyph data 5" uni1EE9 dx=0 dy=0 dh=-10 dv=0 dx=0 dy=0 dh=0 dv=0
PairPos2: "'kern' Horizontal Kerning lookup 10 per glyph data 5" uhorn dx=0 dy=0 dh=-10 dv=0 dx=0 dy=0 dh=0 dv=0
PairPos2: "'kern' Horizontal Kerning lookup 10 per glyph data 5" uogonek dx=0 dy=0 dh=-10 dv=0 dx=0 dy=0 dh=0 dv=0
PairPos2: "'kern' Horizontal Kerning lookup 10 per glyph data 5" uni1EE7 dx=0 dy=0 dh=-10 dv=0 dx=0 dy=0 dh=0 dv=0
PairPos2: "'kern' Horizontal Kerning lookup 10 per glyph data 5" uni1EE5 dx=0 dy=0 dh=-10 dv=0 dx=0 dy=0 dh=0 dv=0
PairPos2: "'kern' Horizontal Kerning lookup 10 per glyph data 5" uni01DC dx=0 dy=0 dh=-10 dv=0 dx=0 dy=0 dh=0 dv=0
PairPos2: "'kern' Horizontal Kerning lookup 10 per glyph data 5" uni01DA dx=0 dy=0 dh=-10 dv=0 dx=0 dy=0 dh=0 dv=0
PairPos2: "'kern' Horizontal Kerning lookup 10 per glyph data 5" uni01D8 dx=0 dy=0 dh=-10 dv=0 dx=0 dy=0 dh=0 dv=0
PairPos2: "'kern' Horizontal Kerning lookup 10 per glyph data 5" uni01D6 dx=0 dy=0 dh=-10 dv=0 dx=0 dy=0 dh=0 dv=0
PairPos2: "'kern' Horizontal Kerning lookup 10 per glyph data 5" uni01D4 dx=0 dy=0 dh=-10 dv=0 dx=0 dy=0 dh=0 dv=0
PairPos2: "'kern' Horizontal Kerning lookup 10 per glyph data 5" uhungarumlaut dx=0 dy=0 dh=-10 dv=0 dx=0 dy=0 dh=0 dv=0
PairPos2: "'kern' Horizontal Kerning lookup 10 per glyph data 5" uring dx=0 dy=0 dh=-10 dv=0 dx=0 dy=0 dh=0 dv=0
PairPos2: "'kern' Horizontal Kerning lookup 10 per glyph data 5" ubreve dx=0 dy=0 dh=-10 dv=0 dx=0 dy=0 dh=0 dv=0
PairPos2: "'kern' Horizontal Kerning lookup 10 per glyph data 5" umacron dx=0 dy=0 dh=-10 dv=0 dx=0 dy=0 dh=0 dv=0
PairPos2: "'kern' Horizontal Kerning lookup 10 per glyph data 5" udieresis dx=0 dy=0 dh=-10 dv=0 dx=0 dy=0 dh=0 dv=0
PairPos2: "'kern' Horizontal Kerning lookup 10 per glyph data 5" utilde dx=0 dy=0 dh=-10 dv=0 dx=0 dy=0 dh=0 dv=0
PairPos2: "'kern' Horizontal Kerning lookup 10 per glyph data 5" ucircumflex dx=0 dy=0 dh=-10 dv=0 dx=0 dy=0 dh=0 dv=0
PairPos2: "'kern' Horizontal Kerning lookup 10 per glyph data 5" uacute dx=0 dy=0 dh=-10 dv=0 dx=0 dy=0 dh=0 dv=0
PairPos2: "'kern' Horizontal Kerning lookup 10 per glyph data 5" ugrave dx=0 dy=0 dh=-10 dv=0 dx=0 dy=0 dh=0 dv=0
PairPos2: "'kern' Horizontal Kerning lookup 10 per glyph data 5" u dx=0 dy=0 dh=-10 dv=0 dx=0 dy=0 dh=0 dv=0
PairPos2: "'kern' Horizontal Kerning lookup 10 per glyph data 5" uni01EA dx=0 dy=0 dh=-31 dv=0 dx=0 dy=0 dh=0 dv=0
PairPos2: "'kern' Horizontal Kerning lookup 10 per glyph data 5" uni1EE2 dx=0 dy=0 dh=-31 dv=0 dx=0 dy=0 dh=0 dv=0
PairPos2: "'kern' Horizontal Kerning lookup 10 per glyph data 5" uni1EE0 dx=0 dy=0 dh=-31 dv=0 dx=0 dy=0 dh=0 dv=0
PairPos2: "'kern' Horizontal Kerning lookup 10 per glyph data 5" uni1EDE dx=0 dy=0 dh=-31 dv=0 dx=0 dy=0 dh=0 dv=0
PairPos2: "'kern' Horizontal Kerning lookup 10 per glyph data 5" uni1EDC dx=0 dy=0 dh=-31 dv=0 dx=0 dy=0 dh=0 dv=0
PairPos2: "'kern' Horizontal Kerning lookup 10 per glyph data 5" uni1EDA dx=0 dy=0 dh=-31 dv=0 dx=0 dy=0 dh=0 dv=0
PairPos2: "'kern' Horizontal Kerning lookup 10 per glyph data 5" Ohorn dx=0 dy=0 dh=-31 dv=0 dx=0 dy=0 dh=0 dv=0
PairPos2: "'kern' Horizontal Kerning lookup 10 per glyph data 5" OE dx=0 dy=0 dh=-31 dv=0 dx=0 dy=0 dh=0 dv=0
PairPos2: "'kern' Horizontal Kerning lookup 10 per glyph data 5" Oslash dx=0 dy=0 dh=-31 dv=0 dx=0 dy=0 dh=0 dv=0
PairPos2: "'kern' Horizontal Kerning lookup 10 per glyph data 5" uni1E52 dx=0 dy=0 dh=-31 dv=0 dx=0 dy=0 dh=0 dv=0
PairPos2: "'kern' Horizontal Kerning lookup 10 per glyph data 5" uni014E dx=0 dy=0 dh=-31 dv=0 dx=0 dy=0 dh=0 dv=0
PairPos2: "'kern' Horizontal Kerning lookup 10 per glyph data 5" uni1ED8 dx=0 dy=0 dh=-31 dv=0 dx=0 dy=0 dh=0 dv=0
PairPos2: "'kern' Horizontal Kerning lookup 10 per glyph data 5" uni1ED6 dx=0 dy=0 dh=-31 dv=0 dx=0 dy=0 dh=0 dv=0
PairPos2: "'kern' Horizontal Kerning lookup 10 per glyph data 5" uni1ED4 dx=0 dy=0 dh=-31 dv=0 dx=0 dy=0 dh=0 dv=0
PairPos2: "'kern' Horizontal Kerning lookup 10 per glyph data 5" uni1ED2 dx=0 dy=0 dh=-31 dv=0 dx=0 dy=0 dh=0 dv=0
PairPos2: "'kern' Horizontal Kerning lookup 10 per glyph data 5" uni1ED0 dx=0 dy=0 dh=-31 dv=0 dx=0 dy=0 dh=0 dv=0
PairPos2: "'kern' Horizontal Kerning lookup 10 per glyph data 5" uni1ECE dx=0 dy=0 dh=-31 dv=0 dx=0 dy=0 dh=0 dv=0
PairPos2: "'kern' Horizontal Kerning lookup 10 per glyph data 5" uni1ECC dx=0 dy=0 dh=-31 dv=0 dx=0 dy=0 dh=0 dv=0
PairPos2: "'kern' Horizontal Kerning lookup 10 per glyph data 5" uni01D1 dx=0 dy=0 dh=-31 dv=0 dx=0 dy=0 dh=0 dv=0
PairPos2: "'kern' Horizontal Kerning lookup 10 per glyph data 5" Ohungarumlaut dx=0 dy=0 dh=-31 dv=0 dx=0 dy=0 dh=0 dv=0
PairPos2: "'kern' Horizontal Kerning lookup 10 per glyph data 5" Omacron dx=0 dy=0 dh=-31 dv=0 dx=0 dy=0 dh=0 dv=0
PairPos2: "'kern' Horizontal Kerning lookup 10 per glyph data 5" Odieresis dx=0 dy=0 dh=-31 dv=0 dx=0 dy=0 dh=0 dv=0
PairPos2: "'kern' Horizontal Kerning lookup 10 per glyph data 5" Otilde dx=0 dy=0 dh=-31 dv=0 dx=0 dy=0 dh=0 dv=0
PairPos2: "'kern' Horizontal Kerning lookup 10 per glyph data 5" Ocircumflex dx=0 dy=0 dh=-31 dv=0 dx=0 dy=0 dh=0 dv=0
PairPos2: "'kern' Horizontal Kerning lookup 10 per glyph data 5" Oacute dx=0 dy=0 dh=-31 dv=0 dx=0 dy=0 dh=0 dv=0
PairPos2: "'kern' Horizontal Kerning lookup 10 per glyph data 5" Ograve dx=0 dy=0 dh=-31 dv=0 dx=0 dy=0 dh=0 dv=0
PairPos2: "'kern' Horizontal Kerning lookup 10 per glyph data 5" uni0193 dx=0 dy=0 dh=-31 dv=0 dx=0 dy=0 dh=0 dv=0
PairPos2: "'kern' Horizontal Kerning lookup 10 per glyph data 5" uni00470303 dx=0 dy=0 dh=-31 dv=0 dx=0 dy=0 dh=0 dv=0
PairPos2: "'kern' Horizontal Kerning lookup 10 per glyph data 5" uni1E20 dx=0 dy=0 dh=-31 dv=0 dx=0 dy=0 dh=0 dv=0
PairPos2: "'kern' Horizontal Kerning lookup 10 per glyph data 5" Gcaron dx=0 dy=0 dh=-31 dv=0 dx=0 dy=0 dh=0 dv=0
PairPos2: "'kern' Horizontal Kerning lookup 10 per glyph data 5" uni0122 dx=0 dy=0 dh=-31 dv=0 dx=0 dy=0 dh=0 dv=0
PairPos2: "'kern' Horizontal Kerning lookup 10 per glyph data 5" Gdotaccent dx=0 dy=0 dh=-31 dv=0 dx=0 dy=0 dh=0 dv=0
PairPos2: "'kern' Horizontal Kerning lookup 10 per glyph data 5" Gbreve dx=0 dy=0 dh=-31 dv=0 dx=0 dy=0 dh=0 dv=0
PairPos2: "'kern' Horizontal Kerning lookup 10 per glyph data 5" Gcircumflex dx=0 dy=0 dh=-31 dv=0 dx=0 dy=0 dh=0 dv=0
PairPos2: "'kern' Horizontal Kerning lookup 10 per glyph data 5" uni01F4 dx=0 dy=0 dh=-31 dv=0 dx=0 dy=0 dh=0 dv=0
PairPos2: "'kern' Horizontal Kerning lookup 10 per glyph data 5" Cdotaccent dx=0 dy=0 dh=-31 dv=0 dx=0 dy=0 dh=0 dv=0
PairPos2: "'kern' Horizontal Kerning lookup 10 per glyph data 5" Ccaron dx=0 dy=0 dh=-31 dv=0 dx=0 dy=0 dh=0 dv=0
PairPos2: "'kern' Horizontal Kerning lookup 10 per glyph data 5" Ccircumflex dx=0 dy=0 dh=-31 dv=0 dx=0 dy=0 dh=0 dv=0
PairPos2: "'kern' Horizontal Kerning lookup 10 per glyph data 5" Cacute dx=0 dy=0 dh=-31 dv=0 dx=0 dy=0 dh=0 dv=0
PairPos2: "'kern' Horizontal Kerning lookup 10 per glyph data 5" Ccedilla dx=0 dy=0 dh=-31 dv=0 dx=0 dy=0 dh=0 dv=0
PairPos2: "'kern' Horizontal Kerning lookup 10 per glyph data 5" Q dx=0 dy=0 dh=-31 dv=0 dx=0 dy=0 dh=0 dv=0
PairPos2: "'kern' Horizontal Kerning lookup 10 per glyph data 5" O dx=0 dy=0 dh=-31 dv=0 dx=0 dy=0 dh=0 dv=0
PairPos2: "'kern' Horizontal Kerning lookup 10 per glyph data 5" G dx=0 dy=0 dh=-31 dv=0 dx=0 dy=0 dh=0 dv=0
PairPos2: "'kern' Horizontal Kerning lookup 10 per glyph data 5" C dx=0 dy=0 dh=-31 dv=0 dx=0 dy=0 dh=0 dv=0
PairPos2: "'kern' Horizontal Kerning lookup 10 per glyph data 5" periodcentered dx=0 dy=0 dh=-59 dv=0 dx=0 dy=0 dh=0 dv=0
PairPos2: "'kern' Horizontal Kerning lookup 10 per glyph data 5" uni0166.sc dx=0 dy=0 dh=-20 dv=0 dx=0 dy=0 dh=0 dv=0
PairPos2: "'kern' Horizontal Kerning lookup 10 per glyph data 5" uni1E6E.sc dx=0 dy=0 dh=-20 dv=0 dx=0 dy=0 dh=0 dv=0
PairPos2: "'kern' Horizontal Kerning lookup 10 per glyph data 5" uni1E6C.sc dx=0 dy=0 dh=-20 dv=0 dx=0 dy=0 dh=0 dv=0
PairPos2: "'kern' Horizontal Kerning lookup 10 per glyph data 5" uni021A.sc dx=0 dy=0 dh=-20 dv=0 dx=0 dy=0 dh=0 dv=0
PairPos2: "'kern' Horizontal Kerning lookup 10 per glyph data 5" uni0162.sc dx=0 dy=0 dh=-20 dv=0 dx=0 dy=0 dh=0 dv=0
PairPos2: "'kern' Horizontal Kerning lookup 10 per glyph data 5" Tcaron.sc dx=0 dy=0 dh=-20 dv=0 dx=0 dy=0 dh=0 dv=0
PairPos2: "'kern' Horizontal Kerning lookup 10 per glyph data 5" T.sc dx=0 dy=0 dh=-20 dv=0 dx=0 dy=0 dh=0 dv=0
PairPos2: "'kern' Horizontal Kerning lookup 10 per glyph data 5" Aogonek.sc dx=0 dy=0 dh=8 dv=0 dx=0 dy=0 dh=0 dv=0
PairPos2: "'kern' Horizontal Kerning lookup 10 per glyph data 5" uni1EB6.sc dx=0 dy=0 dh=8 dv=0 dx=0 dy=0 dh=0 dv=0
PairPos2: "'kern' Horizontal Kerning lookup 10 per glyph data 5" uni1EB4.sc dx=0 dy=0 dh=8 dv=0 dx=0 dy=0 dh=0 dv=0
PairPos2: "'kern' Horizontal Kerning lookup 10 per glyph data 5" uni1EB2.sc dx=0 dy=0 dh=8 dv=0 dx=0 dy=0 dh=0 dv=0
PairPos2: "'kern' Horizontal Kerning lookup 10 per glyph data 5" uni1EB0.sc dx=0 dy=0 dh=8 dv=0 dx=0 dy=0 dh=0 dv=0
PairPos2: "'kern' Horizontal Kerning lookup 10 per glyph data 5" uni1EAE.sc dx=0 dy=0 dh=8 dv=0 dx=0 dy=0 dh=0 dv=0
PairPos2: "'kern' Horizontal Kerning lookup 10 per glyph data 5" uni1EAC.sc dx=0 dy=0 dh=8 dv=0 dx=0 dy=0 dh=0 dv=0
PairPos2: "'kern' Horizontal Kerning lookup 10 per glyph data 5" uni1EAA.sc dx=0 dy=0 dh=8 dv=0 dx=0 dy=0 dh=0 dv=0
PairPos2: "'kern' Horizontal Kerning lookup 10 per glyph data 5" uni1EA8.sc dx=0 dy=0 dh=8 dv=0 dx=0 dy=0 dh=0 dv=0
PairPos2: "'kern' Horizontal Kerning lookup 10 per glyph data 5" uni1EA6.sc dx=0 dy=0 dh=8 dv=0 dx=0 dy=0 dh=0 dv=0
PairPos2: "'kern' Horizontal Kerning lookup 10 per glyph data 5" uni1EA4.sc dx=0 dy=0 dh=8 dv=0 dx=0 dy=0 dh=0 dv=0
PairPos2: "'kern' Horizontal Kerning lookup 10 per glyph data 5" uni1EA2.sc dx=0 dy=0 dh=8 dv=0 dx=0 dy=0 dh=0 dv=0
PairPos2: "'kern' Horizontal Kerning lookup 10 per glyph data 5" uni1EA0.sc dx=0 dy=0 dh=8 dv=0 dx=0 dy=0 dh=0 dv=0
PairPos2: "'kern' Horizontal Kerning lookup 10 per glyph data 5" uni01CD.sc dx=0 dy=0 dh=8 dv=0 dx=0 dy=0 dh=0 dv=0
PairPos2: "'kern' Horizontal Kerning lookup 10 per glyph data 5" Aring.sc dx=0 dy=0 dh=8 dv=0 dx=0 dy=0 dh=0 dv=0
PairPos2: "'kern' Horizontal Kerning lookup 10 per glyph data 5" Abreve.sc dx=0 dy=0 dh=8 dv=0 dx=0 dy=0 dh=0 dv=0
PairPos2: "'kern' Horizontal Kerning lookup 10 per glyph data 5" Amacron.sc dx=0 dy=0 dh=8 dv=0 dx=0 dy=0 dh=0 dv=0
PairPos2: "'kern' Horizontal Kerning lookup 10 per glyph data 5" Adieresis.sc dx=0 dy=0 dh=8 dv=0 dx=0 dy=0 dh=0 dv=0
PairPos2: "'kern' Horizontal Kerning lookup 10 per glyph data 5" Atilde.sc dx=0 dy=0 dh=8 dv=0 dx=0 dy=0 dh=0 dv=0
PairPos2: "'kern' Horizontal Kerning lookup 10 per glyph data 5" Acircumflex.sc dx=0 dy=0 dh=8 dv=0 dx=0 dy=0 dh=0 dv=0
PairPos2: "'kern' Horizontal Kerning lookup 10 per glyph data 5" Aacute.sc dx=0 dy=0 dh=8 dv=0 dx=0 dy=0 dh=0 dv=0
PairPos2: "'kern' Horizontal Kerning lookup 10 per glyph data 5" Agrave.sc dx=0 dy=0 dh=8 dv=0 dx=0 dy=0 dh=0 dv=0
PairPos2: "'kern' Horizontal Kerning lookup 10 per glyph data 5" A.sc dx=0 dy=0 dh=8 dv=0 dx=0 dy=0 dh=0 dv=0
PairPos2: "'kern' Horizontal Kerning lookup 10 per glyph data 5" uni1EF8 dx=0 dy=0 dh=-10 dv=0 dx=0 dy=0 dh=0 dv=0
PairPos2: "'kern' Horizontal Kerning lookup 10 per glyph data 5" uni1EF6 dx=0 dy=0 dh=-10 dv=0 dx=0 dy=0 dh=0 dv=0
PairPos2: "'kern' Horizontal Kerning lookup 10 per glyph data 5" uni1EF4 dx=0 dy=0 dh=-10 dv=0 dx=0 dy=0 dh=0 dv=0
PairPos2: "'kern' Horizontal Kerning lookup 10 per glyph data 5" uni1E8E dx=0 dy=0 dh=-10 dv=0 dx=0 dy=0 dh=0 dv=0
PairPos2: "'kern' Horizontal Kerning lookup 10 per glyph data 5" Ydieresis dx=0 dy=0 dh=-10 dv=0 dx=0 dy=0 dh=0 dv=0
PairPos2: "'kern' Horizontal Kerning lookup 10 per glyph data 5" Ycircumflex dx=0 dy=0 dh=-10 dv=0 dx=0 dy=0 dh=0 dv=0
PairPos2: "'kern' Horizontal Kerning lookup 10 per glyph data 5" Yacute dx=0 dy=0 dh=-10 dv=0 dx=0 dy=0 dh=0 dv=0
PairPos2: "'kern' Horizontal Kerning lookup 10 per glyph data 5" Ygrave dx=0 dy=0 dh=-10 dv=0 dx=0 dy=0 dh=0 dv=0
PairPos2: "'kern' Horizontal Kerning lookup 10 per glyph data 5" Y dx=0 dy=0 dh=-10 dv=0 dx=0 dy=0 dh=0 dv=0
PairPos2: "'kern' Horizontal Kerning lookup 10 per glyph data 5" Wdieresis dx=0 dy=0 dh=-5 dv=0 dx=0 dy=0 dh=0 dv=0
PairPos2: "'kern' Horizontal Kerning lookup 10 per glyph data 5" Wcircumflex dx=0 dy=0 dh=-5 dv=0 dx=0 dy=0 dh=0 dv=0
PairPos2: "'kern' Horizontal Kerning lookup 10 per glyph data 5" Wacute dx=0 dy=0 dh=-5 dv=0 dx=0 dy=0 dh=0 dv=0
PairPos2: "'kern' Horizontal Kerning lookup 10 per glyph data 5" Wgrave dx=0 dy=0 dh=-5 dv=0 dx=0 dy=0 dh=0 dv=0
PairPos2: "'kern' Horizontal Kerning lookup 10 per glyph data 5" W dx=0 dy=0 dh=-5 dv=0 dx=0 dy=0 dh=0 dv=0
PairPos2: "'kern' Horizontal Kerning lookup 10 per glyph data 5" V dx=0 dy=0 dh=-5 dv=0 dx=0 dy=0 dh=0 dv=0
PairPos2: "'kern' Horizontal Kerning lookup 10 per glyph data 5" uni0166 dx=0 dy=0 dh=-16 dv=0 dx=0 dy=0 dh=0 dv=0
PairPos2: "'kern' Horizontal Kerning lookup 10 per glyph data 5" uni1E6E dx=0 dy=0 dh=-16 dv=0 dx=0 dy=0 dh=0 dv=0
PairPos2: "'kern' Horizontal Kerning lookup 10 per glyph data 5" uni1E6C dx=0 dy=0 dh=-16 dv=0 dx=0 dy=0 dh=0 dv=0
PairPos2: "'kern' Horizontal Kerning lookup 10 per glyph data 5" uni021A dx=0 dy=0 dh=-16 dv=0 dx=0 dy=0 dh=0 dv=0
PairPos2: "'kern' Horizontal Kerning lookup 10 per glyph data 5" uni0162 dx=0 dy=0 dh=-16 dv=0 dx=0 dy=0 dh=0 dv=0
PairPos2: "'kern' Horizontal Kerning lookup 10 per glyph data 5" Tcaron dx=0 dy=0 dh=-16 dv=0 dx=0 dy=0 dh=0 dv=0
PairPos2: "'kern' Horizontal Kerning lookup 10 per glyph data 5" T dx=0 dy=0 dh=-16 dv=0 dx=0 dy=0 dh=0 dv=0
PairPos2: "'kern' Horizontal Kerning lookup 10 per glyph data 5" uni0288 dx=0 dy=0 dh=-30 dv=0 dx=0 dy=0 dh=0 dv=0
PairPos2: "'kern' Horizontal Kerning lookup 10 per glyph data 5" uni0167 dx=0 dy=0 dh=-30 dv=0 dx=0 dy=0 dh=0 dv=0
PairPos2: "'kern' Horizontal Kerning lookup 10 per glyph data 5" uni1E97 dx=0 dy=0 dh=-30 dv=0 dx=0 dy=0 dh=0 dv=0
PairPos2: "'kern' Horizontal Kerning lookup 10 per glyph data 5" uni1E6F dx=0 dy=0 dh=-30 dv=0 dx=0 dy=0 dh=0 dv=0
PairPos2: "'kern' Horizontal Kerning lookup 10 per glyph data 5" uni1E6D dx=0 dy=0 dh=-30 dv=0 dx=0 dy=0 dh=0 dv=0
PairPos2: "'kern' Horizontal Kerning lookup 10 per glyph data 5" uni021B dx=0 dy=0 dh=-30 dv=0 dx=0 dy=0 dh=0 dv=0
PairPos2: "'kern' Horizontal Kerning lookup 10 per glyph data 5" uni0163 dx=0 dy=0 dh=-30 dv=0 dx=0 dy=0 dh=0 dv=0
PairPos2: "'kern' Horizontal Kerning lookup 10 per glyph data 5" tcaron dx=0 dy=0 dh=-30 dv=0 dx=0 dy=0 dh=0 dv=0
PairPos2: "'kern' Horizontal Kerning lookup 10 per glyph data 5" t dx=0 dy=0 dh=-30 dv=0 dx=0 dy=0 dh=0 dv=0
EndChar
StartChar: F
Encoding: 70 70 7
Width: 504
GlyphClass: 2
Flags: MW
HStem: 0 21G<85 85 85 190> 280 89<190 432 190 432> 566 89<190 475 190 190>
VStem: 85 105<0 280 369 566>
AnchorPoint: "Anchor-4" 143 -22 basechar 0
AnchorPoint: "Anchor-1" 287 677 basechar 0
LayerCount: 2
Fore
SplineSet
85 0 m 1
 85 655 l 1
 475 655 l 1
 475 566 l 1
 190 566 l 1
 190 369 l 1
 432 369 l 1
 432 280 l 1
 190 280 l 1
 190 0 l 1
 85 0 l 1
EndSplineSet
Substitution2: "'sups' Superscript lookup 27 subtable" F.sups
Substitution2: "'c2sc' Capitals to Small Capitals lookup 17 subtable" F.sc
AlternateSubs2: "'aalt' Access All Alternates lookup 1 subtable" F.sc F.sups
PairPos2: "'kern' Horizontal Kerning lookup 10 per glyph data 5" uni0280 dx=0 dy=0 dh=-20 dv=0 dx=0 dy=0 dh=0 dv=0
PairPos2: "'kern' Horizontal Kerning lookup 10 per glyph data 5" uni027D dx=0 dy=0 dh=-20 dv=0 dx=0 dy=0 dh=0 dv=0
PairPos2: "'kern' Horizontal Kerning lookup 10 per glyph data 5" uni0274 dx=0 dy=0 dh=-20 dv=0 dx=0 dy=0 dh=0 dv=0
PairPos2: "'kern' Horizontal Kerning lookup 10 per glyph data 5" uni0273 dx=0 dy=0 dh=-20 dv=0 dx=0 dy=0 dh=0 dv=0
PairPos2: "'kern' Horizontal Kerning lookup 10 per glyph data 5" uni0271 dx=0 dy=0 dh=-20 dv=0 dx=0 dy=0 dh=0 dv=0
PairPos2: "'kern' Horizontal Kerning lookup 10 per glyph data 5" uni029F dx=0 dy=0 dh=-20 dv=0 dx=0 dy=0 dh=0 dv=0
PairPos2: "'kern' Horizontal Kerning lookup 10 per glyph data 5" uni029C dx=0 dy=0 dh=-20 dv=0 dx=0 dy=0 dh=0 dv=0
PairPos2: "'kern' Horizontal Kerning lookup 10 per glyph data 5" uni0299 dx=0 dy=0 dh=-20 dv=0 dx=0 dy=0 dh=0 dv=0
PairPos2: "'kern' Horizontal Kerning lookup 10 per glyph data 5" uni0252 dx=0 dy=0 dh=-20 dv=0 dx=0 dy=0 dh=0 dv=0
PairPos2: "'kern' Horizontal Kerning lookup 10 per glyph data 5" uni014B dx=0 dy=0 dh=-20 dv=0 dx=0 dy=0 dh=0 dv=0
PairPos2: "'kern' Horizontal Kerning lookup 10 per glyph data 5" uni1E5F dx=0 dy=0 dh=-20 dv=0 dx=0 dy=0 dh=0 dv=0
PairPos2: "'kern' Horizontal Kerning lookup 10 per glyph data 5" uni1E5D dx=0 dy=0 dh=-20 dv=0 dx=0 dy=0 dh=0 dv=0
PairPos2: "'kern' Horizontal Kerning lookup 10 per glyph data 5" uni1E5B dx=0 dy=0 dh=-20 dv=0 dx=0 dy=0 dh=0 dv=0
PairPos2: "'kern' Horizontal Kerning lookup 10 per glyph data 5" uni1E59 dx=0 dy=0 dh=-20 dv=0 dx=0 dy=0 dh=0 dv=0
PairPos2: "'kern' Horizontal Kerning lookup 10 per glyph data 5" rcaron dx=0 dy=0 dh=-20 dv=0 dx=0 dy=0 dh=0 dv=0
PairPos2: "'kern' Horizontal Kerning lookup 10 per glyph data 5" uni0157 dx=0 dy=0 dh=-20 dv=0 dx=0 dy=0 dh=0 dv=0
PairPos2: "'kern' Horizontal Kerning lookup 10 per glyph data 5" racute dx=0 dy=0 dh=-20 dv=0 dx=0 dy=0 dh=0 dv=0
PairPos2: "'kern' Horizontal Kerning lookup 10 per glyph data 5" uni1E49 dx=0 dy=0 dh=-20 dv=0 dx=0 dy=0 dh=0 dv=0
PairPos2: "'kern' Horizontal Kerning lookup 10 per glyph data 5" uni1E47 dx=0 dy=0 dh=-20 dv=0 dx=0 dy=0 dh=0 dv=0
PairPos2: "'kern' Horizontal Kerning lookup 10 per glyph data 5" uni1E45 dx=0 dy=0 dh=-20 dv=0 dx=0 dy=0 dh=0 dv=0
PairPos2: "'kern' Horizontal Kerning lookup 10 per glyph data 5" uni0146 dx=0 dy=0 dh=-20 dv=0 dx=0 dy=0 dh=0 dv=0
PairPos2: "'kern' Horizontal Kerning lookup 10 per glyph data 5" ntilde dx=0 dy=0 dh=-20 dv=0 dx=0 dy=0 dh=0 dv=0
PairPos2: "'kern' Horizontal Kerning lookup 10 per glyph data 5" ncaron dx=0 dy=0 dh=-20 dv=0 dx=0 dy=0 dh=0 dv=0
PairPos2: "'kern' Horizontal Kerning lookup 10 per glyph data 5" uni01F9 dx=0 dy=0 dh=-20 dv=0 dx=0 dy=0 dh=0 dv=0
PairPos2: "'kern' Horizontal Kerning lookup 10 per glyph data 5" nacute dx=0 dy=0 dh=-20 dv=0 dx=0 dy=0 dh=0 dv=0
PairPos2: "'kern' Horizontal Kerning lookup 10 per glyph data 5" uni1E43 dx=0 dy=0 dh=-20 dv=0 dx=0 dy=0 dh=0 dv=0
PairPos2: "'kern' Horizontal Kerning lookup 10 per glyph data 5" uni1E41 dx=0 dy=0 dh=-20 dv=0 dx=0 dy=0 dh=0 dv=0
PairPos2: "'kern' Horizontal Kerning lookup 10 per glyph data 5" uni1E3F dx=0 dy=0 dh=-20 dv=0 dx=0 dy=0 dh=0 dv=0
PairPos2: "'kern' Horizontal Kerning lookup 10 per glyph data 5" kgreenlandic dx=0 dy=0 dh=-20 dv=0 dx=0 dy=0 dh=0 dv=0
PairPos2: "'kern' Horizontal Kerning lookup 10 per glyph data 5" dotlessi dx=0 dy=0 dh=-20 dv=0 dx=0 dy=0 dh=0 dv=0
PairPos2: "'kern' Horizontal Kerning lookup 10 per glyph data 5" r dx=0 dy=0 dh=-20 dv=0 dx=0 dy=0 dh=0 dv=0
PairPos2: "'kern' Horizontal Kerning lookup 10 per glyph data 5" p dx=0 dy=0 dh=-20 dv=0 dx=0 dy=0 dh=0 dv=0
PairPos2: "'kern' Horizontal Kerning lookup 10 per glyph data 5" n dx=0 dy=0 dh=-20 dv=0 dx=0 dy=0 dh=0 dv=0
PairPos2: "'kern' Horizontal Kerning lookup 10 per glyph data 5" m dx=0 dy=0 dh=-20 dv=0 dx=0 dy=0 dh=0 dv=0
PairPos2: "'kern' Horizontal Kerning lookup 10 per glyph data 5" uni012C.a dx=0 dy=0 dh=-10 dv=0 dx=0 dy=0 dh=0 dv=0
PairPos2: "'kern' Horizontal Kerning lookup 10 per glyph data 5" Iogonek.a dx=0 dy=0 dh=-10 dv=0 dx=0 dy=0 dh=0 dv=0
PairPos2: "'kern' Horizontal Kerning lookup 10 per glyph data 5" uni1ECA.a dx=0 dy=0 dh=-10 dv=0 dx=0 dy=0 dh=0 dv=0
PairPos2: "'kern' Horizontal Kerning lookup 10 per glyph data 5" uni1EC8.a dx=0 dy=0 dh=-10 dv=0 dx=0 dy=0 dh=0 dv=0
PairPos2: "'kern' Horizontal Kerning lookup 10 per glyph data 5" uni01CF.a dx=0 dy=0 dh=-10 dv=0 dx=0 dy=0 dh=0 dv=0
PairPos2: "'kern' Horizontal Kerning lookup 10 per glyph data 5" Idotaccent.a dx=0 dy=0 dh=-10 dv=0 dx=0 dy=0 dh=0 dv=0
PairPos2: "'kern' Horizontal Kerning lookup 10 per glyph data 5" Imacron.a dx=0 dy=0 dh=-10 dv=0 dx=0 dy=0 dh=0 dv=0
PairPos2: "'kern' Horizontal Kerning lookup 10 per glyph data 5" Idieresis.a dx=0 dy=0 dh=-10 dv=0 dx=0 dy=0 dh=0 dv=0
PairPos2: "'kern' Horizontal Kerning lookup 10 per glyph data 5" Itilde.a dx=0 dy=0 dh=-10 dv=0 dx=0 dy=0 dh=0 dv=0
PairPos2: "'kern' Horizontal Kerning lookup 10 per glyph data 5" Icircumflex.a dx=0 dy=0 dh=-10 dv=0 dx=0 dy=0 dh=0 dv=0
PairPos2: "'kern' Horizontal Kerning lookup 10 per glyph data 5" Iacute.a dx=0 dy=0 dh=-10 dv=0 dx=0 dy=0 dh=0 dv=0
PairPos2: "'kern' Horizontal Kerning lookup 10 per glyph data 5" Igrave.a dx=0 dy=0 dh=-10 dv=0 dx=0 dy=0 dh=0 dv=0
PairPos2: "'kern' Horizontal Kerning lookup 10 per glyph data 5" I.a dx=0 dy=0 dh=-10 dv=0 dx=0 dy=0 dh=0 dv=0
PairPos2: "'kern' Horizontal Kerning lookup 10 per glyph data 5" slash dx=0 dy=0 dh=-62 dv=0 dx=0 dy=0 dh=0 dv=0
PairPos2: "'kern' Horizontal Kerning lookup 10 per glyph data 5" uni0291 dx=0 dy=0 dh=-37 dv=0 dx=0 dy=0 dh=0 dv=0
PairPos2: "'kern' Horizontal Kerning lookup 10 per glyph data 5" uni0290 dx=0 dy=0 dh=-37 dv=0 dx=0 dy=0 dh=0 dv=0
PairPos2: "'kern' Horizontal Kerning lookup 10 per glyph data 5" uni1E95 dx=0 dy=0 dh=-37 dv=0 dx=0 dy=0 dh=0 dv=0
PairPos2: "'kern' Horizontal Kerning lookup 10 per glyph data 5" uni1E93 dx=0 dy=0 dh=-37 dv=0 dx=0 dy=0 dh=0 dv=0
PairPos2: "'kern' Horizontal Kerning lookup 10 per glyph data 5" zdotaccent dx=0 dy=0 dh=-37 dv=0 dx=0 dy=0 dh=0 dv=0
PairPos2: "'kern' Horizontal Kerning lookup 10 per glyph data 5" zcaron dx=0 dy=0 dh=-37 dv=0 dx=0 dy=0 dh=0 dv=0
PairPos2: "'kern' Horizontal Kerning lookup 10 per glyph data 5" zacute dx=0 dy=0 dh=-37 dv=0 dx=0 dy=0 dh=0 dv=0
PairPos2: "'kern' Horizontal Kerning lookup 10 per glyph data 5" z dx=0 dy=0 dh=-37 dv=0 dx=0 dy=0 dh=0 dv=0
PairPos2: "'kern' Horizontal Kerning lookup 10 per glyph data 5" guillemotleft dx=0 dy=0 dh=-20 dv=0 dx=0 dy=0 dh=0 dv=0
PairPos2: "'kern' Horizontal Kerning lookup 10 per glyph data 5" guilsinglleft dx=0 dy=0 dh=-20 dv=0 dx=0 dy=0 dh=0 dv=0
PairPos2: "'kern' Horizontal Kerning lookup 10 per glyph data 5" uni00670303.a dx=0 dy=0 dh=-15 dv=0 dx=0 dy=0 dh=0 dv=0
PairPos2: "'kern' Horizontal Kerning lookup 10 per glyph data 5" uni1E21.a dx=0 dy=0 dh=-15 dv=0 dx=0 dy=0 dh=0 dv=0
PairPos2: "'kern' Horizontal Kerning lookup 10 per glyph data 5" gcaron.a dx=0 dy=0 dh=-15 dv=0 dx=0 dy=0 dh=0 dv=0
PairPos2: "'kern' Horizontal Kerning lookup 10 per glyph data 5" uni0123.a dx=0 dy=0 dh=-15 dv=0 dx=0 dy=0 dh=0 dv=0
PairPos2: "'kern' Horizontal Kerning lookup 10 per glyph data 5" gdotaccent.a dx=0 dy=0 dh=-15 dv=0 dx=0 dy=0 dh=0 dv=0
PairPos2: "'kern' Horizontal Kerning lookup 10 per glyph data 5" gbreve.a dx=0 dy=0 dh=-15 dv=0 dx=0 dy=0 dh=0 dv=0
PairPos2: "'kern' Horizontal Kerning lookup 10 per glyph data 5" gcircumflex.a dx=0 dy=0 dh=-15 dv=0 dx=0 dy=0 dh=0 dv=0
PairPos2: "'kern' Horizontal Kerning lookup 10 per glyph data 5" uni01F5.a dx=0 dy=0 dh=-15 dv=0 dx=0 dy=0 dh=0 dv=0
PairPos2: "'kern' Horizontal Kerning lookup 10 per glyph data 5" g.a dx=0 dy=0 dh=-15 dv=0 dx=0 dy=0 dh=0 dv=0
PairPos2: "'kern' Horizontal Kerning lookup 10 per glyph data 5" aogonek.a dx=0 dy=0 dh=-15 dv=0 dx=0 dy=0 dh=0 dv=0
PairPos2: "'kern' Horizontal Kerning lookup 10 per glyph data 5" uni1EB7.a dx=0 dy=0 dh=-15 dv=0 dx=0 dy=0 dh=0 dv=0
PairPos2: "'kern' Horizontal Kerning lookup 10 per glyph data 5" uni1EB5.a dx=0 dy=0 dh=-15 dv=0 dx=0 dy=0 dh=0 dv=0
PairPos2: "'kern' Horizontal Kerning lookup 10 per glyph data 5" uni1EB3.a dx=0 dy=0 dh=-15 dv=0 dx=0 dy=0 dh=0 dv=0
PairPos2: "'kern' Horizontal Kerning lookup 10 per glyph data 5" uni1EB1.a dx=0 dy=0 dh=-15 dv=0 dx=0 dy=0 dh=0 dv=0
PairPos2: "'kern' Horizontal Kerning lookup 10 per glyph data 5" uni1EAF.a dx=0 dy=0 dh=-15 dv=0 dx=0 dy=0 dh=0 dv=0
PairPos2: "'kern' Horizontal Kerning lookup 10 per glyph data 5" uni1EAD.a dx=0 dy=0 dh=-15 dv=0 dx=0 dy=0 dh=0 dv=0
PairPos2: "'kern' Horizontal Kerning lookup 10 per glyph data 5" uni1EAB.a dx=0 dy=0 dh=-15 dv=0 dx=0 dy=0 dh=0 dv=0
PairPos2: "'kern' Horizontal Kerning lookup 10 per glyph data 5" uni1EA9.a dx=0 dy=0 dh=-15 dv=0 dx=0 dy=0 dh=0 dv=0
PairPos2: "'kern' Horizontal Kerning lookup 10 per glyph data 5" uni1EA7.a dx=0 dy=0 dh=-15 dv=0 dx=0 dy=0 dh=0 dv=0
PairPos2: "'kern' Horizontal Kerning lookup 10 per glyph data 5" uni1EA5.a dx=0 dy=0 dh=-15 dv=0 dx=0 dy=0 dh=0 dv=0
PairPos2: "'kern' Horizontal Kerning lookup 10 per glyph data 5" uni1EA3.a dx=0 dy=0 dh=-15 dv=0 dx=0 dy=0 dh=0 dv=0
PairPos2: "'kern' Horizontal Kerning lookup 10 per glyph data 5" uni1EA1.a dx=0 dy=0 dh=-15 dv=0 dx=0 dy=0 dh=0 dv=0
PairPos2: "'kern' Horizontal Kerning lookup 10 per glyph data 5" uni01CE.a dx=0 dy=0 dh=-15 dv=0 dx=0 dy=0 dh=0 dv=0
PairPos2: "'kern' Horizontal Kerning lookup 10 per glyph data 5" aring.a dx=0 dy=0 dh=-15 dv=0 dx=0 dy=0 dh=0 dv=0
PairPos2: "'kern' Horizontal Kerning lookup 10 per glyph data 5" abreve.a dx=0 dy=0 dh=-15 dv=0 dx=0 dy=0 dh=0 dv=0
PairPos2: "'kern' Horizontal Kerning lookup 10 per glyph data 5" amacron.a dx=0 dy=0 dh=-15 dv=0 dx=0 dy=0 dh=0 dv=0
PairPos2: "'kern' Horizontal Kerning lookup 10 per glyph data 5" adieresis.a dx=0 dy=0 dh=-15 dv=0 dx=0 dy=0 dh=0 dv=0
PairPos2: "'kern' Horizontal Kerning lookup 10 per glyph data 5" atilde.a dx=0 dy=0 dh=-15 dv=0 dx=0 dy=0 dh=0 dv=0
PairPos2: "'kern' Horizontal Kerning lookup 10 per glyph data 5" acircumflex.a dx=0 dy=0 dh=-15 dv=0 dx=0 dy=0 dh=0 dv=0
PairPos2: "'kern' Horizontal Kerning lookup 10 per glyph data 5" aacute.a dx=0 dy=0 dh=-15 dv=0 dx=0 dy=0 dh=0 dv=0
PairPos2: "'kern' Horizontal Kerning lookup 10 per glyph data 5" agrave.a dx=0 dy=0 dh=-15 dv=0 dx=0 dy=0 dh=0 dv=0
PairPos2: "'kern' Horizontal Kerning lookup 10 per glyph data 5" a.a dx=0 dy=0 dh=-15 dv=0 dx=0 dy=0 dh=0 dv=0
PairPos2: "'kern' Horizontal Kerning lookup 10 per glyph data 5" uni0278 dx=0 dy=0 dh=-15 dv=0 dx=0 dy=0 dh=0 dv=0
PairPos2: "'kern' Horizontal Kerning lookup 10 per glyph data 5" uni0276 dx=0 dy=0 dh=-15 dv=0 dx=0 dy=0 dh=0 dv=0
PairPos2: "'kern' Horizontal Kerning lookup 10 per glyph data 5" uni0275 dx=0 dy=0 dh=-15 dv=0 dx=0 dy=0 dh=0 dv=0
PairPos2: "'kern' Horizontal Kerning lookup 10 per glyph data 5" uni0262 dx=0 dy=0 dh=-15 dv=0 dx=0 dy=0 dh=0 dv=0
PairPos2: "'kern' Horizontal Kerning lookup 10 per glyph data 5" uni0261 dx=0 dy=0 dh=-15 dv=0 dx=0 dy=0 dh=0 dv=0
PairPos2: "'kern' Horizontal Kerning lookup 10 per glyph data 5" uni0260 dx=0 dy=0 dh=-15 dv=0 dx=0 dy=0 dh=0 dv=0
PairPos2: "'kern' Horizontal Kerning lookup 10 per glyph data 5" uni0251 dx=0 dy=0 dh=-15 dv=0 dx=0 dy=0 dh=0 dv=0
PairPos2: "'kern' Horizontal Kerning lookup 10 per glyph data 5" uni0257 dx=0 dy=0 dh=-15 dv=0 dx=0 dy=0 dh=0 dv=0
PairPos2: "'kern' Horizontal Kerning lookup 10 per glyph data 5" uni0256 dx=0 dy=0 dh=-15 dv=0 dx=0 dy=0 dh=0 dv=0
PairPos2: "'kern' Horizontal Kerning lookup 10 per glyph data 5" uni0255 dx=0 dy=0 dh=-15 dv=0 dx=0 dy=0 dh=0 dv=0
PairPos2: "'kern' Horizontal Kerning lookup 10 per glyph data 5" uni01EB dx=0 dy=0 dh=-15 dv=0 dx=0 dy=0 dh=0 dv=0
PairPos2: "'kern' Horizontal Kerning lookup 10 per glyph data 5" uni1EE3 dx=0 dy=0 dh=-15 dv=0 dx=0 dy=0 dh=0 dv=0
PairPos2: "'kern' Horizontal Kerning lookup 10 per glyph data 5" uni1EE1 dx=0 dy=0 dh=-15 dv=0 dx=0 dy=0 dh=0 dv=0
PairPos2: "'kern' Horizontal Kerning lookup 10 per glyph data 5" uni1EDF dx=0 dy=0 dh=-15 dv=0 dx=0 dy=0 dh=0 dv=0
PairPos2: "'kern' Horizontal Kerning lookup 10 per glyph data 5" uni1EDD dx=0 dy=0 dh=-15 dv=0 dx=0 dy=0 dh=0 dv=0
PairPos2: "'kern' Horizontal Kerning lookup 10 per glyph data 5" uni1EDB dx=0 dy=0 dh=-15 dv=0 dx=0 dy=0 dh=0 dv=0
PairPos2: "'kern' Horizontal Kerning lookup 10 per glyph data 5" ohorn dx=0 dy=0 dh=-15 dv=0 dx=0 dy=0 dh=0 dv=0
PairPos2: "'kern' Horizontal Kerning lookup 10 per glyph data 5" oe dx=0 dy=0 dh=-15 dv=0 dx=0 dy=0 dh=0 dv=0
PairPos2: "'kern' Horizontal Kerning lookup 10 per glyph data 5" oslash dx=0 dy=0 dh=-15 dv=0 dx=0 dy=0 dh=0 dv=0
PairPos2: "'kern' Horizontal Kerning lookup 10 per glyph data 5" uni1E53 dx=0 dy=0 dh=-15 dv=0 dx=0 dy=0 dh=0 dv=0
PairPos2: "'kern' Horizontal Kerning lookup 10 per glyph data 5" uni014F dx=0 dy=0 dh=-15 dv=0 dx=0 dy=0 dh=0 dv=0
PairPos2: "'kern' Horizontal Kerning lookup 10 per glyph data 5" uni1ED9 dx=0 dy=0 dh=-15 dv=0 dx=0 dy=0 dh=0 dv=0
PairPos2: "'kern' Horizontal Kerning lookup 10 per glyph data 5" uni1ED7 dx=0 dy=0 dh=-15 dv=0 dx=0 dy=0 dh=0 dv=0
PairPos2: "'kern' Horizontal Kerning lookup 10 per glyph data 5" uni1ED5 dx=0 dy=0 dh=-15 dv=0 dx=0 dy=0 dh=0 dv=0
PairPos2: "'kern' Horizontal Kerning lookup 10 per glyph data 5" uni1ED3 dx=0 dy=0 dh=-15 dv=0 dx=0 dy=0 dh=0 dv=0
PairPos2: "'kern' Horizontal Kerning lookup 10 per glyph data 5" uni1ED1 dx=0 dy=0 dh=-15 dv=0 dx=0 dy=0 dh=0 dv=0
PairPos2: "'kern' Horizontal Kerning lookup 10 per glyph data 5" uni1ECF dx=0 dy=0 dh=-15 dv=0 dx=0 dy=0 dh=0 dv=0
PairPos2: "'kern' Horizontal Kerning lookup 10 per glyph data 5" uni1ECD dx=0 dy=0 dh=-15 dv=0 dx=0 dy=0 dh=0 dv=0
PairPos2: "'kern' Horizontal Kerning lookup 10 per glyph data 5" uni01D2 dx=0 dy=0 dh=-15 dv=0 dx=0 dy=0 dh=0 dv=0
PairPos2: "'kern' Horizontal Kerning lookup 10 per glyph data 5" ohungarumlaut dx=0 dy=0 dh=-15 dv=0 dx=0 dy=0 dh=0 dv=0
PairPos2: "'kern' Horizontal Kerning lookup 10 per glyph data 5" omacron dx=0 dy=0 dh=-15 dv=0 dx=0 dy=0 dh=0 dv=0
PairPos2: "'kern' Horizontal Kerning lookup 10 per glyph data 5" odieresis dx=0 dy=0 dh=-15 dv=0 dx=0 dy=0 dh=0 dv=0
PairPos2: "'kern' Horizontal Kerning lookup 10 per glyph data 5" otilde dx=0 dy=0 dh=-15 dv=0 dx=0 dy=0 dh=0 dv=0
PairPos2: "'kern' Horizontal Kerning lookup 10 per glyph data 5" ocircumflex dx=0 dy=0 dh=-15 dv=0 dx=0 dy=0 dh=0 dv=0
PairPos2: "'kern' Horizontal Kerning lookup 10 per glyph data 5" oacute dx=0 dy=0 dh=-15 dv=0 dx=0 dy=0 dh=0 dv=0
PairPos2: "'kern' Horizontal Kerning lookup 10 per glyph data 5" ograve dx=0 dy=0 dh=-15 dv=0 dx=0 dy=0 dh=0 dv=0
PairPos2: "'kern' Horizontal Kerning lookup 10 per glyph data 5" uni1E17 dx=0 dy=0 dh=-15 dv=0 dx=0 dy=0 dh=0 dv=0
PairPos2: "'kern' Horizontal Kerning lookup 10 per glyph data 5" eogonek dx=0 dy=0 dh=-15 dv=0 dx=0 dy=0 dh=0 dv=0
PairPos2: "'kern' Horizontal Kerning lookup 10 per glyph data 5" uni1EC7 dx=0 dy=0 dh=-15 dv=0 dx=0 dy=0 dh=0 dv=0
PairPos2: "'kern' Horizontal Kerning lookup 10 per glyph data 5" uni1EC5 dx=0 dy=0 dh=-15 dv=0 dx=0 dy=0 dh=0 dv=0
PairPos2: "'kern' Horizontal Kerning lookup 10 per glyph data 5" uni1EC3 dx=0 dy=0 dh=-15 dv=0 dx=0 dy=0 dh=0 dv=0
PairPos2: "'kern' Horizontal Kerning lookup 10 per glyph data 5" uni1EC1 dx=0 dy=0 dh=-15 dv=0 dx=0 dy=0 dh=0 dv=0
PairPos2: "'kern' Horizontal Kerning lookup 10 per glyph data 5" uni1EBF dx=0 dy=0 dh=-15 dv=0 dx=0 dy=0 dh=0 dv=0
PairPos2: "'kern' Horizontal Kerning lookup 10 per glyph data 5" uni1EBD dx=0 dy=0 dh=-15 dv=0 dx=0 dy=0 dh=0 dv=0
PairPos2: "'kern' Horizontal Kerning lookup 10 per glyph data 5" uni1EBB dx=0 dy=0 dh=-15 dv=0 dx=0 dy=0 dh=0 dv=0
PairPos2: "'kern' Horizontal Kerning lookup 10 per glyph data 5" uni1EB9 dx=0 dy=0 dh=-15 dv=0 dx=0 dy=0 dh=0 dv=0
PairPos2: "'kern' Horizontal Kerning lookup 10 per glyph data 5" edotaccent dx=0 dy=0 dh=-15 dv=0 dx=0 dy=0 dh=0 dv=0
PairPos2: "'kern' Horizontal Kerning lookup 10 per glyph data 5" ebreve dx=0 dy=0 dh=-15 dv=0 dx=0 dy=0 dh=0 dv=0
PairPos2: "'kern' Horizontal Kerning lookup 10 per glyph data 5" emacron dx=0 dy=0 dh=-15 dv=0 dx=0 dy=0 dh=0 dv=0
PairPos2: "'kern' Horizontal Kerning lookup 10 per glyph data 5" edieresis dx=0 dy=0 dh=-15 dv=0 dx=0 dy=0 dh=0 dv=0
PairPos2: "'kern' Horizontal Kerning lookup 10 per glyph data 5" ecaron dx=0 dy=0 dh=-15 dv=0 dx=0 dy=0 dh=0 dv=0
PairPos2: "'kern' Horizontal Kerning lookup 10 per glyph data 5" ecircumflex dx=0 dy=0 dh=-15 dv=0 dx=0 dy=0 dh=0 dv=0
PairPos2: "'kern' Horizontal Kerning lookup 10 per glyph data 5" eacute dx=0 dy=0 dh=-15 dv=0 dx=0 dy=0 dh=0 dv=0
PairPos2: "'kern' Horizontal Kerning lookup 10 per glyph data 5" egrave dx=0 dy=0 dh=-15 dv=0 dx=0 dy=0 dh=0 dv=0
PairPos2: "'kern' Horizontal Kerning lookup 10 per glyph data 5" dcroat dx=0 dy=0 dh=-15 dv=0 dx=0 dy=0 dh=0 dv=0
PairPos2: "'kern' Horizontal Kerning lookup 10 per glyph data 5" uni1E0F dx=0 dy=0 dh=-15 dv=0 dx=0 dy=0 dh=0 dv=0
PairPos2: "'kern' Horizontal Kerning lookup 10 per glyph data 5" uni1E0D dx=0 dy=0 dh=-15 dv=0 dx=0 dy=0 dh=0 dv=0
PairPos2: "'kern' Horizontal Kerning lookup 10 per glyph data 5" dcaron dx=0 dy=0 dh=-15 dv=0 dx=0 dy=0 dh=0 dv=0
PairPos2: "'kern' Horizontal Kerning lookup 10 per glyph data 5" cdotaccent dx=0 dy=0 dh=-15 dv=0 dx=0 dy=0 dh=0 dv=0
PairPos2: "'kern' Horizontal Kerning lookup 10 per glyph data 5" ccaron dx=0 dy=0 dh=-15 dv=0 dx=0 dy=0 dh=0 dv=0
PairPos2: "'kern' Horizontal Kerning lookup 10 per glyph data 5" ccircumflex dx=0 dy=0 dh=-15 dv=0 dx=0 dy=0 dh=0 dv=0
PairPos2: "'kern' Horizontal Kerning lookup 10 per glyph data 5" cacute dx=0 dy=0 dh=-15 dv=0 dx=0 dy=0 dh=0 dv=0
PairPos2: "'kern' Horizontal Kerning lookup 10 per glyph data 5" ccedilla dx=0 dy=0 dh=-15 dv=0 dx=0 dy=0 dh=0 dv=0
PairPos2: "'kern' Horizontal Kerning lookup 10 per glyph data 5" q dx=0 dy=0 dh=-15 dv=0 dx=0 dy=0 dh=0 dv=0
PairPos2: "'kern' Horizontal Kerning lookup 10 per glyph data 5" o dx=0 dy=0 dh=-15 dv=0 dx=0 dy=0 dh=0 dv=0
PairPos2: "'kern' Horizontal Kerning lookup 10 per glyph data 5" e dx=0 dy=0 dh=-15 dv=0 dx=0 dy=0 dh=0 dv=0
PairPos2: "'kern' Horizontal Kerning lookup 10 per glyph data 5" d dx=0 dy=0 dh=-15 dv=0 dx=0 dy=0 dh=0 dv=0
PairPos2: "'kern' Horizontal Kerning lookup 10 per glyph data 5" c dx=0 dy=0 dh=-15 dv=0 dx=0 dy=0 dh=0 dv=0
PairPos2: "'kern' Horizontal Kerning lookup 10 per glyph data 5" uni00670303 dx=0 dy=0 dh=-25 dv=0 dx=0 dy=0 dh=0 dv=0
PairPos2: "'kern' Horizontal Kerning lookup 10 per glyph data 5" uni1E21 dx=0 dy=0 dh=-25 dv=0 dx=0 dy=0 dh=0 dv=0
PairPos2: "'kern' Horizontal Kerning lookup 10 per glyph data 5" gcaron dx=0 dy=0 dh=-25 dv=0 dx=0 dy=0 dh=0 dv=0
PairPos2: "'kern' Horizontal Kerning lookup 10 per glyph data 5" uni0123 dx=0 dy=0 dh=-25 dv=0 dx=0 dy=0 dh=0 dv=0
PairPos2: "'kern' Horizontal Kerning lookup 10 per glyph data 5" gdotaccent dx=0 dy=0 dh=-25 dv=0 dx=0 dy=0 dh=0 dv=0
PairPos2: "'kern' Horizontal Kerning lookup 10 per glyph data 5" gbreve dx=0 dy=0 dh=-25 dv=0 dx=0 dy=0 dh=0 dv=0
PairPos2: "'kern' Horizontal Kerning lookup 10 per glyph data 5" gcircumflex dx=0 dy=0 dh=-25 dv=0 dx=0 dy=0 dh=0 dv=0
PairPos2: "'kern' Horizontal Kerning lookup 10 per glyph data 5" uni01F5 dx=0 dy=0 dh=-25 dv=0 dx=0 dy=0 dh=0 dv=0
PairPos2: "'kern' Horizontal Kerning lookup 10 per glyph data 5" g dx=0 dy=0 dh=-25 dv=0 dx=0 dy=0 dh=0 dv=0
PairPos2: "'kern' Horizontal Kerning lookup 10 per glyph data 5" X dx=0 dy=0 dh=-25 dv=0 dx=0 dy=0 dh=0 dv=0
PairPos2: "'kern' Horizontal Kerning lookup 10 per glyph data 5" uni1E62 dx=0 dy=0 dh=-22 dv=0 dx=0 dy=0 dh=0 dv=0
PairPos2: "'kern' Horizontal Kerning lookup 10 per glyph data 5" uni1E60 dx=0 dy=0 dh=-22 dv=0 dx=0 dy=0 dh=0 dv=0
PairPos2: "'kern' Horizontal Kerning lookup 10 per glyph data 5" uni0218 dx=0 dy=0 dh=-22 dv=0 dx=0 dy=0 dh=0 dv=0
PairPos2: "'kern' Horizontal Kerning lookup 10 per glyph data 5" uni015E dx=0 dy=0 dh=-22 dv=0 dx=0 dy=0 dh=0 dv=0
PairPos2: "'kern' Horizontal Kerning lookup 10 per glyph data 5" Scaron dx=0 dy=0 dh=-22 dv=0 dx=0 dy=0 dh=0 dv=0
PairPos2: "'kern' Horizontal Kerning lookup 10 per glyph data 5" Scircumflex dx=0 dy=0 dh=-22 dv=0 dx=0 dy=0 dh=0 dv=0
PairPos2: "'kern' Horizontal Kerning lookup 10 per glyph data 5" Sacute dx=0 dy=0 dh=-22 dv=0 dx=0 dy=0 dh=0 dv=0
PairPos2: "'kern' Horizontal Kerning lookup 10 per glyph data 5" S dx=0 dy=0 dh=-22 dv=0 dx=0 dy=0 dh=0 dv=0
PairPos2: "'kern' Horizontal Kerning lookup 10 per glyph data 5" Jcircumflex dx=0 dy=0 dh=-137 dv=0 dx=0 dy=0 dh=0 dv=0
PairPos2: "'kern' Horizontal Kerning lookup 10 per glyph data 5" J dx=0 dy=0 dh=-137 dv=0 dx=0 dy=0 dh=0 dv=0
PairPos2: "'kern' Horizontal Kerning lookup 10 per glyph data 5" trademark dx=0 dy=0 dh=29 dv=0 dx=0 dy=0 dh=0 dv=0
PairPos2: "'kern' Horizontal Kerning lookup 10 per glyph data 5" registered dx=0 dy=0 dh=15 dv=0 dx=0 dy=0 dh=0 dv=0
PairPos2: "'kern' Horizontal Kerning lookup 10 per glyph data 5" uni1E94 dx=0 dy=0 dh=-30 dv=0 dx=0 dy=0 dh=0 dv=0
PairPos2: "'kern' Horizontal Kerning lookup 10 per glyph data 5" uni1E92 dx=0 dy=0 dh=-30 dv=0 dx=0 dy=0 dh=0 dv=0
PairPos2: "'kern' Horizontal Kerning lookup 10 per glyph data 5" Zdotaccent dx=0 dy=0 dh=-30 dv=0 dx=0 dy=0 dh=0 dv=0
PairPos2: "'kern' Horizontal Kerning lookup 10 per glyph data 5" Zcaron dx=0 dy=0 dh=-30 dv=0 dx=0 dy=0 dh=0 dv=0
PairPos2: "'kern' Horizontal Kerning lookup 10 per glyph data 5" Zacute dx=0 dy=0 dh=-30 dv=0 dx=0 dy=0 dh=0 dv=0
PairPos2: "'kern' Horizontal Kerning lookup 10 per glyph data 5" Z dx=0 dy=0 dh=-30 dv=0 dx=0 dy=0 dh=0 dv=0
PairPos2: "'kern' Horizontal Kerning lookup 10 per glyph data 5" uni1E94.sc dx=0 dy=0 dh=-15 dv=0 dx=0 dy=0 dh=0 dv=0
PairPos2: "'kern' Horizontal Kerning lookup 10 per glyph data 5" uni1E92.sc dx=0 dy=0 dh=-15 dv=0 dx=0 dy=0 dh=0 dv=0
PairPos2: "'kern' Horizontal Kerning lookup 10 per glyph data 5" Zdotaccent.sc dx=0 dy=0 dh=-15 dv=0 dx=0 dy=0 dh=0 dv=0
PairPos2: "'kern' Horizontal Kerning lookup 10 per glyph data 5" Zcaron.sc dx=0 dy=0 dh=-15 dv=0 dx=0 dy=0 dh=0 dv=0
PairPos2: "'kern' Horizontal Kerning lookup 10 per glyph data 5" Zacute.sc dx=0 dy=0 dh=-15 dv=0 dx=0 dy=0 dh=0 dv=0
PairPos2: "'kern' Horizontal Kerning lookup 10 per glyph data 5" Z.sc dx=0 dy=0 dh=-15 dv=0 dx=0 dy=0 dh=0 dv=0
PairPos2: "'kern' Horizontal Kerning lookup 10 per glyph data 5" uni0263 dx=0 dy=0 dh=-19 dv=0 dx=0 dy=0 dh=0 dv=0
PairPos2: "'kern' Horizontal Kerning lookup 10 per glyph data 5" uni1EF9 dx=0 dy=0 dh=-19 dv=0 dx=0 dy=0 dh=0 dv=0
PairPos2: "'kern' Horizontal Kerning lookup 10 per glyph data 5" uni1EF7 dx=0 dy=0 dh=-19 dv=0 dx=0 dy=0 dh=0 dv=0
PairPos2: "'kern' Horizontal Kerning lookup 10 per glyph data 5" uni1EF5 dx=0 dy=0 dh=-19 dv=0 dx=0 dy=0 dh=0 dv=0
PairPos2: "'kern' Horizontal Kerning lookup 10 per glyph data 5" uni1E8F dx=0 dy=0 dh=-19 dv=0 dx=0 dy=0 dh=0 dv=0
PairPos2: "'kern' Horizontal Kerning lookup 10 per glyph data 5" ydieresis dx=0 dy=0 dh=-19 dv=0 dx=0 dy=0 dh=0 dv=0
PairPos2: "'kern' Horizontal Kerning lookup 10 per glyph data 5" ycircumflex dx=0 dy=0 dh=-19 dv=0 dx=0 dy=0 dh=0 dv=0
PairPos2: "'kern' Horizontal Kerning lookup 10 per glyph data 5" yacute dx=0 dy=0 dh=-19 dv=0 dx=0 dy=0 dh=0 dv=0
PairPos2: "'kern' Horizontal Kerning lookup 10 per glyph data 5" ygrave dx=0 dy=0 dh=-19 dv=0 dx=0 dy=0 dh=0 dv=0
PairPos2: "'kern' Horizontal Kerning lookup 10 per glyph data 5" y dx=0 dy=0 dh=-19 dv=0 dx=0 dy=0 dh=0 dv=0
PairPos2: "'kern' Horizontal Kerning lookup 10 per glyph data 5" x dx=0 dy=0 dh=-29 dv=0 dx=0 dy=0 dh=0 dv=0
PairPos2: "'kern' Horizontal Kerning lookup 10 per glyph data 5" wdieresis dx=0 dy=0 dh=-19 dv=0 dx=0 dy=0 dh=0 dv=0
PairPos2: "'kern' Horizontal Kerning lookup 10 per glyph data 5" wcircumflex dx=0 dy=0 dh=-19 dv=0 dx=0 dy=0 dh=0 dv=0
PairPos2: "'kern' Horizontal Kerning lookup 10 per glyph data 5" wacute dx=0 dy=0 dh=-19 dv=0 dx=0 dy=0 dh=0 dv=0
PairPos2: "'kern' Horizontal Kerning lookup 10 per glyph data 5" wgrave dx=0 dy=0 dh=-19 dv=0 dx=0 dy=0 dh=0 dv=0
PairPos2: "'kern' Horizontal Kerning lookup 10 per glyph data 5" w dx=0 dy=0 dh=-19 dv=0 dx=0 dy=0 dh=0 dv=0
PairPos2: "'kern' Horizontal Kerning lookup 10 per glyph data 5" v dx=0 dy=0 dh=-25 dv=0 dx=0 dy=0 dh=0 dv=0
PairPos2: "'kern' Horizontal Kerning lookup 10 per glyph data 5" uni028B dx=0 dy=0 dh=-17 dv=0 dx=0 dy=0 dh=0 dv=0
PairPos2: "'kern' Horizontal Kerning lookup 10 per glyph data 5" uni0270 dx=0 dy=0 dh=-17 dv=0 dx=0 dy=0 dh=0 dv=0
PairPos2: "'kern' Horizontal Kerning lookup 10 per glyph data 5" uni026F dx=0 dy=0 dh=-17 dv=0 dx=0 dy=0 dh=0 dv=0
PairPos2: "'kern' Horizontal Kerning lookup 10 per glyph data 5" uni0265 dx=0 dy=0 dh=-17 dv=0 dx=0 dy=0 dh=0 dv=0
PairPos2: "'kern' Horizontal Kerning lookup 10 per glyph data 5" uni0250 dx=0 dy=0 dh=-17 dv=0 dx=0 dy=0 dh=0 dv=0
PairPos2: "'kern' Horizontal Kerning lookup 10 per glyph data 5" uni1EF1 dx=0 dy=0 dh=-17 dv=0 dx=0 dy=0 dh=0 dv=0
PairPos2: "'kern' Horizontal Kerning lookup 10 per glyph data 5" uni1EEF dx=0 dy=0 dh=-17 dv=0 dx=0 dy=0 dh=0 dv=0
PairPos2: "'kern' Horizontal Kerning lookup 10 per glyph data 5" uni1EED dx=0 dy=0 dh=-17 dv=0 dx=0 dy=0 dh=0 dv=0
PairPos2: "'kern' Horizontal Kerning lookup 10 per glyph data 5" uni1EEB dx=0 dy=0 dh=-17 dv=0 dx=0 dy=0 dh=0 dv=0
PairPos2: "'kern' Horizontal Kerning lookup 10 per glyph data 5" uni1EE9 dx=0 dy=0 dh=-17 dv=0 dx=0 dy=0 dh=0 dv=0
PairPos2: "'kern' Horizontal Kerning lookup 10 per glyph data 5" uhorn dx=0 dy=0 dh=-17 dv=0 dx=0 dy=0 dh=0 dv=0
PairPos2: "'kern' Horizontal Kerning lookup 10 per glyph data 5" uogonek dx=0 dy=0 dh=-17 dv=0 dx=0 dy=0 dh=0 dv=0
PairPos2: "'kern' Horizontal Kerning lookup 10 per glyph data 5" uni1EE7 dx=0 dy=0 dh=-17 dv=0 dx=0 dy=0 dh=0 dv=0
PairPos2: "'kern' Horizontal Kerning lookup 10 per glyph data 5" uni1EE5 dx=0 dy=0 dh=-17 dv=0 dx=0 dy=0 dh=0 dv=0
PairPos2: "'kern' Horizontal Kerning lookup 10 per glyph data 5" uni01DC dx=0 dy=0 dh=-17 dv=0 dx=0 dy=0 dh=0 dv=0
PairPos2: "'kern' Horizontal Kerning lookup 10 per glyph data 5" uni01DA dx=0 dy=0 dh=-17 dv=0 dx=0 dy=0 dh=0 dv=0
PairPos2: "'kern' Horizontal Kerning lookup 10 per glyph data 5" uni01D8 dx=0 dy=0 dh=-17 dv=0 dx=0 dy=0 dh=0 dv=0
PairPos2: "'kern' Horizontal Kerning lookup 10 per glyph data 5" uni01D6 dx=0 dy=0 dh=-17 dv=0 dx=0 dy=0 dh=0 dv=0
PairPos2: "'kern' Horizontal Kerning lookup 10 per glyph data 5" uni01D4 dx=0 dy=0 dh=-17 dv=0 dx=0 dy=0 dh=0 dv=0
PairPos2: "'kern' Horizontal Kerning lookup 10 per glyph data 5" uhungarumlaut dx=0 dy=0 dh=-17 dv=0 dx=0 dy=0 dh=0 dv=0
PairPos2: "'kern' Horizontal Kerning lookup 10 per glyph data 5" uring dx=0 dy=0 dh=-17 dv=0 dx=0 dy=0 dh=0 dv=0
PairPos2: "'kern' Horizontal Kerning lookup 10 per glyph data 5" ubreve dx=0 dy=0 dh=-17 dv=0 dx=0 dy=0 dh=0 dv=0
PairPos2: "'kern' Horizontal Kerning lookup 10 per glyph data 5" umacron dx=0 dy=0 dh=-17 dv=0 dx=0 dy=0 dh=0 dv=0
PairPos2: "'kern' Horizontal Kerning lookup 10 per glyph data 5" udieresis dx=0 dy=0 dh=-17 dv=0 dx=0 dy=0 dh=0 dv=0
PairPos2: "'kern' Horizontal Kerning lookup 10 per glyph data 5" utilde dx=0 dy=0 dh=-17 dv=0 dx=0 dy=0 dh=0 dv=0
PairPos2: "'kern' Horizontal Kerning lookup 10 per glyph data 5" ucircumflex dx=0 dy=0 dh=-17 dv=0 dx=0 dy=0 dh=0 dv=0
PairPos2: "'kern' Horizontal Kerning lookup 10 per glyph data 5" uacute dx=0 dy=0 dh=-17 dv=0 dx=0 dy=0 dh=0 dv=0
PairPos2: "'kern' Horizontal Kerning lookup 10 per glyph data 5" ugrave dx=0 dy=0 dh=-17 dv=0 dx=0 dy=0 dh=0 dv=0
PairPos2: "'kern' Horizontal Kerning lookup 10 per glyph data 5" u dx=0 dy=0 dh=-17 dv=0 dx=0 dy=0 dh=0 dv=0
PairPos2: "'kern' Horizontal Kerning lookup 10 per glyph data 5" uni0282 dx=0 dy=0 dh=-22 dv=0 dx=0 dy=0 dh=0 dv=0
PairPos2: "'kern' Horizontal Kerning lookup 10 per glyph data 5" uni1E63 dx=0 dy=0 dh=-22 dv=0 dx=0 dy=0 dh=0 dv=0
PairPos2: "'kern' Horizontal Kerning lookup 10 per glyph data 5" uni1E61 dx=0 dy=0 dh=-22 dv=0 dx=0 dy=0 dh=0 dv=0
PairPos2: "'kern' Horizontal Kerning lookup 10 per glyph data 5" uni0219 dx=0 dy=0 dh=-22 dv=0 dx=0 dy=0 dh=0 dv=0
PairPos2: "'kern' Horizontal Kerning lookup 10 per glyph data 5" uni015F dx=0 dy=0 dh=-22 dv=0 dx=0 dy=0 dh=0 dv=0
PairPos2: "'kern' Horizontal Kerning lookup 10 per glyph data 5" scaron dx=0 dy=0 dh=-22 dv=0 dx=0 dy=0 dh=0 dv=0
PairPos2: "'kern' Horizontal Kerning lookup 10 per glyph data 5" scircumflex dx=0 dy=0 dh=-22 dv=0 dx=0 dy=0 dh=0 dv=0
PairPos2: "'kern' Horizontal Kerning lookup 10 per glyph data 5" sacute dx=0 dy=0 dh=-22 dv=0 dx=0 dy=0 dh=0 dv=0
PairPos2: "'kern' Horizontal Kerning lookup 10 per glyph data 5" s dx=0 dy=0 dh=-22 dv=0 dx=0 dy=0 dh=0 dv=0
PairPos2: "'kern' Horizontal Kerning lookup 10 per glyph data 5" uni01EA dx=0 dy=0 dh=-10 dv=0 dx=0 dy=0 dh=0 dv=0
PairPos2: "'kern' Horizontal Kerning lookup 10 per glyph data 5" uni1EE2 dx=0 dy=0 dh=-10 dv=0 dx=0 dy=0 dh=0 dv=0
PairPos2: "'kern' Horizontal Kerning lookup 10 per glyph data 5" uni1EE0 dx=0 dy=0 dh=-10 dv=0 dx=0 dy=0 dh=0 dv=0
PairPos2: "'kern' Horizontal Kerning lookup 10 per glyph data 5" uni1EDE dx=0 dy=0 dh=-10 dv=0 dx=0 dy=0 dh=0 dv=0
PairPos2: "'kern' Horizontal Kerning lookup 10 per glyph data 5" uni1EDC dx=0 dy=0 dh=-10 dv=0 dx=0 dy=0 dh=0 dv=0
PairPos2: "'kern' Horizontal Kerning lookup 10 per glyph data 5" uni1EDA dx=0 dy=0 dh=-10 dv=0 dx=0 dy=0 dh=0 dv=0
PairPos2: "'kern' Horizontal Kerning lookup 10 per glyph data 5" Ohorn dx=0 dy=0 dh=-10 dv=0 dx=0 dy=0 dh=0 dv=0
PairPos2: "'kern' Horizontal Kerning lookup 10 per glyph data 5" OE dx=0 dy=0 dh=-10 dv=0 dx=0 dy=0 dh=0 dv=0
PairPos2: "'kern' Horizontal Kerning lookup 10 per glyph data 5" Oslash dx=0 dy=0 dh=-10 dv=0 dx=0 dy=0 dh=0 dv=0
PairPos2: "'kern' Horizontal Kerning lookup 10 per glyph data 5" uni1E52 dx=0 dy=0 dh=-10 dv=0 dx=0 dy=0 dh=0 dv=0
PairPos2: "'kern' Horizontal Kerning lookup 10 per glyph data 5" uni014E dx=0 dy=0 dh=-10 dv=0 dx=0 dy=0 dh=0 dv=0
PairPos2: "'kern' Horizontal Kerning lookup 10 per glyph data 5" uni1ED8 dx=0 dy=0 dh=-10 dv=0 dx=0 dy=0 dh=0 dv=0
PairPos2: "'kern' Horizontal Kerning lookup 10 per glyph data 5" uni1ED6 dx=0 dy=0 dh=-10 dv=0 dx=0 dy=0 dh=0 dv=0
PairPos2: "'kern' Horizontal Kerning lookup 10 per glyph data 5" uni1ED4 dx=0 dy=0 dh=-10 dv=0 dx=0 dy=0 dh=0 dv=0
PairPos2: "'kern' Horizontal Kerning lookup 10 per glyph data 5" uni1ED2 dx=0 dy=0 dh=-10 dv=0 dx=0 dy=0 dh=0 dv=0
PairPos2: "'kern' Horizontal Kerning lookup 10 per glyph data 5" uni1ED0 dx=0 dy=0 dh=-10 dv=0 dx=0 dy=0 dh=0 dv=0
PairPos2: "'kern' Horizontal Kerning lookup 10 per glyph data 5" uni1ECE dx=0 dy=0 dh=-10 dv=0 dx=0 dy=0 dh=0 dv=0
PairPos2: "'kern' Horizontal Kerning lookup 10 per glyph data 5" uni1ECC dx=0 dy=0 dh=-10 dv=0 dx=0 dy=0 dh=0 dv=0
PairPos2: "'kern' Horizontal Kerning lookup 10 per glyph data 5" uni01D1 dx=0 dy=0 dh=-10 dv=0 dx=0 dy=0 dh=0 dv=0
PairPos2: "'kern' Horizontal Kerning lookup 10 per glyph data 5" Ohungarumlaut dx=0 dy=0 dh=-10 dv=0 dx=0 dy=0 dh=0 dv=0
PairPos2: "'kern' Horizontal Kerning lookup 10 per glyph data 5" Omacron dx=0 dy=0 dh=-10 dv=0 dx=0 dy=0 dh=0 dv=0
PairPos2: "'kern' Horizontal Kerning lookup 10 per glyph data 5" Odieresis dx=0 dy=0 dh=-10 dv=0 dx=0 dy=0 dh=0 dv=0
PairPos2: "'kern' Horizontal Kerning lookup 10 per glyph data 5" Otilde dx=0 dy=0 dh=-10 dv=0 dx=0 dy=0 dh=0 dv=0
PairPos2: "'kern' Horizontal Kerning lookup 10 per glyph data 5" Ocircumflex dx=0 dy=0 dh=-10 dv=0 dx=0 dy=0 dh=0 dv=0
PairPos2: "'kern' Horizontal Kerning lookup 10 per glyph data 5" Oacute dx=0 dy=0 dh=-10 dv=0 dx=0 dy=0 dh=0 dv=0
PairPos2: "'kern' Horizontal Kerning lookup 10 per glyph data 5" Ograve dx=0 dy=0 dh=-10 dv=0 dx=0 dy=0 dh=0 dv=0
PairPos2: "'kern' Horizontal Kerning lookup 10 per glyph data 5" uni0193 dx=0 dy=0 dh=-10 dv=0 dx=0 dy=0 dh=0 dv=0
PairPos2: "'kern' Horizontal Kerning lookup 10 per glyph data 5" uni00470303 dx=0 dy=0 dh=-10 dv=0 dx=0 dy=0 dh=0 dv=0
PairPos2: "'kern' Horizontal Kerning lookup 10 per glyph data 5" uni1E20 dx=0 dy=0 dh=-10 dv=0 dx=0 dy=0 dh=0 dv=0
PairPos2: "'kern' Horizontal Kerning lookup 10 per glyph data 5" Gcaron dx=0 dy=0 dh=-10 dv=0 dx=0 dy=0 dh=0 dv=0
PairPos2: "'kern' Horizontal Kerning lookup 10 per glyph data 5" uni0122 dx=0 dy=0 dh=-10 dv=0 dx=0 dy=0 dh=0 dv=0
PairPos2: "'kern' Horizontal Kerning lookup 10 per glyph data 5" Gdotaccent dx=0 dy=0 dh=-10 dv=0 dx=0 dy=0 dh=0 dv=0
PairPos2: "'kern' Horizontal Kerning lookup 10 per glyph data 5" Gbreve dx=0 dy=0 dh=-10 dv=0 dx=0 dy=0 dh=0 dv=0
PairPos2: "'kern' Horizontal Kerning lookup 10 per glyph data 5" Gcircumflex dx=0 dy=0 dh=-10 dv=0 dx=0 dy=0 dh=0 dv=0
PairPos2: "'kern' Horizontal Kerning lookup 10 per glyph data 5" uni01F4 dx=0 dy=0 dh=-10 dv=0 dx=0 dy=0 dh=0 dv=0
PairPos2: "'kern' Horizontal Kerning lookup 10 per glyph data 5" Cdotaccent dx=0 dy=0 dh=-10 dv=0 dx=0 dy=0 dh=0 dv=0
PairPos2: "'kern' Horizontal Kerning lookup 10 per glyph data 5" Ccaron dx=0 dy=0 dh=-10 dv=0 dx=0 dy=0 dh=0 dv=0
PairPos2: "'kern' Horizontal Kerning lookup 10 per glyph data 5" Ccircumflex dx=0 dy=0 dh=-10 dv=0 dx=0 dy=0 dh=0 dv=0
PairPos2: "'kern' Horizontal Kerning lookup 10 per glyph data 5" Cacute dx=0 dy=0 dh=-10 dv=0 dx=0 dy=0 dh=0 dv=0
PairPos2: "'kern' Horizontal Kerning lookup 10 per glyph data 5" Ccedilla dx=0 dy=0 dh=-10 dv=0 dx=0 dy=0 dh=0 dv=0
PairPos2: "'kern' Horizontal Kerning lookup 10 per glyph data 5" Q dx=0 dy=0 dh=-10 dv=0 dx=0 dy=0 dh=0 dv=0
PairPos2: "'kern' Horizontal Kerning lookup 10 per glyph data 5" O dx=0 dy=0 dh=-10 dv=0 dx=0 dy=0 dh=0 dv=0
PairPos2: "'kern' Horizontal Kerning lookup 10 per glyph data 5" G dx=0 dy=0 dh=-10 dv=0 dx=0 dy=0 dh=0 dv=0
PairPos2: "'kern' Horizontal Kerning lookup 10 per glyph data 5" C dx=0 dy=0 dh=-10 dv=0 dx=0 dy=0 dh=0 dv=0
PairPos2: "'kern' Horizontal Kerning lookup 10 per glyph data 5" Aogonek dx=0 dy=0 dh=-38 dv=0 dx=0 dy=0 dh=0 dv=0
PairPos2: "'kern' Horizontal Kerning lookup 10 per glyph data 5" uni1EB6 dx=0 dy=0 dh=-38 dv=0 dx=0 dy=0 dh=0 dv=0
PairPos2: "'kern' Horizontal Kerning lookup 10 per glyph data 5" uni1EB4 dx=0 dy=0 dh=-38 dv=0 dx=0 dy=0 dh=0 dv=0
PairPos2: "'kern' Horizontal Kerning lookup 10 per glyph data 5" uni1EB2 dx=0 dy=0 dh=-38 dv=0 dx=0 dy=0 dh=0 dv=0
PairPos2: "'kern' Horizontal Kerning lookup 10 per glyph data 5" uni1EB0 dx=0 dy=0 dh=-38 dv=0 dx=0 dy=0 dh=0 dv=0
PairPos2: "'kern' Horizontal Kerning lookup 10 per glyph data 5" uni1EAE dx=0 dy=0 dh=-38 dv=0 dx=0 dy=0 dh=0 dv=0
PairPos2: "'kern' Horizontal Kerning lookup 10 per glyph data 5" uni1EAC dx=0 dy=0 dh=-38 dv=0 dx=0 dy=0 dh=0 dv=0
PairPos2: "'kern' Horizontal Kerning lookup 10 per glyph data 5" uni1EAA dx=0 dy=0 dh=-38 dv=0 dx=0 dy=0 dh=0 dv=0
PairPos2: "'kern' Horizontal Kerning lookup 10 per glyph data 5" uni1EA8 dx=0 dy=0 dh=-38 dv=0 dx=0 dy=0 dh=0 dv=0
PairPos2: "'kern' Horizontal Kerning lookup 10 per glyph data 5" uni1EA6 dx=0 dy=0 dh=-38 dv=0 dx=0 dy=0 dh=0 dv=0
PairPos2: "'kern' Horizontal Kerning lookup 10 per glyph data 5" uni1EA4 dx=0 dy=0 dh=-38 dv=0 dx=0 dy=0 dh=0 dv=0
PairPos2: "'kern' Horizontal Kerning lookup 10 per glyph data 5" uni1EA2 dx=0 dy=0 dh=-38 dv=0 dx=0 dy=0 dh=0 dv=0
PairPos2: "'kern' Horizontal Kerning lookup 10 per glyph data 5" uni1EA0 dx=0 dy=0 dh=-38 dv=0 dx=0 dy=0 dh=0 dv=0
PairPos2: "'kern' Horizontal Kerning lookup 10 per glyph data 5" uni01CD dx=0 dy=0 dh=-38 dv=0 dx=0 dy=0 dh=0 dv=0
PairPos2: "'kern' Horizontal Kerning lookup 10 per glyph data 5" Aring dx=0 dy=0 dh=-38 dv=0 dx=0 dy=0 dh=0 dv=0
PairPos2: "'kern' Horizontal Kerning lookup 10 per glyph data 5" Abreve dx=0 dy=0 dh=-38 dv=0 dx=0 dy=0 dh=0 dv=0
PairPos2: "'kern' Horizontal Kerning lookup 10 per glyph data 5" Amacron dx=0 dy=0 dh=-38 dv=0 dx=0 dy=0 dh=0 dv=0
PairPos2: "'kern' Horizontal Kerning lookup 10 per glyph data 5" Adieresis dx=0 dy=0 dh=-38 dv=0 dx=0 dy=0 dh=0 dv=0
PairPos2: "'kern' Horizontal Kerning lookup 10 per glyph data 5" Atilde dx=0 dy=0 dh=-38 dv=0 dx=0 dy=0 dh=0 dv=0
PairPos2: "'kern' Horizontal Kerning lookup 10 per glyph data 5" Acircumflex dx=0 dy=0 dh=-38 dv=0 dx=0 dy=0 dh=0 dv=0
PairPos2: "'kern' Horizontal Kerning lookup 10 per glyph data 5" Aacute dx=0 dy=0 dh=-38 dv=0 dx=0 dy=0 dh=0 dv=0
PairPos2: "'kern' Horizontal Kerning lookup 10 per glyph data 5" Agrave dx=0 dy=0 dh=-38 dv=0 dx=0 dy=0 dh=0 dv=0
PairPos2: "'kern' Horizontal Kerning lookup 10 per glyph data 5" A dx=0 dy=0 dh=-38 dv=0 dx=0 dy=0 dh=0 dv=0
PairPos2: "'kern' Horizontal Kerning lookup 10 per glyph data 5" uni01E3 dx=0 dy=0 dh=-35 dv=0 dx=0 dy=0 dh=0 dv=0
PairPos2: "'kern' Horizontal Kerning lookup 10 per glyph data 5" uni01FD dx=0 dy=0 dh=-35 dv=0 dx=0 dy=0 dh=0 dv=0
PairPos2: "'kern' Horizontal Kerning lookup 10 per glyph data 5" ae dx=0 dy=0 dh=-35 dv=0 dx=0 dy=0 dh=0 dv=0
PairPos2: "'kern' Horizontal Kerning lookup 10 per glyph data 5" aogonek dx=0 dy=0 dh=-35 dv=0 dx=0 dy=0 dh=0 dv=0
PairPos2: "'kern' Horizontal Kerning lookup 10 per glyph data 5" uni1EB7 dx=0 dy=0 dh=-35 dv=0 dx=0 dy=0 dh=0 dv=0
PairPos2: "'kern' Horizontal Kerning lookup 10 per glyph data 5" uni1EB5 dx=0 dy=0 dh=-35 dv=0 dx=0 dy=0 dh=0 dv=0
PairPos2: "'kern' Horizontal Kerning lookup 10 per glyph data 5" uni1EB3 dx=0 dy=0 dh=-35 dv=0 dx=0 dy=0 dh=0 dv=0
PairPos2: "'kern' Horizontal Kerning lookup 10 per glyph data 5" uni1EB1 dx=0 dy=0 dh=-35 dv=0 dx=0 dy=0 dh=0 dv=0
PairPos2: "'kern' Horizontal Kerning lookup 10 per glyph data 5" uni1EAF dx=0 dy=0 dh=-35 dv=0 dx=0 dy=0 dh=0 dv=0
PairPos2: "'kern' Horizontal Kerning lookup 10 per glyph data 5" uni1EAD dx=0 dy=0 dh=-35 dv=0 dx=0 dy=0 dh=0 dv=0
PairPos2: "'kern' Horizontal Kerning lookup 10 per glyph data 5" uni1EAB dx=0 dy=0 dh=-35 dv=0 dx=0 dy=0 dh=0 dv=0
PairPos2: "'kern' Horizontal Kerning lookup 10 per glyph data 5" uni1EA9 dx=0 dy=0 dh=-35 dv=0 dx=0 dy=0 dh=0 dv=0
PairPos2: "'kern' Horizontal Kerning lookup 10 per glyph data 5" uni1EA7 dx=0 dy=0 dh=-35 dv=0 dx=0 dy=0 dh=0 dv=0
PairPos2: "'kern' Horizontal Kerning lookup 10 per glyph data 5" uni1EA5 dx=0 dy=0 dh=-35 dv=0 dx=0 dy=0 dh=0 dv=0
PairPos2: "'kern' Horizontal Kerning lookup 10 per glyph data 5" uni1EA3 dx=0 dy=0 dh=-35 dv=0 dx=0 dy=0 dh=0 dv=0
PairPos2: "'kern' Horizontal Kerning lookup 10 per glyph data 5" uni1EA1 dx=0 dy=0 dh=-35 dv=0 dx=0 dy=0 dh=0 dv=0
PairPos2: "'kern' Horizontal Kerning lookup 10 per glyph data 5" uni01CE dx=0 dy=0 dh=-35 dv=0 dx=0 dy=0 dh=0 dv=0
PairPos2: "'kern' Horizontal Kerning lookup 10 per glyph data 5" aring dx=0 dy=0 dh=-35 dv=0 dx=0 dy=0 dh=0 dv=0
PairPos2: "'kern' Horizontal Kerning lookup 10 per glyph data 5" abreve dx=0 dy=0 dh=-35 dv=0 dx=0 dy=0 dh=0 dv=0
PairPos2: "'kern' Horizontal Kerning lookup 10 per glyph data 5" amacron dx=0 dy=0 dh=-35 dv=0 dx=0 dy=0 dh=0 dv=0
PairPos2: "'kern' Horizontal Kerning lookup 10 per glyph data 5" adieresis dx=0 dy=0 dh=-35 dv=0 dx=0 dy=0 dh=0 dv=0
PairPos2: "'kern' Horizontal Kerning lookup 10 per glyph data 5" atilde dx=0 dy=0 dh=-35 dv=0 dx=0 dy=0 dh=0 dv=0
PairPos2: "'kern' Horizontal Kerning lookup 10 per glyph data 5" acircumflex dx=0 dy=0 dh=-35 dv=0 dx=0 dy=0 dh=0 dv=0
PairPos2: "'kern' Horizontal Kerning lookup 10 per glyph data 5" aacute dx=0 dy=0 dh=-35 dv=0 dx=0 dy=0 dh=0 dv=0
PairPos2: "'kern' Horizontal Kerning lookup 10 per glyph data 5" agrave dx=0 dy=0 dh=-35 dv=0 dx=0 dy=0 dh=0 dv=0
PairPos2: "'kern' Horizontal Kerning lookup 10 per glyph data 5" a dx=0 dy=0 dh=-35 dv=0 dx=0 dy=0 dh=0 dv=0
PairPos2: "'kern' Horizontal Kerning lookup 10 per glyph data 5" periodcentered dx=0 dy=0 dh=-15 dv=0 dx=0 dy=0 dh=0 dv=0
PairPos2: "'kern' Horizontal Kerning lookup 10 per glyph data 5" quotedblbase dx=0 dy=0 dh=-79 dv=0 dx=0 dy=0 dh=0 dv=0
PairPos2: "'kern' Horizontal Kerning lookup 10 per glyph data 5" quotesinglbase dx=0 dy=0 dh=-79 dv=0 dx=0 dy=0 dh=0 dv=0
PairPos2: "'kern' Horizontal Kerning lookup 10 per glyph data 5" ellipsis dx=0 dy=0 dh=-79 dv=0 dx=0 dy=0 dh=0 dv=0
PairPos2: "'kern' Horizontal Kerning lookup 10 per glyph data 5" comma dx=0 dy=0 dh=-79 dv=0 dx=0 dy=0 dh=0 dv=0
PairPos2: "'kern' Horizontal Kerning lookup 10 per glyph data 5" period dx=0 dy=0 dh=-79 dv=0 dx=0 dy=0 dh=0 dv=0
PairPos2: "'kern' Horizontal Kerning lookup 10 per glyph data 5" germandbls.sc dx=0 dy=0 dh=-25 dv=0 dx=0 dy=0 dh=0 dv=0
PairPos2: "'kern' Horizontal Kerning lookup 10 per glyph data 5" uni1E62.sc dx=0 dy=0 dh=-25 dv=0 dx=0 dy=0 dh=0 dv=0
PairPos2: "'kern' Horizontal Kerning lookup 10 per glyph data 5" uni1E60.sc dx=0 dy=0 dh=-25 dv=0 dx=0 dy=0 dh=0 dv=0
PairPos2: "'kern' Horizontal Kerning lookup 10 per glyph data 5" uni0218.sc dx=0 dy=0 dh=-25 dv=0 dx=0 dy=0 dh=0 dv=0
PairPos2: "'kern' Horizontal Kerning lookup 10 per glyph data 5" uni015E.sc dx=0 dy=0 dh=-25 dv=0 dx=0 dy=0 dh=0 dv=0
PairPos2: "'kern' Horizontal Kerning lookup 10 per glyph data 5" Scaron.sc dx=0 dy=0 dh=-25 dv=0 dx=0 dy=0 dh=0 dv=0
PairPos2: "'kern' Horizontal Kerning lookup 10 per glyph data 5" Scircumflex.sc dx=0 dy=0 dh=-25 dv=0 dx=0 dy=0 dh=0 dv=0
PairPos2: "'kern' Horizontal Kerning lookup 10 per glyph data 5" Sacute.sc dx=0 dy=0 dh=-25 dv=0 dx=0 dy=0 dh=0 dv=0
PairPos2: "'kern' Horizontal Kerning lookup 10 per glyph data 5" S.sc dx=0 dy=0 dh=-25 dv=0 dx=0 dy=0 dh=0 dv=0
PairPos2: "'kern' Horizontal Kerning lookup 10 per glyph data 5" Jcircumflex.sc dx=0 dy=0 dh=-100 dv=0 dx=0 dy=0 dh=0 dv=0
PairPos2: "'kern' Horizontal Kerning lookup 10 per glyph data 5" J.sc dx=0 dy=0 dh=-100 dv=0 dx=0 dy=0 dh=0 dv=0
PairPos2: "'kern' Horizontal Kerning lookup 10 per glyph data 5" Aogonek.sc dx=0 dy=0 dh=-40 dv=0 dx=0 dy=0 dh=0 dv=0
PairPos2: "'kern' Horizontal Kerning lookup 10 per glyph data 5" uni1EB6.sc dx=0 dy=0 dh=-40 dv=0 dx=0 dy=0 dh=0 dv=0
PairPos2: "'kern' Horizontal Kerning lookup 10 per glyph data 5" uni1EB4.sc dx=0 dy=0 dh=-40 dv=0 dx=0 dy=0 dh=0 dv=0
PairPos2: "'kern' Horizontal Kerning lookup 10 per glyph data 5" uni1EB2.sc dx=0 dy=0 dh=-40 dv=0 dx=0 dy=0 dh=0 dv=0
PairPos2: "'kern' Horizontal Kerning lookup 10 per glyph data 5" uni1EB0.sc dx=0 dy=0 dh=-40 dv=0 dx=0 dy=0 dh=0 dv=0
PairPos2: "'kern' Horizontal Kerning lookup 10 per glyph data 5" uni1EAE.sc dx=0 dy=0 dh=-40 dv=0 dx=0 dy=0 dh=0 dv=0
PairPos2: "'kern' Horizontal Kerning lookup 10 per glyph data 5" uni1EAC.sc dx=0 dy=0 dh=-40 dv=0 dx=0 dy=0 dh=0 dv=0
PairPos2: "'kern' Horizontal Kerning lookup 10 per glyph data 5" uni1EAA.sc dx=0 dy=0 dh=-40 dv=0 dx=0 dy=0 dh=0 dv=0
PairPos2: "'kern' Horizontal Kerning lookup 10 per glyph data 5" uni1EA8.sc dx=0 dy=0 dh=-40 dv=0 dx=0 dy=0 dh=0 dv=0
PairPos2: "'kern' Horizontal Kerning lookup 10 per glyph data 5" uni1EA6.sc dx=0 dy=0 dh=-40 dv=0 dx=0 dy=0 dh=0 dv=0
PairPos2: "'kern' Horizontal Kerning lookup 10 per glyph data 5" uni1EA4.sc dx=0 dy=0 dh=-40 dv=0 dx=0 dy=0 dh=0 dv=0
PairPos2: "'kern' Horizontal Kerning lookup 10 per glyph data 5" uni1EA2.sc dx=0 dy=0 dh=-40 dv=0 dx=0 dy=0 dh=0 dv=0
PairPos2: "'kern' Horizontal Kerning lookup 10 per glyph data 5" uni1EA0.sc dx=0 dy=0 dh=-40 dv=0 dx=0 dy=0 dh=0 dv=0
PairPos2: "'kern' Horizontal Kerning lookup 10 per glyph data 5" uni01CD.sc dx=0 dy=0 dh=-40 dv=0 dx=0 dy=0 dh=0 dv=0
PairPos2: "'kern' Horizontal Kerning lookup 10 per glyph data 5" Aring.sc dx=0 dy=0 dh=-40 dv=0 dx=0 dy=0 dh=0 dv=0
PairPos2: "'kern' Horizontal Kerning lookup 10 per glyph data 5" Abreve.sc dx=0 dy=0 dh=-40 dv=0 dx=0 dy=0 dh=0 dv=0
PairPos2: "'kern' Horizontal Kerning lookup 10 per glyph data 5" Amacron.sc dx=0 dy=0 dh=-40 dv=0 dx=0 dy=0 dh=0 dv=0
PairPos2: "'kern' Horizontal Kerning lookup 10 per glyph data 5" Adieresis.sc dx=0 dy=0 dh=-40 dv=0 dx=0 dy=0 dh=0 dv=0
PairPos2: "'kern' Horizontal Kerning lookup 10 per glyph data 5" Atilde.sc dx=0 dy=0 dh=-40 dv=0 dx=0 dy=0 dh=0 dv=0
PairPos2: "'kern' Horizontal Kerning lookup 10 per glyph data 5" Acircumflex.sc dx=0 dy=0 dh=-40 dv=0 dx=0 dy=0 dh=0 dv=0
PairPos2: "'kern' Horizontal Kerning lookup 10 per glyph data 5" Aacute.sc dx=0 dy=0 dh=-40 dv=0 dx=0 dy=0 dh=0 dv=0
PairPos2: "'kern' Horizontal Kerning lookup 10 per glyph data 5" Agrave.sc dx=0 dy=0 dh=-40 dv=0 dx=0 dy=0 dh=0 dv=0
PairPos2: "'kern' Horizontal Kerning lookup 10 per glyph data 5" A.sc dx=0 dy=0 dh=-40 dv=0 dx=0 dy=0 dh=0 dv=0
PairPos2: "'kern' Horizontal Kerning lookup 10 per glyph data 5" uni1EF8 dx=0 dy=0 dh=-4 dv=0 dx=0 dy=0 dh=0 dv=0
PairPos2: "'kern' Horizontal Kerning lookup 10 per glyph data 5" uni1EF6 dx=0 dy=0 dh=-4 dv=0 dx=0 dy=0 dh=0 dv=0
PairPos2: "'kern' Horizontal Kerning lookup 10 per glyph data 5" uni1EF4 dx=0 dy=0 dh=-4 dv=0 dx=0 dy=0 dh=0 dv=0
PairPos2: "'kern' Horizontal Kerning lookup 10 per glyph data 5" uni1E8E dx=0 dy=0 dh=-4 dv=0 dx=0 dy=0 dh=0 dv=0
PairPos2: "'kern' Horizontal Kerning lookup 10 per glyph data 5" Ydieresis dx=0 dy=0 dh=-4 dv=0 dx=0 dy=0 dh=0 dv=0
PairPos2: "'kern' Horizontal Kerning lookup 10 per glyph data 5" Ycircumflex dx=0 dy=0 dh=-4 dv=0 dx=0 dy=0 dh=0 dv=0
PairPos2: "'kern' Horizontal Kerning lookup 10 per glyph data 5" Yacute dx=0 dy=0 dh=-4 dv=0 dx=0 dy=0 dh=0 dv=0
PairPos2: "'kern' Horizontal Kerning lookup 10 per glyph data 5" Ygrave dx=0 dy=0 dh=-4 dv=0 dx=0 dy=0 dh=0 dv=0
PairPos2: "'kern' Horizontal Kerning lookup 10 per glyph data 5" Y dx=0 dy=0 dh=-4 dv=0 dx=0 dy=0 dh=0 dv=0
PairPos2: "'kern' Horizontal Kerning lookup 10 per glyph data 5" uni0288 dx=0 dy=0 dh=-10 dv=0 dx=0 dy=0 dh=0 dv=0
PairPos2: "'kern' Horizontal Kerning lookup 10 per glyph data 5" uni0167 dx=0 dy=0 dh=-10 dv=0 dx=0 dy=0 dh=0 dv=0
PairPos2: "'kern' Horizontal Kerning lookup 10 per glyph data 5" uni1E97 dx=0 dy=0 dh=-10 dv=0 dx=0 dy=0 dh=0 dv=0
PairPos2: "'kern' Horizontal Kerning lookup 10 per glyph data 5" uni1E6F dx=0 dy=0 dh=-10 dv=0 dx=0 dy=0 dh=0 dv=0
PairPos2: "'kern' Horizontal Kerning lookup 10 per glyph data 5" uni1E6D dx=0 dy=0 dh=-10 dv=0 dx=0 dy=0 dh=0 dv=0
PairPos2: "'kern' Horizontal Kerning lookup 10 per glyph data 5" uni021B dx=0 dy=0 dh=-10 dv=0 dx=0 dy=0 dh=0 dv=0
PairPos2: "'kern' Horizontal Kerning lookup 10 per glyph data 5" uni0163 dx=0 dy=0 dh=-10 dv=0 dx=0 dy=0 dh=0 dv=0
PairPos2: "'kern' Horizontal Kerning lookup 10 per glyph data 5" tcaron dx=0 dy=0 dh=-10 dv=0 dx=0 dy=0 dh=0 dv=0
PairPos2: "'kern' Horizontal Kerning lookup 10 per glyph data 5" t dx=0 dy=0 dh=-10 dv=0 dx=0 dy=0 dh=0 dv=0
PairPos2: "'kern' Horizontal Kerning lookup 10 per glyph data 0" imacron dx=0 dy=0 dh=24 dv=0 dx=0 dy=0 dh=0 dv=0
PairPos2: "'kern' Horizontal Kerning lookup 10 per glyph data 0" idieresis dx=0 dy=0 dh=35 dv=0 dx=0 dy=0 dh=0 dv=0
PairPos2: "'kern' Horizontal Kerning lookup 10 per glyph data 0" itilde dx=0 dy=0 dh=35 dv=0 dx=0 dy=0 dh=0 dv=0
PairPos2: "'kern' Horizontal Kerning lookup 10 per glyph data 0" icircumflex dx=0 dy=0 dh=24 dv=0 dx=0 dy=0 dh=0 dv=0
EndChar
StartChar: H
Encoding: 72 72 9
Width: 659
GlyphClass: 2
Flags: MW
HStem: 0 21G<85 85 85 190 469 469 469 574> 296 92<190 469 190 469> 635 20G<85 190 190 190 469 574 574 574>
VStem: 85 105<0 296 388 655> 469 105<0 296 296 296 388 655 0 655>
AnchorPoint: "Anchor-4" 328 -22 basechar 0
AnchorPoint: "Anchor-1" 328 677 basechar 0
LayerCount: 2
Fore
SplineSet
85 0 m 1
 85 655 l 1
 190 655 l 1
 190 388 l 1
 469 388 l 1
 469 655 l 1
 574 655 l 1
 574 0 l 1
 469 0 l 1
 469 296 l 1
 190 296 l 1
 190 0 l 1
 85 0 l 1
EndSplineSet
Substitution2: "'sups' Superscript lookup 27 subtable" H.sups
Substitution2: "'c2sc' Capitals to Small Capitals lookup 17 subtable" H.sc
AlternateSubs2: "'aalt' Access All Alternates lookup 1 subtable" H.sc H.sups
PairPos2: "'kern' Horizontal Kerning lookup 10 per glyph data 5" uni1E94.sc dx=0 dy=0 dh=7 dv=0 dx=0 dy=0 dh=0 dv=0
PairPos2: "'kern' Horizontal Kerning lookup 10 per glyph data 5" uni1E92.sc dx=0 dy=0 dh=7 dv=0 dx=0 dy=0 dh=0 dv=0
PairPos2: "'kern' Horizontal Kerning lookup 10 per glyph data 5" Zdotaccent.sc dx=0 dy=0 dh=7 dv=0 dx=0 dy=0 dh=0 dv=0
PairPos2: "'kern' Horizontal Kerning lookup 10 per glyph data 5" Zcaron.sc dx=0 dy=0 dh=7 dv=0 dx=0 dy=0 dh=0 dv=0
PairPos2: "'kern' Horizontal Kerning lookup 10 per glyph data 5" Zacute.sc dx=0 dy=0 dh=7 dv=0 dx=0 dy=0 dh=0 dv=0
PairPos2: "'kern' Horizontal Kerning lookup 10 per glyph data 5" Z.sc dx=0 dy=0 dh=7 dv=0 dx=0 dy=0 dh=0 dv=0
PairPos2: "'kern' Horizontal Kerning lookup 10 per glyph data 5" X.sc dx=0 dy=0 dh=17 dv=0 dx=0 dy=0 dh=0 dv=0
PairPos2: "'kern' Horizontal Kerning lookup 10 per glyph data 5" uni1E52.sc dx=0 dy=0 dh=12 dv=0 dx=0 dy=0 dh=0 dv=0
PairPos2: "'kern' Horizontal Kerning lookup 10 per glyph data 5" uni014E.sc dx=0 dy=0 dh=12 dv=0 dx=0 dy=0 dh=0 dv=0
PairPos2: "'kern' Horizontal Kerning lookup 10 per glyph data 5" uni01EA.sc dx=0 dy=0 dh=12 dv=0 dx=0 dy=0 dh=0 dv=0
PairPos2: "'kern' Horizontal Kerning lookup 10 per glyph data 5" uni1EE2.sc dx=0 dy=0 dh=12 dv=0 dx=0 dy=0 dh=0 dv=0
PairPos2: "'kern' Horizontal Kerning lookup 10 per glyph data 5" uni1EE0.sc dx=0 dy=0 dh=12 dv=0 dx=0 dy=0 dh=0 dv=0
PairPos2: "'kern' Horizontal Kerning lookup 10 per glyph data 5" uni1EDE.sc dx=0 dy=0 dh=12 dv=0 dx=0 dy=0 dh=0 dv=0
PairPos2: "'kern' Horizontal Kerning lookup 10 per glyph data 5" uni1EDC.sc dx=0 dy=0 dh=12 dv=0 dx=0 dy=0 dh=0 dv=0
PairPos2: "'kern' Horizontal Kerning lookup 10 per glyph data 5" uni1EDA.sc dx=0 dy=0 dh=12 dv=0 dx=0 dy=0 dh=0 dv=0
PairPos2: "'kern' Horizontal Kerning lookup 10 per glyph data 5" Ohorn.sc dx=0 dy=0 dh=12 dv=0 dx=0 dy=0 dh=0 dv=0
PairPos2: "'kern' Horizontal Kerning lookup 10 per glyph data 5" OE.sc dx=0 dy=0 dh=12 dv=0 dx=0 dy=0 dh=0 dv=0
PairPos2: "'kern' Horizontal Kerning lookup 10 per glyph data 5" Oslash.sc dx=0 dy=0 dh=12 dv=0 dx=0 dy=0 dh=0 dv=0
PairPos2: "'kern' Horizontal Kerning lookup 10 per glyph data 5" uni1ED8.sc dx=0 dy=0 dh=12 dv=0 dx=0 dy=0 dh=0 dv=0
PairPos2: "'kern' Horizontal Kerning lookup 10 per glyph data 5" uni1ED6.sc dx=0 dy=0 dh=12 dv=0 dx=0 dy=0 dh=0 dv=0
PairPos2: "'kern' Horizontal Kerning lookup 10 per glyph data 5" uni1ED4.sc dx=0 dy=0 dh=12 dv=0 dx=0 dy=0 dh=0 dv=0
PairPos2: "'kern' Horizontal Kerning lookup 10 per glyph data 5" uni1ED2.sc dx=0 dy=0 dh=12 dv=0 dx=0 dy=0 dh=0 dv=0
PairPos2: "'kern' Horizontal Kerning lookup 10 per glyph data 5" uni1ED0.sc dx=0 dy=0 dh=12 dv=0 dx=0 dy=0 dh=0 dv=0
PairPos2: "'kern' Horizontal Kerning lookup 10 per glyph data 5" uni1ECE.sc dx=0 dy=0 dh=12 dv=0 dx=0 dy=0 dh=0 dv=0
PairPos2: "'kern' Horizontal Kerning lookup 10 per glyph data 5" uni1ECC.sc dx=0 dy=0 dh=12 dv=0 dx=0 dy=0 dh=0 dv=0
PairPos2: "'kern' Horizontal Kerning lookup 10 per glyph data 5" uni01D1.sc dx=0 dy=0 dh=12 dv=0 dx=0 dy=0 dh=0 dv=0
PairPos2: "'kern' Horizontal Kerning lookup 10 per glyph data 5" Ohungarumlaut.sc dx=0 dy=0 dh=12 dv=0 dx=0 dy=0 dh=0 dv=0
PairPos2: "'kern' Horizontal Kerning lookup 10 per glyph data 5" Omacron.sc dx=0 dy=0 dh=12 dv=0 dx=0 dy=0 dh=0 dv=0
PairPos2: "'kern' Horizontal Kerning lookup 10 per glyph data 5" Odieresis.sc dx=0 dy=0 dh=12 dv=0 dx=0 dy=0 dh=0 dv=0
PairPos2: "'kern' Horizontal Kerning lookup 10 per glyph data 5" Otilde.sc dx=0 dy=0 dh=12 dv=0 dx=0 dy=0 dh=0 dv=0
PairPos2: "'kern' Horizontal Kerning lookup 10 per glyph data 5" Ocircumflex.sc dx=0 dy=0 dh=12 dv=0 dx=0 dy=0 dh=0 dv=0
PairPos2: "'kern' Horizontal Kerning lookup 10 per glyph data 5" Oacute.sc dx=0 dy=0 dh=12 dv=0 dx=0 dy=0 dh=0 dv=0
PairPos2: "'kern' Horizontal Kerning lookup 10 per glyph data 5" Ograve.sc dx=0 dy=0 dh=12 dv=0 dx=0 dy=0 dh=0 dv=0
PairPos2: "'kern' Horizontal Kerning lookup 10 per glyph data 5" uni0193.sc dx=0 dy=0 dh=12 dv=0 dx=0 dy=0 dh=0 dv=0
PairPos2: "'kern' Horizontal Kerning lookup 10 per glyph data 5" uni00470303.sc dx=0 dy=0 dh=12 dv=0 dx=0 dy=0 dh=0 dv=0
PairPos2: "'kern' Horizontal Kerning lookup 10 per glyph data 5" uni1E20.sc dx=0 dy=0 dh=12 dv=0 dx=0 dy=0 dh=0 dv=0
PairPos2: "'kern' Horizontal Kerning lookup 10 per glyph data 5" Gcaron.sc dx=0 dy=0 dh=12 dv=0 dx=0 dy=0 dh=0 dv=0
PairPos2: "'kern' Horizontal Kerning lookup 10 per glyph data 5" uni0122.sc dx=0 dy=0 dh=12 dv=0 dx=0 dy=0 dh=0 dv=0
PairPos2: "'kern' Horizontal Kerning lookup 10 per glyph data 5" Gdotaccent.sc dx=0 dy=0 dh=12 dv=0 dx=0 dy=0 dh=0 dv=0
PairPos2: "'kern' Horizontal Kerning lookup 10 per glyph data 5" Gbreve.sc dx=0 dy=0 dh=12 dv=0 dx=0 dy=0 dh=0 dv=0
PairPos2: "'kern' Horizontal Kerning lookup 10 per glyph data 5" Gcircumflex.sc dx=0 dy=0 dh=12 dv=0 dx=0 dy=0 dh=0 dv=0
PairPos2: "'kern' Horizontal Kerning lookup 10 per glyph data 5" uni01F4.sc dx=0 dy=0 dh=12 dv=0 dx=0 dy=0 dh=0 dv=0
PairPos2: "'kern' Horizontal Kerning lookup 10 per glyph data 5" Cdotaccent.sc dx=0 dy=0 dh=12 dv=0 dx=0 dy=0 dh=0 dv=0
PairPos2: "'kern' Horizontal Kerning lookup 10 per glyph data 5" Ccaron.sc dx=0 dy=0 dh=12 dv=0 dx=0 dy=0 dh=0 dv=0
PairPos2: "'kern' Horizontal Kerning lookup 10 per glyph data 5" Ccircumflex.sc dx=0 dy=0 dh=12 dv=0 dx=0 dy=0 dh=0 dv=0
PairPos2: "'kern' Horizontal Kerning lookup 10 per glyph data 5" Cacute.sc dx=0 dy=0 dh=12 dv=0 dx=0 dy=0 dh=0 dv=0
PairPos2: "'kern' Horizontal Kerning lookup 10 per glyph data 5" Ccedilla.sc dx=0 dy=0 dh=12 dv=0 dx=0 dy=0 dh=0 dv=0
PairPos2: "'kern' Horizontal Kerning lookup 10 per glyph data 5" Q.sc dx=0 dy=0 dh=12 dv=0 dx=0 dy=0 dh=0 dv=0
PairPos2: "'kern' Horizontal Kerning lookup 10 per glyph data 5" O.sc dx=0 dy=0 dh=12 dv=0 dx=0 dy=0 dh=0 dv=0
PairPos2: "'kern' Horizontal Kerning lookup 10 per glyph data 5" G.sc dx=0 dy=0 dh=12 dv=0 dx=0 dy=0 dh=0 dv=0
PairPos2: "'kern' Horizontal Kerning lookup 10 per glyph data 5" C.sc dx=0 dy=0 dh=12 dv=0 dx=0 dy=0 dh=0 dv=0
PairPos2: "'kern' Horizontal Kerning lookup 10 per glyph data 5" uni1EF8.sc dx=0 dy=0 dh=22 dv=0 dx=0 dy=0 dh=0 dv=0
PairPos2: "'kern' Horizontal Kerning lookup 10 per glyph data 5" uni1EF6.sc dx=0 dy=0 dh=22 dv=0 dx=0 dy=0 dh=0 dv=0
PairPos2: "'kern' Horizontal Kerning lookup 10 per glyph data 5" uni1EF4.sc dx=0 dy=0 dh=22 dv=0 dx=0 dy=0 dh=0 dv=0
PairPos2: "'kern' Horizontal Kerning lookup 10 per glyph data 5" uni1E8E.sc dx=0 dy=0 dh=22 dv=0 dx=0 dy=0 dh=0 dv=0
PairPos2: "'kern' Horizontal Kerning lookup 10 per glyph data 5" Ydieresis.sc dx=0 dy=0 dh=22 dv=0 dx=0 dy=0 dh=0 dv=0
PairPos2: "'kern' Horizontal Kerning lookup 10 per glyph data 5" Ycircumflex.sc dx=0 dy=0 dh=22 dv=0 dx=0 dy=0 dh=0 dv=0
PairPos2: "'kern' Horizontal Kerning lookup 10 per glyph data 5" Yacute.sc dx=0 dy=0 dh=22 dv=0 dx=0 dy=0 dh=0 dv=0
PairPos2: "'kern' Horizontal Kerning lookup 10 per glyph data 5" Ygrave.sc dx=0 dy=0 dh=22 dv=0 dx=0 dy=0 dh=0 dv=0
PairPos2: "'kern' Horizontal Kerning lookup 10 per glyph data 5" Y.sc dx=0 dy=0 dh=22 dv=0 dx=0 dy=0 dh=0 dv=0
PairPos2: "'kern' Horizontal Kerning lookup 10 per glyph data 5" Wdieresis.sc dx=0 dy=0 dh=10 dv=0 dx=0 dy=0 dh=0 dv=0
PairPos2: "'kern' Horizontal Kerning lookup 10 per glyph data 5" Wcircumflex.sc dx=0 dy=0 dh=10 dv=0 dx=0 dy=0 dh=0 dv=0
PairPos2: "'kern' Horizontal Kerning lookup 10 per glyph data 5" Wacute.sc dx=0 dy=0 dh=10 dv=0 dx=0 dy=0 dh=0 dv=0
PairPos2: "'kern' Horizontal Kerning lookup 10 per glyph data 5" Wgrave.sc dx=0 dy=0 dh=10 dv=0 dx=0 dy=0 dh=0 dv=0
PairPos2: "'kern' Horizontal Kerning lookup 10 per glyph data 5" W.sc dx=0 dy=0 dh=10 dv=0 dx=0 dy=0 dh=0 dv=0
PairPos2: "'kern' Horizontal Kerning lookup 10 per glyph data 5" V.sc dx=0 dy=0 dh=14 dv=0 dx=0 dy=0 dh=0 dv=0
PairPos2: "'kern' Horizontal Kerning lookup 10 per glyph data 5" uni1EF0.sc dx=0 dy=0 dh=10 dv=0 dx=0 dy=0 dh=0 dv=0
PairPos2: "'kern' Horizontal Kerning lookup 10 per glyph data 5" uni1EEE.sc dx=0 dy=0 dh=10 dv=0 dx=0 dy=0 dh=0 dv=0
PairPos2: "'kern' Horizontal Kerning lookup 10 per glyph data 5" uni1EEC.sc dx=0 dy=0 dh=10 dv=0 dx=0 dy=0 dh=0 dv=0
PairPos2: "'kern' Horizontal Kerning lookup 10 per glyph data 5" uni1EEA.sc dx=0 dy=0 dh=10 dv=0 dx=0 dy=0 dh=0 dv=0
PairPos2: "'kern' Horizontal Kerning lookup 10 per glyph data 5" uni1EE8.sc dx=0 dy=0 dh=10 dv=0 dx=0 dy=0 dh=0 dv=0
PairPos2: "'kern' Horizontal Kerning lookup 10 per glyph data 5" Uhorn.sc dx=0 dy=0 dh=10 dv=0 dx=0 dy=0 dh=0 dv=0
PairPos2: "'kern' Horizontal Kerning lookup 10 per glyph data 5" Uogonek.sc dx=0 dy=0 dh=10 dv=0 dx=0 dy=0 dh=0 dv=0
PairPos2: "'kern' Horizontal Kerning lookup 10 per glyph data 5" uni1EE6.sc dx=0 dy=0 dh=10 dv=0 dx=0 dy=0 dh=0 dv=0
PairPos2: "'kern' Horizontal Kerning lookup 10 per glyph data 5" uni1EE4.sc dx=0 dy=0 dh=10 dv=0 dx=0 dy=0 dh=0 dv=0
PairPos2: "'kern' Horizontal Kerning lookup 10 per glyph data 5" uni01DB.sc dx=0 dy=0 dh=10 dv=0 dx=0 dy=0 dh=0 dv=0
PairPos2: "'kern' Horizontal Kerning lookup 10 per glyph data 5" uni01D9.sc dx=0 dy=0 dh=10 dv=0 dx=0 dy=0 dh=0 dv=0
PairPos2: "'kern' Horizontal Kerning lookup 10 per glyph data 5" uni01D7.sc dx=0 dy=0 dh=10 dv=0 dx=0 dy=0 dh=0 dv=0
PairPos2: "'kern' Horizontal Kerning lookup 10 per glyph data 5" uni01D5.sc dx=0 dy=0 dh=10 dv=0 dx=0 dy=0 dh=0 dv=0
PairPos2: "'kern' Horizontal Kerning lookup 10 per glyph data 5" uni01D3.sc dx=0 dy=0 dh=10 dv=0 dx=0 dy=0 dh=0 dv=0
PairPos2: "'kern' Horizontal Kerning lookup 10 per glyph data 5" Uhungarumlaut.sc dx=0 dy=0 dh=10 dv=0 dx=0 dy=0 dh=0 dv=0
PairPos2: "'kern' Horizontal Kerning lookup 10 per glyph data 5" Uring.sc dx=0 dy=0 dh=10 dv=0 dx=0 dy=0 dh=0 dv=0
PairPos2: "'kern' Horizontal Kerning lookup 10 per glyph data 5" Ubreve.sc dx=0 dy=0 dh=10 dv=0 dx=0 dy=0 dh=0 dv=0
PairPos2: "'kern' Horizontal Kerning lookup 10 per glyph data 5" Umacron.sc dx=0 dy=0 dh=10 dv=0 dx=0 dy=0 dh=0 dv=0
PairPos2: "'kern' Horizontal Kerning lookup 10 per glyph data 5" Udieresis.sc dx=0 dy=0 dh=10 dv=0 dx=0 dy=0 dh=0 dv=0
PairPos2: "'kern' Horizontal Kerning lookup 10 per glyph data 5" Utilde.sc dx=0 dy=0 dh=10 dv=0 dx=0 dy=0 dh=0 dv=0
PairPos2: "'kern' Horizontal Kerning lookup 10 per glyph data 5" Ucircumflex.sc dx=0 dy=0 dh=10 dv=0 dx=0 dy=0 dh=0 dv=0
PairPos2: "'kern' Horizontal Kerning lookup 10 per glyph data 5" Uacute.sc dx=0 dy=0 dh=10 dv=0 dx=0 dy=0 dh=0 dv=0
PairPos2: "'kern' Horizontal Kerning lookup 10 per glyph data 5" Ugrave.sc dx=0 dy=0 dh=10 dv=0 dx=0 dy=0 dh=0 dv=0
PairPos2: "'kern' Horizontal Kerning lookup 10 per glyph data 5" U.sc dx=0 dy=0 dh=10 dv=0 dx=0 dy=0 dh=0 dv=0
PairPos2: "'kern' Horizontal Kerning lookup 10 per glyph data 5" uni0166.sc dx=0 dy=0 dh=10 dv=0 dx=0 dy=0 dh=0 dv=0
PairPos2: "'kern' Horizontal Kerning lookup 10 per glyph data 5" uni1E6E.sc dx=0 dy=0 dh=10 dv=0 dx=0 dy=0 dh=0 dv=0
PairPos2: "'kern' Horizontal Kerning lookup 10 per glyph data 5" uni1E6C.sc dx=0 dy=0 dh=10 dv=0 dx=0 dy=0 dh=0 dv=0
PairPos2: "'kern' Horizontal Kerning lookup 10 per glyph data 5" uni021A.sc dx=0 dy=0 dh=10 dv=0 dx=0 dy=0 dh=0 dv=0
PairPos2: "'kern' Horizontal Kerning lookup 10 per glyph data 5" uni0162.sc dx=0 dy=0 dh=10 dv=0 dx=0 dy=0 dh=0 dv=0
PairPos2: "'kern' Horizontal Kerning lookup 10 per glyph data 5" Tcaron.sc dx=0 dy=0 dh=10 dv=0 dx=0 dy=0 dh=0 dv=0
PairPos2: "'kern' Horizontal Kerning lookup 10 per glyph data 5" T.sc dx=0 dy=0 dh=10 dv=0 dx=0 dy=0 dh=0 dv=0
PairPos2: "'kern' Horizontal Kerning lookup 10 per glyph data 5" germandbls.sc dx=0 dy=0 dh=5 dv=0 dx=0 dy=0 dh=0 dv=0
PairPos2: "'kern' Horizontal Kerning lookup 10 per glyph data 5" uni1E62.sc dx=0 dy=0 dh=5 dv=0 dx=0 dy=0 dh=0 dv=0
PairPos2: "'kern' Horizontal Kerning lookup 10 per glyph data 5" uni1E60.sc dx=0 dy=0 dh=5 dv=0 dx=0 dy=0 dh=0 dv=0
PairPos2: "'kern' Horizontal Kerning lookup 10 per glyph data 5" uni0218.sc dx=0 dy=0 dh=5 dv=0 dx=0 dy=0 dh=0 dv=0
PairPos2: "'kern' Horizontal Kerning lookup 10 per glyph data 5" uni015E.sc dx=0 dy=0 dh=5 dv=0 dx=0 dy=0 dh=0 dv=0
PairPos2: "'kern' Horizontal Kerning lookup 10 per glyph data 5" Scaron.sc dx=0 dy=0 dh=5 dv=0 dx=0 dy=0 dh=0 dv=0
PairPos2: "'kern' Horizontal Kerning lookup 10 per glyph data 5" Scircumflex.sc dx=0 dy=0 dh=5 dv=0 dx=0 dy=0 dh=0 dv=0
PairPos2: "'kern' Horizontal Kerning lookup 10 per glyph data 5" Sacute.sc dx=0 dy=0 dh=5 dv=0 dx=0 dy=0 dh=0 dv=0
PairPos2: "'kern' Horizontal Kerning lookup 10 per glyph data 5" S.sc dx=0 dy=0 dh=5 dv=0 dx=0 dy=0 dh=0 dv=0
EndChar
StartChar: Z
Encoding: 90 90 27
Width: 540
GlyphClass: 2
Flags: MW
HStem: 0 88<171 500 171 500> 566 89<71 368 71 498>
VStem: 42 458<0 63 63 63>
AnchorPoint: "Anchor-4" 282 -22 basechar 0
AnchorPoint: "Anchor-1" 281 677 basechar 0
LayerCount: 2
Fore
SplineSet
42 0 m 1
 42 63 l 1
 368 566 l 1
 71 566 l 1
 71 655 l 1
 498 655 l 1
 498 592 l 1
 171 88 l 1
 500 88 l 1
 500 0 l 1
 42 0 l 1
EndSplineSet
Substitution2: "'sups' Superscript lookup 27 subtable" Z.sups
Substitution2: "'c2sc' Capitals to Small Capitals lookup 17 subtable" Z.sc
AlternateSubs2: "'aalt' Access All Alternates lookup 1 subtable" Z.sc Z.sups
PairPos2: "'kern' Horizontal Kerning lookup 10 per glyph data 5" uni028C dx=0 dy=0 dh=-5 dv=0 dx=0 dy=0 dh=0 dv=0
PairPos2: "'kern' Horizontal Kerning lookup 10 per glyph data 5" guillemotleft dx=0 dy=0 dh=-31 dv=0 dx=0 dy=0 dh=0 dv=0
PairPos2: "'kern' Horizontal Kerning lookup 10 per glyph data 5" guilsinglleft dx=0 dy=0 dh=-31 dv=0 dx=0 dy=0 dh=0 dv=0
PairPos2: "'kern' Horizontal Kerning lookup 10 per glyph data 5" uni2015 dx=0 dy=0 dh=-31 dv=0 dx=0 dy=0 dh=0 dv=0
PairPos2: "'kern' Horizontal Kerning lookup 10 per glyph data 5" figuredash dx=0 dy=0 dh=-31 dv=0 dx=0 dy=0 dh=0 dv=0
PairPos2: "'kern' Horizontal Kerning lookup 10 per glyph data 5" emdash dx=0 dy=0 dh=-31 dv=0 dx=0 dy=0 dh=0 dv=0
PairPos2: "'kern' Horizontal Kerning lookup 10 per glyph data 5" endash dx=0 dy=0 dh=-31 dv=0 dx=0 dy=0 dh=0 dv=0
PairPos2: "'kern' Horizontal Kerning lookup 10 per glyph data 5" uni00AD dx=0 dy=0 dh=-31 dv=0 dx=0 dy=0 dh=0 dv=0
PairPos2: "'kern' Horizontal Kerning lookup 10 per glyph data 5" hyphen dx=0 dy=0 dh=-31 dv=0 dx=0 dy=0 dh=0 dv=0
PairPos2: "'kern' Horizontal Kerning lookup 10 per glyph data 5" uni00670303.a dx=0 dy=0 dh=-19 dv=0 dx=0 dy=0 dh=0 dv=0
PairPos2: "'kern' Horizontal Kerning lookup 10 per glyph data 5" uni1E21.a dx=0 dy=0 dh=-19 dv=0 dx=0 dy=0 dh=0 dv=0
PairPos2: "'kern' Horizontal Kerning lookup 10 per glyph data 5" gcaron.a dx=0 dy=0 dh=-19 dv=0 dx=0 dy=0 dh=0 dv=0
PairPos2: "'kern' Horizontal Kerning lookup 10 per glyph data 5" uni0123.a dx=0 dy=0 dh=-19 dv=0 dx=0 dy=0 dh=0 dv=0
PairPos2: "'kern' Horizontal Kerning lookup 10 per glyph data 5" gdotaccent.a dx=0 dy=0 dh=-19 dv=0 dx=0 dy=0 dh=0 dv=0
PairPos2: "'kern' Horizontal Kerning lookup 10 per glyph data 5" gbreve.a dx=0 dy=0 dh=-19 dv=0 dx=0 dy=0 dh=0 dv=0
PairPos2: "'kern' Horizontal Kerning lookup 10 per glyph data 5" gcircumflex.a dx=0 dy=0 dh=-19 dv=0 dx=0 dy=0 dh=0 dv=0
PairPos2: "'kern' Horizontal Kerning lookup 10 per glyph data 5" uni01F5.a dx=0 dy=0 dh=-19 dv=0 dx=0 dy=0 dh=0 dv=0
PairPos2: "'kern' Horizontal Kerning lookup 10 per glyph data 5" g.a dx=0 dy=0 dh=-19 dv=0 dx=0 dy=0 dh=0 dv=0
PairPos2: "'kern' Horizontal Kerning lookup 10 per glyph data 5" aogonek.a dx=0 dy=0 dh=-19 dv=0 dx=0 dy=0 dh=0 dv=0
PairPos2: "'kern' Horizontal Kerning lookup 10 per glyph data 5" uni1EB7.a dx=0 dy=0 dh=-19 dv=0 dx=0 dy=0 dh=0 dv=0
PairPos2: "'kern' Horizontal Kerning lookup 10 per glyph data 5" uni1EB5.a dx=0 dy=0 dh=-19 dv=0 dx=0 dy=0 dh=0 dv=0
PairPos2: "'kern' Horizontal Kerning lookup 10 per glyph data 5" uni1EB3.a dx=0 dy=0 dh=-19 dv=0 dx=0 dy=0 dh=0 dv=0
PairPos2: "'kern' Horizontal Kerning lookup 10 per glyph data 5" uni1EB1.a dx=0 dy=0 dh=-19 dv=0 dx=0 dy=0 dh=0 dv=0
PairPos2: "'kern' Horizontal Kerning lookup 10 per glyph data 5" uni1EAF.a dx=0 dy=0 dh=-19 dv=0 dx=0 dy=0 dh=0 dv=0
PairPos2: "'kern' Horizontal Kerning lookup 10 per glyph data 5" uni1EAD.a dx=0 dy=0 dh=-19 dv=0 dx=0 dy=0 dh=0 dv=0
PairPos2: "'kern' Horizontal Kerning lookup 10 per glyph data 5" uni1EAB.a dx=0 dy=0 dh=-19 dv=0 dx=0 dy=0 dh=0 dv=0
PairPos2: "'kern' Horizontal Kerning lookup 10 per glyph data 5" uni1EA9.a dx=0 dy=0 dh=-19 dv=0 dx=0 dy=0 dh=0 dv=0
PairPos2: "'kern' Horizontal Kerning lookup 10 per glyph data 5" uni1EA7.a dx=0 dy=0 dh=-19 dv=0 dx=0 dy=0 dh=0 dv=0
PairPos2: "'kern' Horizontal Kerning lookup 10 per glyph data 5" uni1EA5.a dx=0 dy=0 dh=-19 dv=0 dx=0 dy=0 dh=0 dv=0
PairPos2: "'kern' Horizontal Kerning lookup 10 per glyph data 5" uni1EA3.a dx=0 dy=0 dh=-19 dv=0 dx=0 dy=0 dh=0 dv=0
PairPos2: "'kern' Horizontal Kerning lookup 10 per glyph data 5" uni1EA1.a dx=0 dy=0 dh=-19 dv=0 dx=0 dy=0 dh=0 dv=0
PairPos2: "'kern' Horizontal Kerning lookup 10 per glyph data 5" uni01CE.a dx=0 dy=0 dh=-19 dv=0 dx=0 dy=0 dh=0 dv=0
PairPos2: "'kern' Horizontal Kerning lookup 10 per glyph data 5" aring.a dx=0 dy=0 dh=-19 dv=0 dx=0 dy=0 dh=0 dv=0
PairPos2: "'kern' Horizontal Kerning lookup 10 per glyph data 5" abreve.a dx=0 dy=0 dh=-19 dv=0 dx=0 dy=0 dh=0 dv=0
PairPos2: "'kern' Horizontal Kerning lookup 10 per glyph data 5" amacron.a dx=0 dy=0 dh=-19 dv=0 dx=0 dy=0 dh=0 dv=0
PairPos2: "'kern' Horizontal Kerning lookup 10 per glyph data 5" adieresis.a dx=0 dy=0 dh=-19 dv=0 dx=0 dy=0 dh=0 dv=0
PairPos2: "'kern' Horizontal Kerning lookup 10 per glyph data 5" atilde.a dx=0 dy=0 dh=-19 dv=0 dx=0 dy=0 dh=0 dv=0
PairPos2: "'kern' Horizontal Kerning lookup 10 per glyph data 5" acircumflex.a dx=0 dy=0 dh=-19 dv=0 dx=0 dy=0 dh=0 dv=0
PairPos2: "'kern' Horizontal Kerning lookup 10 per glyph data 5" aacute.a dx=0 dy=0 dh=-19 dv=0 dx=0 dy=0 dh=0 dv=0
PairPos2: "'kern' Horizontal Kerning lookup 10 per glyph data 5" agrave.a dx=0 dy=0 dh=-19 dv=0 dx=0 dy=0 dh=0 dv=0
PairPos2: "'kern' Horizontal Kerning lookup 10 per glyph data 5" a.a dx=0 dy=0 dh=-19 dv=0 dx=0 dy=0 dh=0 dv=0
PairPos2: "'kern' Horizontal Kerning lookup 10 per glyph data 5" uni0278 dx=0 dy=0 dh=-19 dv=0 dx=0 dy=0 dh=0 dv=0
PairPos2: "'kern' Horizontal Kerning lookup 10 per glyph data 5" uni0276 dx=0 dy=0 dh=-19 dv=0 dx=0 dy=0 dh=0 dv=0
PairPos2: "'kern' Horizontal Kerning lookup 10 per glyph data 5" uni0275 dx=0 dy=0 dh=-19 dv=0 dx=0 dy=0 dh=0 dv=0
PairPos2: "'kern' Horizontal Kerning lookup 10 per glyph data 5" uni0262 dx=0 dy=0 dh=-19 dv=0 dx=0 dy=0 dh=0 dv=0
PairPos2: "'kern' Horizontal Kerning lookup 10 per glyph data 5" uni0261 dx=0 dy=0 dh=-19 dv=0 dx=0 dy=0 dh=0 dv=0
PairPos2: "'kern' Horizontal Kerning lookup 10 per glyph data 5" uni0260 dx=0 dy=0 dh=-19 dv=0 dx=0 dy=0 dh=0 dv=0
PairPos2: "'kern' Horizontal Kerning lookup 10 per glyph data 5" uni0251 dx=0 dy=0 dh=-19 dv=0 dx=0 dy=0 dh=0 dv=0
PairPos2: "'kern' Horizontal Kerning lookup 10 per glyph data 5" uni0257 dx=0 dy=0 dh=-19 dv=0 dx=0 dy=0 dh=0 dv=0
PairPos2: "'kern' Horizontal Kerning lookup 10 per glyph data 5" uni0256 dx=0 dy=0 dh=-19 dv=0 dx=0 dy=0 dh=0 dv=0
PairPos2: "'kern' Horizontal Kerning lookup 10 per glyph data 5" uni0255 dx=0 dy=0 dh=-19 dv=0 dx=0 dy=0 dh=0 dv=0
PairPos2: "'kern' Horizontal Kerning lookup 10 per glyph data 5" uni01EB dx=0 dy=0 dh=-19 dv=0 dx=0 dy=0 dh=0 dv=0
PairPos2: "'kern' Horizontal Kerning lookup 10 per glyph data 5" uni1EE3 dx=0 dy=0 dh=-19 dv=0 dx=0 dy=0 dh=0 dv=0
PairPos2: "'kern' Horizontal Kerning lookup 10 per glyph data 5" uni1EE1 dx=0 dy=0 dh=-19 dv=0 dx=0 dy=0 dh=0 dv=0
PairPos2: "'kern' Horizontal Kerning lookup 10 per glyph data 5" uni1EDF dx=0 dy=0 dh=-19 dv=0 dx=0 dy=0 dh=0 dv=0
PairPos2: "'kern' Horizontal Kerning lookup 10 per glyph data 5" uni1EDD dx=0 dy=0 dh=-19 dv=0 dx=0 dy=0 dh=0 dv=0
PairPos2: "'kern' Horizontal Kerning lookup 10 per glyph data 5" uni1EDB dx=0 dy=0 dh=-19 dv=0 dx=0 dy=0 dh=0 dv=0
PairPos2: "'kern' Horizontal Kerning lookup 10 per glyph data 5" ohorn dx=0 dy=0 dh=-19 dv=0 dx=0 dy=0 dh=0 dv=0
PairPos2: "'kern' Horizontal Kerning lookup 10 per glyph data 5" oe dx=0 dy=0 dh=-19 dv=0 dx=0 dy=0 dh=0 dv=0
PairPos2: "'kern' Horizontal Kerning lookup 10 per glyph data 5" oslash dx=0 dy=0 dh=-19 dv=0 dx=0 dy=0 dh=0 dv=0
PairPos2: "'kern' Horizontal Kerning lookup 10 per glyph data 5" uni1E53 dx=0 dy=0 dh=-19 dv=0 dx=0 dy=0 dh=0 dv=0
PairPos2: "'kern' Horizontal Kerning lookup 10 per glyph data 5" uni014F dx=0 dy=0 dh=-19 dv=0 dx=0 dy=0 dh=0 dv=0
PairPos2: "'kern' Horizontal Kerning lookup 10 per glyph data 5" uni1ED9 dx=0 dy=0 dh=-19 dv=0 dx=0 dy=0 dh=0 dv=0
PairPos2: "'kern' Horizontal Kerning lookup 10 per glyph data 5" uni1ED7 dx=0 dy=0 dh=-19 dv=0 dx=0 dy=0 dh=0 dv=0
PairPos2: "'kern' Horizontal Kerning lookup 10 per glyph data 5" uni1ED5 dx=0 dy=0 dh=-19 dv=0 dx=0 dy=0 dh=0 dv=0
PairPos2: "'kern' Horizontal Kerning lookup 10 per glyph data 5" uni1ED3 dx=0 dy=0 dh=-19 dv=0 dx=0 dy=0 dh=0 dv=0
PairPos2: "'kern' Horizontal Kerning lookup 10 per glyph data 5" uni1ED1 dx=0 dy=0 dh=-19 dv=0 dx=0 dy=0 dh=0 dv=0
PairPos2: "'kern' Horizontal Kerning lookup 10 per glyph data 5" uni1ECF dx=0 dy=0 dh=-19 dv=0 dx=0 dy=0 dh=0 dv=0
PairPos2: "'kern' Horizontal Kerning lookup 10 per glyph data 5" uni1ECD dx=0 dy=0 dh=-19 dv=0 dx=0 dy=0 dh=0 dv=0
PairPos2: "'kern' Horizontal Kerning lookup 10 per glyph data 5" uni01D2 dx=0 dy=0 dh=-19 dv=0 dx=0 dy=0 dh=0 dv=0
PairPos2: "'kern' Horizontal Kerning lookup 10 per glyph data 5" ohungarumlaut dx=0 dy=0 dh=-19 dv=0 dx=0 dy=0 dh=0 dv=0
PairPos2: "'kern' Horizontal Kerning lookup 10 per glyph data 5" omacron dx=0 dy=0 dh=-19 dv=0 dx=0 dy=0 dh=0 dv=0
PairPos2: "'kern' Horizontal Kerning lookup 10 per glyph data 5" odieresis dx=0 dy=0 dh=-19 dv=0 dx=0 dy=0 dh=0 dv=0
PairPos2: "'kern' Horizontal Kerning lookup 10 per glyph data 5" otilde dx=0 dy=0 dh=-19 dv=0 dx=0 dy=0 dh=0 dv=0
PairPos2: "'kern' Horizontal Kerning lookup 10 per glyph data 5" ocircumflex dx=0 dy=0 dh=-19 dv=0 dx=0 dy=0 dh=0 dv=0
PairPos2: "'kern' Horizontal Kerning lookup 10 per glyph data 5" oacute dx=0 dy=0 dh=-19 dv=0 dx=0 dy=0 dh=0 dv=0
PairPos2: "'kern' Horizontal Kerning lookup 10 per glyph data 5" ograve dx=0 dy=0 dh=-19 dv=0 dx=0 dy=0 dh=0 dv=0
PairPos2: "'kern' Horizontal Kerning lookup 10 per glyph data 5" uni1E17 dx=0 dy=0 dh=-19 dv=0 dx=0 dy=0 dh=0 dv=0
PairPos2: "'kern' Horizontal Kerning lookup 10 per glyph data 5" eogonek dx=0 dy=0 dh=-19 dv=0 dx=0 dy=0 dh=0 dv=0
PairPos2: "'kern' Horizontal Kerning lookup 10 per glyph data 5" uni1EC7 dx=0 dy=0 dh=-19 dv=0 dx=0 dy=0 dh=0 dv=0
PairPos2: "'kern' Horizontal Kerning lookup 10 per glyph data 5" uni1EC5 dx=0 dy=0 dh=-19 dv=0 dx=0 dy=0 dh=0 dv=0
PairPos2: "'kern' Horizontal Kerning lookup 10 per glyph data 5" uni1EC3 dx=0 dy=0 dh=-19 dv=0 dx=0 dy=0 dh=0 dv=0
PairPos2: "'kern' Horizontal Kerning lookup 10 per glyph data 5" uni1EC1 dx=0 dy=0 dh=-19 dv=0 dx=0 dy=0 dh=0 dv=0
PairPos2: "'kern' Horizontal Kerning lookup 10 per glyph data 5" uni1EBF dx=0 dy=0 dh=-19 dv=0 dx=0 dy=0 dh=0 dv=0
PairPos2: "'kern' Horizontal Kerning lookup 10 per glyph data 5" uni1EBD dx=0 dy=0 dh=-19 dv=0 dx=0 dy=0 dh=0 dv=0
PairPos2: "'kern' Horizontal Kerning lookup 10 per glyph data 5" uni1EBB dx=0 dy=0 dh=-19 dv=0 dx=0 dy=0 dh=0 dv=0
PairPos2: "'kern' Horizontal Kerning lookup 10 per glyph data 5" uni1EB9 dx=0 dy=0 dh=-19 dv=0 dx=0 dy=0 dh=0 dv=0
PairPos2: "'kern' Horizontal Kerning lookup 10 per glyph data 5" edotaccent dx=0 dy=0 dh=-19 dv=0 dx=0 dy=0 dh=0 dv=0
PairPos2: "'kern' Horizontal Kerning lookup 10 per glyph data 5" ebreve dx=0 dy=0 dh=-19 dv=0 dx=0 dy=0 dh=0 dv=0
PairPos2: "'kern' Horizontal Kerning lookup 10 per glyph data 5" emacron dx=0 dy=0 dh=-19 dv=0 dx=0 dy=0 dh=0 dv=0
PairPos2: "'kern' Horizontal Kerning lookup 10 per glyph data 5" edieresis dx=0 dy=0 dh=-19 dv=0 dx=0 dy=0 dh=0 dv=0
PairPos2: "'kern' Horizontal Kerning lookup 10 per glyph data 5" ecaron dx=0 dy=0 dh=-19 dv=0 dx=0 dy=0 dh=0 dv=0
PairPos2: "'kern' Horizontal Kerning lookup 10 per glyph data 5" ecircumflex dx=0 dy=0 dh=-19 dv=0 dx=0 dy=0 dh=0 dv=0
PairPos2: "'kern' Horizontal Kerning lookup 10 per glyph data 5" eacute dx=0 dy=0 dh=-19 dv=0 dx=0 dy=0 dh=0 dv=0
PairPos2: "'kern' Horizontal Kerning lookup 10 per glyph data 5" egrave dx=0 dy=0 dh=-19 dv=0 dx=0 dy=0 dh=0 dv=0
PairPos2: "'kern' Horizontal Kerning lookup 10 per glyph data 5" dcroat dx=0 dy=0 dh=-19 dv=0 dx=0 dy=0 dh=0 dv=0
PairPos2: "'kern' Horizontal Kerning lookup 10 per glyph data 5" uni1E0F dx=0 dy=0 dh=-19 dv=0 dx=0 dy=0 dh=0 dv=0
PairPos2: "'kern' Horizontal Kerning lookup 10 per glyph data 5" uni1E0D dx=0 dy=0 dh=-19 dv=0 dx=0 dy=0 dh=0 dv=0
PairPos2: "'kern' Horizontal Kerning lookup 10 per glyph data 5" dcaron dx=0 dy=0 dh=-19 dv=0 dx=0 dy=0 dh=0 dv=0
PairPos2: "'kern' Horizontal Kerning lookup 10 per glyph data 5" cdotaccent dx=0 dy=0 dh=-19 dv=0 dx=0 dy=0 dh=0 dv=0
PairPos2: "'kern' Horizontal Kerning lookup 10 per glyph data 5" ccaron dx=0 dy=0 dh=-19 dv=0 dx=0 dy=0 dh=0 dv=0
PairPos2: "'kern' Horizontal Kerning lookup 10 per glyph data 5" ccircumflex dx=0 dy=0 dh=-19 dv=0 dx=0 dy=0 dh=0 dv=0
PairPos2: "'kern' Horizontal Kerning lookup 10 per glyph data 5" cacute dx=0 dy=0 dh=-19 dv=0 dx=0 dy=0 dh=0 dv=0
PairPos2: "'kern' Horizontal Kerning lookup 10 per glyph data 5" ccedilla dx=0 dy=0 dh=-19 dv=0 dx=0 dy=0 dh=0 dv=0
PairPos2: "'kern' Horizontal Kerning lookup 10 per glyph data 5" q dx=0 dy=0 dh=-19 dv=0 dx=0 dy=0 dh=0 dv=0
PairPos2: "'kern' Horizontal Kerning lookup 10 per glyph data 5" o dx=0 dy=0 dh=-19 dv=0 dx=0 dy=0 dh=0 dv=0
PairPos2: "'kern' Horizontal Kerning lookup 10 per glyph data 5" e dx=0 dy=0 dh=-19 dv=0 dx=0 dy=0 dh=0 dv=0
PairPos2: "'kern' Horizontal Kerning lookup 10 per glyph data 5" d dx=0 dy=0 dh=-19 dv=0 dx=0 dy=0 dh=0 dv=0
PairPos2: "'kern' Horizontal Kerning lookup 10 per glyph data 5" c dx=0 dy=0 dh=-19 dv=0 dx=0 dy=0 dh=0 dv=0
PairPos2: "'kern' Horizontal Kerning lookup 10 per glyph data 5" uni00670303 dx=0 dy=0 dh=-13 dv=0 dx=0 dy=0 dh=0 dv=0
PairPos2: "'kern' Horizontal Kerning lookup 10 per glyph data 5" uni1E21 dx=0 dy=0 dh=-13 dv=0 dx=0 dy=0 dh=0 dv=0
PairPos2: "'kern' Horizontal Kerning lookup 10 per glyph data 5" gcaron dx=0 dy=0 dh=-13 dv=0 dx=0 dy=0 dh=0 dv=0
PairPos2: "'kern' Horizontal Kerning lookup 10 per glyph data 5" uni0123 dx=0 dy=0 dh=-13 dv=0 dx=0 dy=0 dh=0 dv=0
PairPos2: "'kern' Horizontal Kerning lookup 10 per glyph data 5" gdotaccent dx=0 dy=0 dh=-13 dv=0 dx=0 dy=0 dh=0 dv=0
PairPos2: "'kern' Horizontal Kerning lookup 10 per glyph data 5" gbreve dx=0 dy=0 dh=-13 dv=0 dx=0 dy=0 dh=0 dv=0
PairPos2: "'kern' Horizontal Kerning lookup 10 per glyph data 5" gcircumflex dx=0 dy=0 dh=-13 dv=0 dx=0 dy=0 dh=0 dv=0
PairPos2: "'kern' Horizontal Kerning lookup 10 per glyph data 5" uni01F5 dx=0 dy=0 dh=-13 dv=0 dx=0 dy=0 dh=0 dv=0
PairPos2: "'kern' Horizontal Kerning lookup 10 per glyph data 5" g dx=0 dy=0 dh=-13 dv=0 dx=0 dy=0 dh=0 dv=0
PairPos2: "'kern' Horizontal Kerning lookup 10 per glyph data 5" uni1E62 dx=0 dy=0 dh=-30 dv=0 dx=0 dy=0 dh=0 dv=0
PairPos2: "'kern' Horizontal Kerning lookup 10 per glyph data 5" uni1E60 dx=0 dy=0 dh=-30 dv=0 dx=0 dy=0 dh=0 dv=0
PairPos2: "'kern' Horizontal Kerning lookup 10 per glyph data 5" uni0218 dx=0 dy=0 dh=-30 dv=0 dx=0 dy=0 dh=0 dv=0
PairPos2: "'kern' Horizontal Kerning lookup 10 per glyph data 5" uni015E dx=0 dy=0 dh=-30 dv=0 dx=0 dy=0 dh=0 dv=0
PairPos2: "'kern' Horizontal Kerning lookup 10 per glyph data 5" Scaron dx=0 dy=0 dh=-30 dv=0 dx=0 dy=0 dh=0 dv=0
PairPos2: "'kern' Horizontal Kerning lookup 10 per glyph data 5" Scircumflex dx=0 dy=0 dh=-30 dv=0 dx=0 dy=0 dh=0 dv=0
PairPos2: "'kern' Horizontal Kerning lookup 10 per glyph data 5" Sacute dx=0 dy=0 dh=-30 dv=0 dx=0 dy=0 dh=0 dv=0
PairPos2: "'kern' Horizontal Kerning lookup 10 per glyph data 5" S dx=0 dy=0 dh=-30 dv=0 dx=0 dy=0 dh=0 dv=0
PairPos2: "'kern' Horizontal Kerning lookup 10 per glyph data 5" Jcircumflex dx=0 dy=0 dh=-30 dv=0 dx=0 dy=0 dh=0 dv=0
PairPos2: "'kern' Horizontal Kerning lookup 10 per glyph data 5" J dx=0 dy=0 dh=-30 dv=0 dx=0 dy=0 dh=0 dv=0
PairPos2: "'kern' Horizontal Kerning lookup 10 per glyph data 5" trademark dx=0 dy=0 dh=20 dv=0 dx=0 dy=0 dh=0 dv=0
PairPos2: "'kern' Horizontal Kerning lookup 10 per glyph data 5" registered dx=0 dy=0 dh=20 dv=0 dx=0 dy=0 dh=0 dv=0
PairPos2: "'kern' Horizontal Kerning lookup 10 per glyph data 5" uni1E94 dx=0 dy=0 dh=-15 dv=0 dx=0 dy=0 dh=0 dv=0
PairPos2: "'kern' Horizontal Kerning lookup 10 per glyph data 5" uni1E92 dx=0 dy=0 dh=-15 dv=0 dx=0 dy=0 dh=0 dv=0
PairPos2: "'kern' Horizontal Kerning lookup 10 per glyph data 5" Zdotaccent dx=0 dy=0 dh=-15 dv=0 dx=0 dy=0 dh=0 dv=0
PairPos2: "'kern' Horizontal Kerning lookup 10 per glyph data 5" Zcaron dx=0 dy=0 dh=-15 dv=0 dx=0 dy=0 dh=0 dv=0
PairPos2: "'kern' Horizontal Kerning lookup 10 per glyph data 5" Zacute dx=0 dy=0 dh=-15 dv=0 dx=0 dy=0 dh=0 dv=0
PairPos2: "'kern' Horizontal Kerning lookup 10 per glyph data 5" Z dx=0 dy=0 dh=-15 dv=0 dx=0 dy=0 dh=0 dv=0
PairPos2: "'kern' Horizontal Kerning lookup 10 per glyph data 5" uni0263 dx=0 dy=0 dh=-15 dv=0 dx=0 dy=0 dh=0 dv=0
PairPos2: "'kern' Horizontal Kerning lookup 10 per glyph data 5" uni1EF9 dx=0 dy=0 dh=-15 dv=0 dx=0 dy=0 dh=0 dv=0
PairPos2: "'kern' Horizontal Kerning lookup 10 per glyph data 5" uni1EF7 dx=0 dy=0 dh=-15 dv=0 dx=0 dy=0 dh=0 dv=0
PairPos2: "'kern' Horizontal Kerning lookup 10 per glyph data 5" uni1EF5 dx=0 dy=0 dh=-15 dv=0 dx=0 dy=0 dh=0 dv=0
PairPos2: "'kern' Horizontal Kerning lookup 10 per glyph data 5" uni1E8F dx=0 dy=0 dh=-15 dv=0 dx=0 dy=0 dh=0 dv=0
PairPos2: "'kern' Horizontal Kerning lookup 10 per glyph data 5" ydieresis dx=0 dy=0 dh=-15 dv=0 dx=0 dy=0 dh=0 dv=0
PairPos2: "'kern' Horizontal Kerning lookup 10 per glyph data 5" ycircumflex dx=0 dy=0 dh=-15 dv=0 dx=0 dy=0 dh=0 dv=0
PairPos2: "'kern' Horizontal Kerning lookup 10 per glyph data 5" yacute dx=0 dy=0 dh=-15 dv=0 dx=0 dy=0 dh=0 dv=0
PairPos2: "'kern' Horizontal Kerning lookup 10 per glyph data 5" ygrave dx=0 dy=0 dh=-15 dv=0 dx=0 dy=0 dh=0 dv=0
PairPos2: "'kern' Horizontal Kerning lookup 10 per glyph data 5" y dx=0 dy=0 dh=-15 dv=0 dx=0 dy=0 dh=0 dv=0
PairPos2: "'kern' Horizontal Kerning lookup 10 per glyph data 5" x dx=0 dy=0 dh=-25 dv=0 dx=0 dy=0 dh=0 dv=0
PairPos2: "'kern' Horizontal Kerning lookup 10 per glyph data 5" wdieresis dx=0 dy=0 dh=-15 dv=0 dx=0 dy=0 dh=0 dv=0
PairPos2: "'kern' Horizontal Kerning lookup 10 per glyph data 5" wcircumflex dx=0 dy=0 dh=-15 dv=0 dx=0 dy=0 dh=0 dv=0
PairPos2: "'kern' Horizontal Kerning lookup 10 per glyph data 5" wacute dx=0 dy=0 dh=-15 dv=0 dx=0 dy=0 dh=0 dv=0
PairPos2: "'kern' Horizontal Kerning lookup 10 per glyph data 5" wgrave dx=0 dy=0 dh=-15 dv=0 dx=0 dy=0 dh=0 dv=0
PairPos2: "'kern' Horizontal Kerning lookup 10 per glyph data 5" w dx=0 dy=0 dh=-15 dv=0 dx=0 dy=0 dh=0 dv=0
PairPos2: "'kern' Horizontal Kerning lookup 10 per glyph data 5" v dx=0 dy=0 dh=-15 dv=0 dx=0 dy=0 dh=0 dv=0
PairPos2: "'kern' Horizontal Kerning lookup 10 per glyph data 5" uni1EF0 dx=0 dy=0 dh=-10 dv=0 dx=0 dy=0 dh=0 dv=0
PairPos2: "'kern' Horizontal Kerning lookup 10 per glyph data 5" uni1EEE dx=0 dy=0 dh=-10 dv=0 dx=0 dy=0 dh=0 dv=0
PairPos2: "'kern' Horizontal Kerning lookup 10 per glyph data 5" uni1EEC dx=0 dy=0 dh=-10 dv=0 dx=0 dy=0 dh=0 dv=0
PairPos2: "'kern' Horizontal Kerning lookup 10 per glyph data 5" uni1EEA dx=0 dy=0 dh=-10 dv=0 dx=0 dy=0 dh=0 dv=0
PairPos2: "'kern' Horizontal Kerning lookup 10 per glyph data 5" uni1EE8 dx=0 dy=0 dh=-10 dv=0 dx=0 dy=0 dh=0 dv=0
PairPos2: "'kern' Horizontal Kerning lookup 10 per glyph data 5" Uhorn dx=0 dy=0 dh=-10 dv=0 dx=0 dy=0 dh=0 dv=0
PairPos2: "'kern' Horizontal Kerning lookup 10 per glyph data 5" Uogonek dx=0 dy=0 dh=-10 dv=0 dx=0 dy=0 dh=0 dv=0
PairPos2: "'kern' Horizontal Kerning lookup 10 per glyph data 5" uni1EE6 dx=0 dy=0 dh=-10 dv=0 dx=0 dy=0 dh=0 dv=0
PairPos2: "'kern' Horizontal Kerning lookup 10 per glyph data 5" uni1EE4 dx=0 dy=0 dh=-10 dv=0 dx=0 dy=0 dh=0 dv=0
PairPos2: "'kern' Horizontal Kerning lookup 10 per glyph data 5" uni01DB dx=0 dy=0 dh=-10 dv=0 dx=0 dy=0 dh=0 dv=0
PairPos2: "'kern' Horizontal Kerning lookup 10 per glyph data 5" uni01D9 dx=0 dy=0 dh=-10 dv=0 dx=0 dy=0 dh=0 dv=0
PairPos2: "'kern' Horizontal Kerning lookup 10 per glyph data 5" uni01D7 dx=0 dy=0 dh=-10 dv=0 dx=0 dy=0 dh=0 dv=0
PairPos2: "'kern' Horizontal Kerning lookup 10 per glyph data 5" uni01D5 dx=0 dy=0 dh=-10 dv=0 dx=0 dy=0 dh=0 dv=0
PairPos2: "'kern' Horizontal Kerning lookup 10 per glyph data 5" uni01D3 dx=0 dy=0 dh=-10 dv=0 dx=0 dy=0 dh=0 dv=0
PairPos2: "'kern' Horizontal Kerning lookup 10 per glyph data 5" Uhungarumlaut dx=0 dy=0 dh=-10 dv=0 dx=0 dy=0 dh=0 dv=0
PairPos2: "'kern' Horizontal Kerning lookup 10 per glyph data 5" Uring dx=0 dy=0 dh=-10 dv=0 dx=0 dy=0 dh=0 dv=0
PairPos2: "'kern' Horizontal Kerning lookup 10 per glyph data 5" Ubreve dx=0 dy=0 dh=-10 dv=0 dx=0 dy=0 dh=0 dv=0
PairPos2: "'kern' Horizontal Kerning lookup 10 per glyph data 5" Umacron dx=0 dy=0 dh=-10 dv=0 dx=0 dy=0 dh=0 dv=0
PairPos2: "'kern' Horizontal Kerning lookup 10 per glyph data 5" Udieresis dx=0 dy=0 dh=-10 dv=0 dx=0 dy=0 dh=0 dv=0
PairPos2: "'kern' Horizontal Kerning lookup 10 per glyph data 5" Utilde dx=0 dy=0 dh=-10 dv=0 dx=0 dy=0 dh=0 dv=0
PairPos2: "'kern' Horizontal Kerning lookup 10 per glyph data 5" Ucircumflex dx=0 dy=0 dh=-10 dv=0 dx=0 dy=0 dh=0 dv=0
PairPos2: "'kern' Horizontal Kerning lookup 10 per glyph data 5" Uacute dx=0 dy=0 dh=-10 dv=0 dx=0 dy=0 dh=0 dv=0
PairPos2: "'kern' Horizontal Kerning lookup 10 per glyph data 5" Ugrave dx=0 dy=0 dh=-10 dv=0 dx=0 dy=0 dh=0 dv=0
PairPos2: "'kern' Horizontal Kerning lookup 10 per glyph data 5" U dx=0 dy=0 dh=-10 dv=0 dx=0 dy=0 dh=0 dv=0
PairPos2: "'kern' Horizontal Kerning lookup 10 per glyph data 5" uni028B dx=0 dy=0 dh=-20 dv=0 dx=0 dy=0 dh=0 dv=0
PairPos2: "'kern' Horizontal Kerning lookup 10 per glyph data 5" uni0270 dx=0 dy=0 dh=-20 dv=0 dx=0 dy=0 dh=0 dv=0
PairPos2: "'kern' Horizontal Kerning lookup 10 per glyph data 5" uni026F dx=0 dy=0 dh=-20 dv=0 dx=0 dy=0 dh=0 dv=0
PairPos2: "'kern' Horizontal Kerning lookup 10 per glyph data 5" uni0265 dx=0 dy=0 dh=-20 dv=0 dx=0 dy=0 dh=0 dv=0
PairPos2: "'kern' Horizontal Kerning lookup 10 per glyph data 5" uni0250 dx=0 dy=0 dh=-20 dv=0 dx=0 dy=0 dh=0 dv=0
PairPos2: "'kern' Horizontal Kerning lookup 10 per glyph data 5" uni1EF1 dx=0 dy=0 dh=-20 dv=0 dx=0 dy=0 dh=0 dv=0
PairPos2: "'kern' Horizontal Kerning lookup 10 per glyph data 5" uni1EEF dx=0 dy=0 dh=-20 dv=0 dx=0 dy=0 dh=0 dv=0
PairPos2: "'kern' Horizontal Kerning lookup 10 per glyph data 5" uni1EED dx=0 dy=0 dh=-20 dv=0 dx=0 dy=0 dh=0 dv=0
PairPos2: "'kern' Horizontal Kerning lookup 10 per glyph data 5" uni1EEB dx=0 dy=0 dh=-20 dv=0 dx=0 dy=0 dh=0 dv=0
PairPos2: "'kern' Horizontal Kerning lookup 10 per glyph data 5" uni1EE9 dx=0 dy=0 dh=-20 dv=0 dx=0 dy=0 dh=0 dv=0
PairPos2: "'kern' Horizontal Kerning lookup 10 per glyph data 5" uhorn dx=0 dy=0 dh=-20 dv=0 dx=0 dy=0 dh=0 dv=0
PairPos2: "'kern' Horizontal Kerning lookup 10 per glyph data 5" uogonek dx=0 dy=0 dh=-20 dv=0 dx=0 dy=0 dh=0 dv=0
PairPos2: "'kern' Horizontal Kerning lookup 10 per glyph data 5" uni1EE7 dx=0 dy=0 dh=-20 dv=0 dx=0 dy=0 dh=0 dv=0
PairPos2: "'kern' Horizontal Kerning lookup 10 per glyph data 5" uni1EE5 dx=0 dy=0 dh=-20 dv=0 dx=0 dy=0 dh=0 dv=0
PairPos2: "'kern' Horizontal Kerning lookup 10 per glyph data 5" uni01DC dx=0 dy=0 dh=-20 dv=0 dx=0 dy=0 dh=0 dv=0
PairPos2: "'kern' Horizontal Kerning lookup 10 per glyph data 5" uni01DA dx=0 dy=0 dh=-20 dv=0 dx=0 dy=0 dh=0 dv=0
PairPos2: "'kern' Horizontal Kerning lookup 10 per glyph data 5" uni01D8 dx=0 dy=0 dh=-20 dv=0 dx=0 dy=0 dh=0 dv=0
PairPos2: "'kern' Horizontal Kerning lookup 10 per glyph data 5" uni01D6 dx=0 dy=0 dh=-20 dv=0 dx=0 dy=0 dh=0 dv=0
PairPos2: "'kern' Horizontal Kerning lookup 10 per glyph data 5" uni01D4 dx=0 dy=0 dh=-20 dv=0 dx=0 dy=0 dh=0 dv=0
PairPos2: "'kern' Horizontal Kerning lookup 10 per glyph data 5" uhungarumlaut dx=0 dy=0 dh=-20 dv=0 dx=0 dy=0 dh=0 dv=0
PairPos2: "'kern' Horizontal Kerning lookup 10 per glyph data 5" uring dx=0 dy=0 dh=-20 dv=0 dx=0 dy=0 dh=0 dv=0
PairPos2: "'kern' Horizontal Kerning lookup 10 per glyph data 5" ubreve dx=0 dy=0 dh=-20 dv=0 dx=0 dy=0 dh=0 dv=0
PairPos2: "'kern' Horizontal Kerning lookup 10 per glyph data 5" umacron dx=0 dy=0 dh=-20 dv=0 dx=0 dy=0 dh=0 dv=0
PairPos2: "'kern' Horizontal Kerning lookup 10 per glyph data 5" udieresis dx=0 dy=0 dh=-20 dv=0 dx=0 dy=0 dh=0 dv=0
PairPos2: "'kern' Horizontal Kerning lookup 10 per glyph data 5" utilde dx=0 dy=0 dh=-20 dv=0 dx=0 dy=0 dh=0 dv=0
PairPos2: "'kern' Horizontal Kerning lookup 10 per glyph data 5" ucircumflex dx=0 dy=0 dh=-20 dv=0 dx=0 dy=0 dh=0 dv=0
PairPos2: "'kern' Horizontal Kerning lookup 10 per glyph data 5" uacute dx=0 dy=0 dh=-20 dv=0 dx=0 dy=0 dh=0 dv=0
PairPos2: "'kern' Horizontal Kerning lookup 10 per glyph data 5" ugrave dx=0 dy=0 dh=-20 dv=0 dx=0 dy=0 dh=0 dv=0
PairPos2: "'kern' Horizontal Kerning lookup 10 per glyph data 5" u dx=0 dy=0 dh=-20 dv=0 dx=0 dy=0 dh=0 dv=0
PairPos2: "'kern' Horizontal Kerning lookup 10 per glyph data 5" uni01EA dx=0 dy=0 dh=-20 dv=0 dx=0 dy=0 dh=0 dv=0
PairPos2: "'kern' Horizontal Kerning lookup 10 per glyph data 5" uni1EE2 dx=0 dy=0 dh=-20 dv=0 dx=0 dy=0 dh=0 dv=0
PairPos2: "'kern' Horizontal Kerning lookup 10 per glyph data 5" uni1EE0 dx=0 dy=0 dh=-20 dv=0 dx=0 dy=0 dh=0 dv=0
PairPos2: "'kern' Horizontal Kerning lookup 10 per glyph data 5" uni1EDE dx=0 dy=0 dh=-20 dv=0 dx=0 dy=0 dh=0 dv=0
PairPos2: "'kern' Horizontal Kerning lookup 10 per glyph data 5" uni1EDC dx=0 dy=0 dh=-20 dv=0 dx=0 dy=0 dh=0 dv=0
PairPos2: "'kern' Horizontal Kerning lookup 10 per glyph data 5" uni1EDA dx=0 dy=0 dh=-20 dv=0 dx=0 dy=0 dh=0 dv=0
PairPos2: "'kern' Horizontal Kerning lookup 10 per glyph data 5" Ohorn dx=0 dy=0 dh=-20 dv=0 dx=0 dy=0 dh=0 dv=0
PairPos2: "'kern' Horizontal Kerning lookup 10 per glyph data 5" OE dx=0 dy=0 dh=-20 dv=0 dx=0 dy=0 dh=0 dv=0
PairPos2: "'kern' Horizontal Kerning lookup 10 per glyph data 5" Oslash dx=0 dy=0 dh=-20 dv=0 dx=0 dy=0 dh=0 dv=0
PairPos2: "'kern' Horizontal Kerning lookup 10 per glyph data 5" uni1E52 dx=0 dy=0 dh=-20 dv=0 dx=0 dy=0 dh=0 dv=0
PairPos2: "'kern' Horizontal Kerning lookup 10 per glyph data 5" uni014E dx=0 dy=0 dh=-20 dv=0 dx=0 dy=0 dh=0 dv=0
PairPos2: "'kern' Horizontal Kerning lookup 10 per glyph data 5" uni1ED8 dx=0 dy=0 dh=-20 dv=0 dx=0 dy=0 dh=0 dv=0
PairPos2: "'kern' Horizontal Kerning lookup 10 per glyph data 5" uni1ED6 dx=0 dy=0 dh=-20 dv=0 dx=0 dy=0 dh=0 dv=0
PairPos2: "'kern' Horizontal Kerning lookup 10 per glyph data 5" uni1ED4 dx=0 dy=0 dh=-20 dv=0 dx=0 dy=0 dh=0 dv=0
PairPos2: "'kern' Horizontal Kerning lookup 10 per glyph data 5" uni1ED2 dx=0 dy=0 dh=-20 dv=0 dx=0 dy=0 dh=0 dv=0
PairPos2: "'kern' Horizontal Kerning lookup 10 per glyph data 5" uni1ED0 dx=0 dy=0 dh=-20 dv=0 dx=0 dy=0 dh=0 dv=0
PairPos2: "'kern' Horizontal Kerning lookup 10 per glyph data 5" uni1ECE dx=0 dy=0 dh=-20 dv=0 dx=0 dy=0 dh=0 dv=0
PairPos2: "'kern' Horizontal Kerning lookup 10 per glyph data 5" uni1ECC dx=0 dy=0 dh=-20 dv=0 dx=0 dy=0 dh=0 dv=0
PairPos2: "'kern' Horizontal Kerning lookup 10 per glyph data 5" uni01D1 dx=0 dy=0 dh=-20 dv=0 dx=0 dy=0 dh=0 dv=0
PairPos2: "'kern' Horizontal Kerning lookup 10 per glyph data 5" Ohungarumlaut dx=0 dy=0 dh=-20 dv=0 dx=0 dy=0 dh=0 dv=0
PairPos2: "'kern' Horizontal Kerning lookup 10 per glyph data 5" Omacron dx=0 dy=0 dh=-20 dv=0 dx=0 dy=0 dh=0 dv=0
PairPos2: "'kern' Horizontal Kerning lookup 10 per glyph data 5" Odieresis dx=0 dy=0 dh=-20 dv=0 dx=0 dy=0 dh=0 dv=0
PairPos2: "'kern' Horizontal Kerning lookup 10 per glyph data 5" Otilde dx=0 dy=0 dh=-20 dv=0 dx=0 dy=0 dh=0 dv=0
PairPos2: "'kern' Horizontal Kerning lookup 10 per glyph data 5" Ocircumflex dx=0 dy=0 dh=-20 dv=0 dx=0 dy=0 dh=0 dv=0
PairPos2: "'kern' Horizontal Kerning lookup 10 per glyph data 5" Oacute dx=0 dy=0 dh=-20 dv=0 dx=0 dy=0 dh=0 dv=0
PairPos2: "'kern' Horizontal Kerning lookup 10 per glyph data 5" Ograve dx=0 dy=0 dh=-20 dv=0 dx=0 dy=0 dh=0 dv=0
PairPos2: "'kern' Horizontal Kerning lookup 10 per glyph data 5" uni0193 dx=0 dy=0 dh=-20 dv=0 dx=0 dy=0 dh=0 dv=0
PairPos2: "'kern' Horizontal Kerning lookup 10 per glyph data 5" uni00470303 dx=0 dy=0 dh=-20 dv=0 dx=0 dy=0 dh=0 dv=0
PairPos2: "'kern' Horizontal Kerning lookup 10 per glyph data 5" uni1E20 dx=0 dy=0 dh=-20 dv=0 dx=0 dy=0 dh=0 dv=0
PairPos2: "'kern' Horizontal Kerning lookup 10 per glyph data 5" Gcaron dx=0 dy=0 dh=-20 dv=0 dx=0 dy=0 dh=0 dv=0
PairPos2: "'kern' Horizontal Kerning lookup 10 per glyph data 5" uni0122 dx=0 dy=0 dh=-20 dv=0 dx=0 dy=0 dh=0 dv=0
PairPos2: "'kern' Horizontal Kerning lookup 10 per glyph data 5" Gdotaccent dx=0 dy=0 dh=-20 dv=0 dx=0 dy=0 dh=0 dv=0
PairPos2: "'kern' Horizontal Kerning lookup 10 per glyph data 5" Gbreve dx=0 dy=0 dh=-20 dv=0 dx=0 dy=0 dh=0 dv=0
PairPos2: "'kern' Horizontal Kerning lookup 10 per glyph data 5" Gcircumflex dx=0 dy=0 dh=-20 dv=0 dx=0 dy=0 dh=0 dv=0
PairPos2: "'kern' Horizontal Kerning lookup 10 per glyph data 5" uni01F4 dx=0 dy=0 dh=-20 dv=0 dx=0 dy=0 dh=0 dv=0
PairPos2: "'kern' Horizontal Kerning lookup 10 per glyph data 5" Cdotaccent dx=0 dy=0 dh=-20 dv=0 dx=0 dy=0 dh=0 dv=0
PairPos2: "'kern' Horizontal Kerning lookup 10 per glyph data 5" Ccaron dx=0 dy=0 dh=-20 dv=0 dx=0 dy=0 dh=0 dv=0
PairPos2: "'kern' Horizontal Kerning lookup 10 per glyph data 5" Ccircumflex dx=0 dy=0 dh=-20 dv=0 dx=0 dy=0 dh=0 dv=0
PairPos2: "'kern' Horizontal Kerning lookup 10 per glyph data 5" Cacute dx=0 dy=0 dh=-20 dv=0 dx=0 dy=0 dh=0 dv=0
PairPos2: "'kern' Horizontal Kerning lookup 10 per glyph data 5" Ccedilla dx=0 dy=0 dh=-20 dv=0 dx=0 dy=0 dh=0 dv=0
PairPos2: "'kern' Horizontal Kerning lookup 10 per glyph data 5" Q dx=0 dy=0 dh=-20 dv=0 dx=0 dy=0 dh=0 dv=0
PairPos2: "'kern' Horizontal Kerning lookup 10 per glyph data 5" O dx=0 dy=0 dh=-20 dv=0 dx=0 dy=0 dh=0 dv=0
PairPos2: "'kern' Horizontal Kerning lookup 10 per glyph data 5" G dx=0 dy=0 dh=-20 dv=0 dx=0 dy=0 dh=0 dv=0
PairPos2: "'kern' Horizontal Kerning lookup 10 per glyph data 5" C dx=0 dy=0 dh=-20 dv=0 dx=0 dy=0 dh=0 dv=0
PairPos2: "'kern' Horizontal Kerning lookup 10 per glyph data 5" uni1E52.sc dx=0 dy=0 dh=-15 dv=0 dx=0 dy=0 dh=0 dv=0
PairPos2: "'kern' Horizontal Kerning lookup 10 per glyph data 5" uni014E.sc dx=0 dy=0 dh=-15 dv=0 dx=0 dy=0 dh=0 dv=0
PairPos2: "'kern' Horizontal Kerning lookup 10 per glyph data 5" uni01EA.sc dx=0 dy=0 dh=-15 dv=0 dx=0 dy=0 dh=0 dv=0
PairPos2: "'kern' Horizontal Kerning lookup 10 per glyph data 5" uni1EE2.sc dx=0 dy=0 dh=-15 dv=0 dx=0 dy=0 dh=0 dv=0
PairPos2: "'kern' Horizontal Kerning lookup 10 per glyph data 5" uni1EE0.sc dx=0 dy=0 dh=-15 dv=0 dx=0 dy=0 dh=0 dv=0
PairPos2: "'kern' Horizontal Kerning lookup 10 per glyph data 5" uni1EDE.sc dx=0 dy=0 dh=-15 dv=0 dx=0 dy=0 dh=0 dv=0
PairPos2: "'kern' Horizontal Kerning lookup 10 per glyph data 5" uni1EDC.sc dx=0 dy=0 dh=-15 dv=0 dx=0 dy=0 dh=0 dv=0
PairPos2: "'kern' Horizontal Kerning lookup 10 per glyph data 5" uni1EDA.sc dx=0 dy=0 dh=-15 dv=0 dx=0 dy=0 dh=0 dv=0
PairPos2: "'kern' Horizontal Kerning lookup 10 per glyph data 5" Ohorn.sc dx=0 dy=0 dh=-15 dv=0 dx=0 dy=0 dh=0 dv=0
PairPos2: "'kern' Horizontal Kerning lookup 10 per glyph data 5" OE.sc dx=0 dy=0 dh=-15 dv=0 dx=0 dy=0 dh=0 dv=0
PairPos2: "'kern' Horizontal Kerning lookup 10 per glyph data 5" Oslash.sc dx=0 dy=0 dh=-15 dv=0 dx=0 dy=0 dh=0 dv=0
PairPos2: "'kern' Horizontal Kerning lookup 10 per glyph data 5" uni1ED8.sc dx=0 dy=0 dh=-15 dv=0 dx=0 dy=0 dh=0 dv=0
PairPos2: "'kern' Horizontal Kerning lookup 10 per glyph data 5" uni1ED6.sc dx=0 dy=0 dh=-15 dv=0 dx=0 dy=0 dh=0 dv=0
PairPos2: "'kern' Horizontal Kerning lookup 10 per glyph data 5" uni1ED4.sc dx=0 dy=0 dh=-15 dv=0 dx=0 dy=0 dh=0 dv=0
PairPos2: "'kern' Horizontal Kerning lookup 10 per glyph data 5" uni1ED2.sc dx=0 dy=0 dh=-15 dv=0 dx=0 dy=0 dh=0 dv=0
PairPos2: "'kern' Horizontal Kerning lookup 10 per glyph data 5" uni1ED0.sc dx=0 dy=0 dh=-15 dv=0 dx=0 dy=0 dh=0 dv=0
PairPos2: "'kern' Horizontal Kerning lookup 10 per glyph data 5" uni1ECE.sc dx=0 dy=0 dh=-15 dv=0 dx=0 dy=0 dh=0 dv=0
PairPos2: "'kern' Horizontal Kerning lookup 10 per glyph data 5" uni1ECC.sc dx=0 dy=0 dh=-15 dv=0 dx=0 dy=0 dh=0 dv=0
PairPos2: "'kern' Horizontal Kerning lookup 10 per glyph data 5" uni01D1.sc dx=0 dy=0 dh=-15 dv=0 dx=0 dy=0 dh=0 dv=0
PairPos2: "'kern' Horizontal Kerning lookup 10 per glyph data 5" Ohungarumlaut.sc dx=0 dy=0 dh=-15 dv=0 dx=0 dy=0 dh=0 dv=0
PairPos2: "'kern' Horizontal Kerning lookup 10 per glyph data 5" Omacron.sc dx=0 dy=0 dh=-15 dv=0 dx=0 dy=0 dh=0 dv=0
PairPos2: "'kern' Horizontal Kerning lookup 10 per glyph data 5" Odieresis.sc dx=0 dy=0 dh=-15 dv=0 dx=0 dy=0 dh=0 dv=0
PairPos2: "'kern' Horizontal Kerning lookup 10 per glyph data 5" Otilde.sc dx=0 dy=0 dh=-15 dv=0 dx=0 dy=0 dh=0 dv=0
PairPos2: "'kern' Horizontal Kerning lookup 10 per glyph data 5" Ocircumflex.sc dx=0 dy=0 dh=-15 dv=0 dx=0 dy=0 dh=0 dv=0
PairPos2: "'kern' Horizontal Kerning lookup 10 per glyph data 5" Oacute.sc dx=0 dy=0 dh=-15 dv=0 dx=0 dy=0 dh=0 dv=0
PairPos2: "'kern' Horizontal Kerning lookup 10 per glyph data 5" Ograve.sc dx=0 dy=0 dh=-15 dv=0 dx=0 dy=0 dh=0 dv=0
PairPos2: "'kern' Horizontal Kerning lookup 10 per glyph data 5" uni0193.sc dx=0 dy=0 dh=-15 dv=0 dx=0 dy=0 dh=0 dv=0
PairPos2: "'kern' Horizontal Kerning lookup 10 per glyph data 5" uni00470303.sc dx=0 dy=0 dh=-15 dv=0 dx=0 dy=0 dh=0 dv=0
PairPos2: "'kern' Horizontal Kerning lookup 10 per glyph data 5" uni1E20.sc dx=0 dy=0 dh=-15 dv=0 dx=0 dy=0 dh=0 dv=0
PairPos2: "'kern' Horizontal Kerning lookup 10 per glyph data 5" Gcaron.sc dx=0 dy=0 dh=-15 dv=0 dx=0 dy=0 dh=0 dv=0
PairPos2: "'kern' Horizontal Kerning lookup 10 per glyph data 5" uni0122.sc dx=0 dy=0 dh=-15 dv=0 dx=0 dy=0 dh=0 dv=0
PairPos2: "'kern' Horizontal Kerning lookup 10 per glyph data 5" Gdotaccent.sc dx=0 dy=0 dh=-15 dv=0 dx=0 dy=0 dh=0 dv=0
PairPos2: "'kern' Horizontal Kerning lookup 10 per glyph data 5" Gbreve.sc dx=0 dy=0 dh=-15 dv=0 dx=0 dy=0 dh=0 dv=0
PairPos2: "'kern' Horizontal Kerning lookup 10 per glyph data 5" Gcircumflex.sc dx=0 dy=0 dh=-15 dv=0 dx=0 dy=0 dh=0 dv=0
PairPos2: "'kern' Horizontal Kerning lookup 10 per glyph data 5" uni01F4.sc dx=0 dy=0 dh=-15 dv=0 dx=0 dy=0 dh=0 dv=0
PairPos2: "'kern' Horizontal Kerning lookup 10 per glyph data 5" Cdotaccent.sc dx=0 dy=0 dh=-15 dv=0 dx=0 dy=0 dh=0 dv=0
PairPos2: "'kern' Horizontal Kerning lookup 10 per glyph data 5" Ccaron.sc dx=0 dy=0 dh=-15 dv=0 dx=0 dy=0 dh=0 dv=0
PairPos2: "'kern' Horizontal Kerning lookup 10 per glyph data 5" Ccircumflex.sc dx=0 dy=0 dh=-15 dv=0 dx=0 dy=0 dh=0 dv=0
PairPos2: "'kern' Horizontal Kerning lookup 10 per glyph data 5" Cacute.sc dx=0 dy=0 dh=-15 dv=0 dx=0 dy=0 dh=0 dv=0
PairPos2: "'kern' Horizontal Kerning lookup 10 per glyph data 5" Ccedilla.sc dx=0 dy=0 dh=-15 dv=0 dx=0 dy=0 dh=0 dv=0
PairPos2: "'kern' Horizontal Kerning lookup 10 per glyph data 5" Q.sc dx=0 dy=0 dh=-15 dv=0 dx=0 dy=0 dh=0 dv=0
PairPos2: "'kern' Horizontal Kerning lookup 10 per glyph data 5" O.sc dx=0 dy=0 dh=-15 dv=0 dx=0 dy=0 dh=0 dv=0
PairPos2: "'kern' Horizontal Kerning lookup 10 per glyph data 5" G.sc dx=0 dy=0 dh=-15 dv=0 dx=0 dy=0 dh=0 dv=0
PairPos2: "'kern' Horizontal Kerning lookup 10 per glyph data 5" C.sc dx=0 dy=0 dh=-15 dv=0 dx=0 dy=0 dh=0 dv=0
PairPos2: "'kern' Horizontal Kerning lookup 10 per glyph data 5" fl dx=0 dy=0 dh=-20 dv=0 dx=0 dy=0 dh=0 dv=0
PairPos2: "'kern' Horizontal Kerning lookup 10 per glyph data 5" fi dx=0 dy=0 dh=-20 dv=0 dx=0 dy=0 dh=0 dv=0
PairPos2: "'kern' Horizontal Kerning lookup 10 per glyph data 5" fl.a dx=0 dy=0 dh=-20 dv=0 dx=0 dy=0 dh=0 dv=0
PairPos2: "'kern' Horizontal Kerning lookup 10 per glyph data 5" f_f_t dx=0 dy=0 dh=-20 dv=0 dx=0 dy=0 dh=0 dv=0
PairPos2: "'kern' Horizontal Kerning lookup 10 per glyph data 5" f_t dx=0 dy=0 dh=-20 dv=0 dx=0 dy=0 dh=0 dv=0
PairPos2: "'kern' Horizontal Kerning lookup 10 per glyph data 5" f_f dx=0 dy=0 dh=-20 dv=0 dx=0 dy=0 dh=0 dv=0
PairPos2: "'kern' Horizontal Kerning lookup 10 per glyph data 5" f dx=0 dy=0 dh=-20 dv=0 dx=0 dy=0 dh=0 dv=0
PairPos2: "'kern' Horizontal Kerning lookup 10 per glyph data 5" Aogonek dx=0 dy=0 dh=-5 dv=0 dx=0 dy=0 dh=0 dv=0
PairPos2: "'kern' Horizontal Kerning lookup 10 per glyph data 5" uni1EB6 dx=0 dy=0 dh=-5 dv=0 dx=0 dy=0 dh=0 dv=0
PairPos2: "'kern' Horizontal Kerning lookup 10 per glyph data 5" uni1EB4 dx=0 dy=0 dh=-5 dv=0 dx=0 dy=0 dh=0 dv=0
PairPos2: "'kern' Horizontal Kerning lookup 10 per glyph data 5" uni1EB2 dx=0 dy=0 dh=-5 dv=0 dx=0 dy=0 dh=0 dv=0
PairPos2: "'kern' Horizontal Kerning lookup 10 per glyph data 5" uni1EB0 dx=0 dy=0 dh=-5 dv=0 dx=0 dy=0 dh=0 dv=0
PairPos2: "'kern' Horizontal Kerning lookup 10 per glyph data 5" uni1EAE dx=0 dy=0 dh=-5 dv=0 dx=0 dy=0 dh=0 dv=0
PairPos2: "'kern' Horizontal Kerning lookup 10 per glyph data 5" uni1EAC dx=0 dy=0 dh=-5 dv=0 dx=0 dy=0 dh=0 dv=0
PairPos2: "'kern' Horizontal Kerning lookup 10 per glyph data 5" uni1EAA dx=0 dy=0 dh=-5 dv=0 dx=0 dy=0 dh=0 dv=0
PairPos2: "'kern' Horizontal Kerning lookup 10 per glyph data 5" uni1EA8 dx=0 dy=0 dh=-5 dv=0 dx=0 dy=0 dh=0 dv=0
PairPos2: "'kern' Horizontal Kerning lookup 10 per glyph data 5" uni1EA6 dx=0 dy=0 dh=-5 dv=0 dx=0 dy=0 dh=0 dv=0
PairPos2: "'kern' Horizontal Kerning lookup 10 per glyph data 5" uni1EA4 dx=0 dy=0 dh=-5 dv=0 dx=0 dy=0 dh=0 dv=0
PairPos2: "'kern' Horizontal Kerning lookup 10 per glyph data 5" uni1EA2 dx=0 dy=0 dh=-5 dv=0 dx=0 dy=0 dh=0 dv=0
PairPos2: "'kern' Horizontal Kerning lookup 10 per glyph data 5" uni1EA0 dx=0 dy=0 dh=-5 dv=0 dx=0 dy=0 dh=0 dv=0
PairPos2: "'kern' Horizontal Kerning lookup 10 per glyph data 5" uni01CD dx=0 dy=0 dh=-5 dv=0 dx=0 dy=0 dh=0 dv=0
PairPos2: "'kern' Horizontal Kerning lookup 10 per glyph data 5" Aring dx=0 dy=0 dh=-5 dv=0 dx=0 dy=0 dh=0 dv=0
PairPos2: "'kern' Horizontal Kerning lookup 10 per glyph data 5" Abreve dx=0 dy=0 dh=-5 dv=0 dx=0 dy=0 dh=0 dv=0
PairPos2: "'kern' Horizontal Kerning lookup 10 per glyph data 5" Amacron dx=0 dy=0 dh=-5 dv=0 dx=0 dy=0 dh=0 dv=0
PairPos2: "'kern' Horizontal Kerning lookup 10 per glyph data 5" Adieresis dx=0 dy=0 dh=-5 dv=0 dx=0 dy=0 dh=0 dv=0
PairPos2: "'kern' Horizontal Kerning lookup 10 per glyph data 5" Atilde dx=0 dy=0 dh=-5 dv=0 dx=0 dy=0 dh=0 dv=0
PairPos2: "'kern' Horizontal Kerning lookup 10 per glyph data 5" Acircumflex dx=0 dy=0 dh=-5 dv=0 dx=0 dy=0 dh=0 dv=0
PairPos2: "'kern' Horizontal Kerning lookup 10 per glyph data 5" Aacute dx=0 dy=0 dh=-5 dv=0 dx=0 dy=0 dh=0 dv=0
PairPos2: "'kern' Horizontal Kerning lookup 10 per glyph data 5" Agrave dx=0 dy=0 dh=-5 dv=0 dx=0 dy=0 dh=0 dv=0
PairPos2: "'kern' Horizontal Kerning lookup 10 per glyph data 5" A dx=0 dy=0 dh=-5 dv=0 dx=0 dy=0 dh=0 dv=0
PairPos2: "'kern' Horizontal Kerning lookup 10 per glyph data 5" uni01E3 dx=0 dy=0 dh=-15 dv=0 dx=0 dy=0 dh=0 dv=0
PairPos2: "'kern' Horizontal Kerning lookup 10 per glyph data 5" uni01FD dx=0 dy=0 dh=-15 dv=0 dx=0 dy=0 dh=0 dv=0
PairPos2: "'kern' Horizontal Kerning lookup 10 per glyph data 5" ae dx=0 dy=0 dh=-15 dv=0 dx=0 dy=0 dh=0 dv=0
PairPos2: "'kern' Horizontal Kerning lookup 10 per glyph data 5" aogonek dx=0 dy=0 dh=-15 dv=0 dx=0 dy=0 dh=0 dv=0
PairPos2: "'kern' Horizontal Kerning lookup 10 per glyph data 5" uni1EB7 dx=0 dy=0 dh=-15 dv=0 dx=0 dy=0 dh=0 dv=0
PairPos2: "'kern' Horizontal Kerning lookup 10 per glyph data 5" uni1EB5 dx=0 dy=0 dh=-15 dv=0 dx=0 dy=0 dh=0 dv=0
PairPos2: "'kern' Horizontal Kerning lookup 10 per glyph data 5" uni1EB3 dx=0 dy=0 dh=-15 dv=0 dx=0 dy=0 dh=0 dv=0
PairPos2: "'kern' Horizontal Kerning lookup 10 per glyph data 5" uni1EB1 dx=0 dy=0 dh=-15 dv=0 dx=0 dy=0 dh=0 dv=0
PairPos2: "'kern' Horizontal Kerning lookup 10 per glyph data 5" uni1EAF dx=0 dy=0 dh=-15 dv=0 dx=0 dy=0 dh=0 dv=0
PairPos2: "'kern' Horizontal Kerning lookup 10 per glyph data 5" uni1EAD dx=0 dy=0 dh=-15 dv=0 dx=0 dy=0 dh=0 dv=0
PairPos2: "'kern' Horizontal Kerning lookup 10 per glyph data 5" uni1EAB dx=0 dy=0 dh=-15 dv=0 dx=0 dy=0 dh=0 dv=0
PairPos2: "'kern' Horizontal Kerning lookup 10 per glyph data 5" uni1EA9 dx=0 dy=0 dh=-15 dv=0 dx=0 dy=0 dh=0 dv=0
PairPos2: "'kern' Horizontal Kerning lookup 10 per glyph data 5" uni1EA7 dx=0 dy=0 dh=-15 dv=0 dx=0 dy=0 dh=0 dv=0
PairPos2: "'kern' Horizontal Kerning lookup 10 per glyph data 5" uni1EA5 dx=0 dy=0 dh=-15 dv=0 dx=0 dy=0 dh=0 dv=0
PairPos2: "'kern' Horizontal Kerning lookup 10 per glyph data 5" uni1EA3 dx=0 dy=0 dh=-15 dv=0 dx=0 dy=0 dh=0 dv=0
PairPos2: "'kern' Horizontal Kerning lookup 10 per glyph data 5" uni1EA1 dx=0 dy=0 dh=-15 dv=0 dx=0 dy=0 dh=0 dv=0
PairPos2: "'kern' Horizontal Kerning lookup 10 per glyph data 5" uni01CE dx=0 dy=0 dh=-15 dv=0 dx=0 dy=0 dh=0 dv=0
PairPos2: "'kern' Horizontal Kerning lookup 10 per glyph data 5" aring dx=0 dy=0 dh=-15 dv=0 dx=0 dy=0 dh=0 dv=0
PairPos2: "'kern' Horizontal Kerning lookup 10 per glyph data 5" abreve dx=0 dy=0 dh=-15 dv=0 dx=0 dy=0 dh=0 dv=0
PairPos2: "'kern' Horizontal Kerning lookup 10 per glyph data 5" amacron dx=0 dy=0 dh=-15 dv=0 dx=0 dy=0 dh=0 dv=0
PairPos2: "'kern' Horizontal Kerning lookup 10 per glyph data 5" adieresis dx=0 dy=0 dh=-15 dv=0 dx=0 dy=0 dh=0 dv=0
PairPos2: "'kern' Horizontal Kerning lookup 10 per glyph data 5" atilde dx=0 dy=0 dh=-15 dv=0 dx=0 dy=0 dh=0 dv=0
PairPos2: "'kern' Horizontal Kerning lookup 10 per glyph data 5" acircumflex dx=0 dy=0 dh=-15 dv=0 dx=0 dy=0 dh=0 dv=0
PairPos2: "'kern' Horizontal Kerning lookup 10 per glyph data 5" aacute dx=0 dy=0 dh=-15 dv=0 dx=0 dy=0 dh=0 dv=0
PairPos2: "'kern' Horizontal Kerning lookup 10 per glyph data 5" agrave dx=0 dy=0 dh=-15 dv=0 dx=0 dy=0 dh=0 dv=0
PairPos2: "'kern' Horizontal Kerning lookup 10 per glyph data 5" a dx=0 dy=0 dh=-15 dv=0 dx=0 dy=0 dh=0 dv=0
PairPos2: "'kern' Horizontal Kerning lookup 10 per glyph data 5" periodcentered dx=0 dy=0 dh=-60 dv=0 dx=0 dy=0 dh=0 dv=0
PairPos2: "'kern' Horizontal Kerning lookup 10 per glyph data 5" V.sc dx=0 dy=0 dh=-10 dv=0 dx=0 dy=0 dh=0 dv=0
PairPos2: "'kern' Horizontal Kerning lookup 10 per glyph data 5" Aogonek.sc dx=0 dy=0 dh=10 dv=0 dx=0 dy=0 dh=0 dv=0
PairPos2: "'kern' Horizontal Kerning lookup 10 per glyph data 5" uni1EB6.sc dx=0 dy=0 dh=10 dv=0 dx=0 dy=0 dh=0 dv=0
PairPos2: "'kern' Horizontal Kerning lookup 10 per glyph data 5" uni1EB4.sc dx=0 dy=0 dh=10 dv=0 dx=0 dy=0 dh=0 dv=0
PairPos2: "'kern' Horizontal Kerning lookup 10 per glyph data 5" uni1EB2.sc dx=0 dy=0 dh=10 dv=0 dx=0 dy=0 dh=0 dv=0
PairPos2: "'kern' Horizontal Kerning lookup 10 per glyph data 5" uni1EB0.sc dx=0 dy=0 dh=10 dv=0 dx=0 dy=0 dh=0 dv=0
PairPos2: "'kern' Horizontal Kerning lookup 10 per glyph data 5" uni1EAE.sc dx=0 dy=0 dh=10 dv=0 dx=0 dy=0 dh=0 dv=0
PairPos2: "'kern' Horizontal Kerning lookup 10 per glyph data 5" uni1EAC.sc dx=0 dy=0 dh=10 dv=0 dx=0 dy=0 dh=0 dv=0
PairPos2: "'kern' Horizontal Kerning lookup 10 per glyph data 5" uni1EAA.sc dx=0 dy=0 dh=10 dv=0 dx=0 dy=0 dh=0 dv=0
PairPos2: "'kern' Horizontal Kerning lookup 10 per glyph data 5" uni1EA8.sc dx=0 dy=0 dh=10 dv=0 dx=0 dy=0 dh=0 dv=0
PairPos2: "'kern' Horizontal Kerning lookup 10 per glyph data 5" uni1EA6.sc dx=0 dy=0 dh=10 dv=0 dx=0 dy=0 dh=0 dv=0
PairPos2: "'kern' Horizontal Kerning lookup 10 per glyph data 5" uni1EA4.sc dx=0 dy=0 dh=10 dv=0 dx=0 dy=0 dh=0 dv=0
PairPos2: "'kern' Horizontal Kerning lookup 10 per glyph data 5" uni1EA2.sc dx=0 dy=0 dh=10 dv=0 dx=0 dy=0 dh=0 dv=0
PairPos2: "'kern' Horizontal Kerning lookup 10 per glyph data 5" uni1EA0.sc dx=0 dy=0 dh=10 dv=0 dx=0 dy=0 dh=0 dv=0
PairPos2: "'kern' Horizontal Kerning lookup 10 per glyph data 5" uni01CD.sc dx=0 dy=0 dh=10 dv=0 dx=0 dy=0 dh=0 dv=0
PairPos2: "'kern' Horizontal Kerning lookup 10 per glyph data 5" Aring.sc dx=0 dy=0 dh=10 dv=0 dx=0 dy=0 dh=0 dv=0
PairPos2: "'kern' Horizontal Kerning lookup 10 per glyph data 5" Abreve.sc dx=0 dy=0 dh=10 dv=0 dx=0 dy=0 dh=0 dv=0
PairPos2: "'kern' Horizontal Kerning lookup 10 per glyph data 5" Amacron.sc dx=0 dy=0 dh=10 dv=0 dx=0 dy=0 dh=0 dv=0
PairPos2: "'kern' Horizontal Kerning lookup 10 per glyph data 5" Adieresis.sc dx=0 dy=0 dh=10 dv=0 dx=0 dy=0 dh=0 dv=0
PairPos2: "'kern' Horizontal Kerning lookup 10 per glyph data 5" Atilde.sc dx=0 dy=0 dh=10 dv=0 dx=0 dy=0 dh=0 dv=0
PairPos2: "'kern' Horizontal Kerning lookup 10 per glyph data 5" Acircumflex.sc dx=0 dy=0 dh=10 dv=0 dx=0 dy=0 dh=0 dv=0
PairPos2: "'kern' Horizontal Kerning lookup 10 per glyph data 5" Aacute.sc dx=0 dy=0 dh=10 dv=0 dx=0 dy=0 dh=0 dv=0
PairPos2: "'kern' Horizontal Kerning lookup 10 per glyph data 5" Agrave.sc dx=0 dy=0 dh=10 dv=0 dx=0 dy=0 dh=0 dv=0
PairPos2: "'kern' Horizontal Kerning lookup 10 per glyph data 5" A.sc dx=0 dy=0 dh=10 dv=0 dx=0 dy=0 dh=0 dv=0
PairPos2: "'kern' Horizontal Kerning lookup 10 per glyph data 5" uni1EF8 dx=0 dy=0 dh=-15 dv=0 dx=0 dy=0 dh=0 dv=0
PairPos2: "'kern' Horizontal Kerning lookup 10 per glyph data 5" uni1EF6 dx=0 dy=0 dh=-15 dv=0 dx=0 dy=0 dh=0 dv=0
PairPos2: "'kern' Horizontal Kerning lookup 10 per glyph data 5" uni1EF4 dx=0 dy=0 dh=-15 dv=0 dx=0 dy=0 dh=0 dv=0
PairPos2: "'kern' Horizontal Kerning lookup 10 per glyph data 5" uni1E8E dx=0 dy=0 dh=-15 dv=0 dx=0 dy=0 dh=0 dv=0
PairPos2: "'kern' Horizontal Kerning lookup 10 per glyph data 5" Ydieresis dx=0 dy=0 dh=-15 dv=0 dx=0 dy=0 dh=0 dv=0
PairPos2: "'kern' Horizontal Kerning lookup 10 per glyph data 5" Ycircumflex dx=0 dy=0 dh=-15 dv=0 dx=0 dy=0 dh=0 dv=0
PairPos2: "'kern' Horizontal Kerning lookup 10 per glyph data 5" Yacute dx=0 dy=0 dh=-15 dv=0 dx=0 dy=0 dh=0 dv=0
PairPos2: "'kern' Horizontal Kerning lookup 10 per glyph data 5" Ygrave dx=0 dy=0 dh=-15 dv=0 dx=0 dy=0 dh=0 dv=0
PairPos2: "'kern' Horizontal Kerning lookup 10 per glyph data 5" Y dx=0 dy=0 dh=-15 dv=0 dx=0 dy=0 dh=0 dv=0
PairPos2: "'kern' Horizontal Kerning lookup 10 per glyph data 5" Wdieresis dx=0 dy=0 dh=-5 dv=0 dx=0 dy=0 dh=0 dv=0
PairPos2: "'kern' Horizontal Kerning lookup 10 per glyph data 5" Wcircumflex dx=0 dy=0 dh=-5 dv=0 dx=0 dy=0 dh=0 dv=0
PairPos2: "'kern' Horizontal Kerning lookup 10 per glyph data 5" Wacute dx=0 dy=0 dh=-5 dv=0 dx=0 dy=0 dh=0 dv=0
PairPos2: "'kern' Horizontal Kerning lookup 10 per glyph data 5" Wgrave dx=0 dy=0 dh=-5 dv=0 dx=0 dy=0 dh=0 dv=0
PairPos2: "'kern' Horizontal Kerning lookup 10 per glyph data 5" W dx=0 dy=0 dh=-5 dv=0 dx=0 dy=0 dh=0 dv=0
PairPos2: "'kern' Horizontal Kerning lookup 10 per glyph data 5" V dx=0 dy=0 dh=-5 dv=0 dx=0 dy=0 dh=0 dv=0
PairPos2: "'kern' Horizontal Kerning lookup 10 per glyph data 5" uni0288 dx=0 dy=0 dh=-15 dv=0 dx=0 dy=0 dh=0 dv=0
PairPos2: "'kern' Horizontal Kerning lookup 10 per glyph data 5" uni0167 dx=0 dy=0 dh=-15 dv=0 dx=0 dy=0 dh=0 dv=0
PairPos2: "'kern' Horizontal Kerning lookup 10 per glyph data 5" uni1E97 dx=0 dy=0 dh=-15 dv=0 dx=0 dy=0 dh=0 dv=0
PairPos2: "'kern' Horizontal Kerning lookup 10 per glyph data 5" uni1E6F dx=0 dy=0 dh=-15 dv=0 dx=0 dy=0 dh=0 dv=0
PairPos2: "'kern' Horizontal Kerning lookup 10 per glyph data 5" uni1E6D dx=0 dy=0 dh=-15 dv=0 dx=0 dy=0 dh=0 dv=0
PairPos2: "'kern' Horizontal Kerning lookup 10 per glyph data 5" uni021B dx=0 dy=0 dh=-15 dv=0 dx=0 dy=0 dh=0 dv=0
PairPos2: "'kern' Horizontal Kerning lookup 10 per glyph data 5" uni0163 dx=0 dy=0 dh=-15 dv=0 dx=0 dy=0 dh=0 dv=0
PairPos2: "'kern' Horizontal Kerning lookup 10 per glyph data 5" tcaron dx=0 dy=0 dh=-15 dv=0 dx=0 dy=0 dh=0 dv=0
PairPos2: "'kern' Horizontal Kerning lookup 10 per glyph data 5" t dx=0 dy=0 dh=-15 dv=0 dx=0 dy=0 dh=0 dv=0
EndChar
StartChar: bracketleft
Encoding: 91 91 1177
Width: 303
Flags: MW
HStem: -152 47<156 273 156 273> 661 47<156 273 156 156>
VStem: 94 62<-105 661 -105 708 -105 708>
LayerCount: 2
Fore
SplineSet
94 -152 m 1
 94 708 l 1
 273 708 l 1
 273 661 l 1
 156 661 l 1
 156 -105 l 1
 273 -105 l 1
 273 -152 l 1
 94 -152 l 1
EndSplineSet
Substitution2: "'c2sc' Capitals to Small Capitals lookup 19 subtable" bracketleft.sc
Substitution2: "'aalt' Access All Alternates lookup 0 subtable" bracketleft.sc
PairPos2: "'kern' Horizontal Kerning lookup 10 per glyph data 8" Jcircumflex dx=0 dy=0 dh=-20 dv=0 dx=0 dy=0 dh=0 dv=0
PairPos2: "'kern' Horizontal Kerning lookup 10 per glyph data 8" J dx=0 dy=0 dh=-20 dv=0 dx=0 dy=0 dh=0 dv=0
PairPos2: "'kern' Horizontal Kerning lookup 10 per glyph data 8" uni0284 dx=0 dy=0 dh=80 dv=0 dx=0 dy=0 dh=0 dv=0
PairPos2: "'kern' Horizontal Kerning lookup 10 per glyph data 8" uni0283 dx=0 dy=0 dh=80 dv=0 dx=0 dy=0 dh=0 dv=0
PairPos2: "'kern' Horizontal Kerning lookup 10 per glyph data 8" uni0272 dx=0 dy=0 dh=80 dv=0 dx=0 dy=0 dh=0 dv=0
PairPos2: "'kern' Horizontal Kerning lookup 10 per glyph data 8" uni025F dx=0 dy=0 dh=80 dv=0 dx=0 dy=0 dh=0 dv=0
PairPos2: "'kern' Horizontal Kerning lookup 10 per glyph data 8" uni0237 dx=0 dy=0 dh=80 dv=0 dx=0 dy=0 dh=0 dv=0
PairPos2: "'kern' Horizontal Kerning lookup 10 per glyph data 8" jcircumflex dx=0 dy=0 dh=80 dv=0 dx=0 dy=0 dh=0 dv=0
PairPos2: "'kern' Horizontal Kerning lookup 10 per glyph data 8" j dx=0 dy=0 dh=80 dv=0 dx=0 dy=0 dh=0 dv=0
PairPos2: "'kern' Horizontal Kerning lookup 10 per glyph data 8" uni04C1 dx=0 dy=0 dh=13 dv=0 dx=0 dy=0 dh=0 dv=0
PairPos2: "'kern' Horizontal Kerning lookup 10 per glyph data 8" uni0496 dx=0 dy=0 dh=13 dv=0 dx=0 dy=0 dh=0 dv=0
PairPos2: "'kern' Horizontal Kerning lookup 10 per glyph data 8" uni0416 dx=0 dy=0 dh=13 dv=0 dx=0 dy=0 dh=0 dv=0
PairPos2: "'kern' Horizontal Kerning lookup 10 per glyph data 8" uni0463 dx=0 dy=0 dh=-20 dv=0 dx=0 dy=0 dh=0 dv=0
PairPos2: "'kern' Horizontal Kerning lookup 10 per glyph data 8" uni04F2 dx=0 dy=0 dh=13 dv=0 dx=0 dy=0 dh=0 dv=0
PairPos2: "'kern' Horizontal Kerning lookup 10 per glyph data 8" uni04EE dx=0 dy=0 dh=13 dv=0 dx=0 dy=0 dh=0 dv=0
PairPos2: "'kern' Horizontal Kerning lookup 10 per glyph data 8" uni040E dx=0 dy=0 dh=13 dv=0 dx=0 dy=0 dh=0 dv=0
PairPos2: "'kern' Horizontal Kerning lookup 10 per glyph data 8" uni0423 dx=0 dy=0 dh=13 dv=0 dx=0 dy=0 dh=0 dv=0
PairPos2: "'kern' Horizontal Kerning lookup 10 per glyph data 8" uni0408 dx=0 dy=0 dh=-20 dv=0 dx=0 dy=0 dh=0 dv=0
PairPos2: "'kern' Horizontal Kerning lookup 10 per glyph data 8" uni0458 dx=0 dy=0 dh=80 dv=0 dx=0 dy=0 dh=0 dv=0
PairPos2: "'kern' Horizontal Kerning lookup 10 per glyph data 8" uni0424.sc dx=0 dy=0 dh=-7 dv=0 dx=0 dy=0 dh=0 dv=0
PairPos2: "'kern' Horizontal Kerning lookup 10 per glyph data 8" uni0414 dx=0 dy=0 dh=20 dv=0 dx=0 dy=0 dh=0 dv=0
PairPos2: "'kern' Horizontal Kerning lookup 10 per glyph data 8" uni0414.sc dx=0 dy=0 dh=20 dv=0 dx=0 dy=0 dh=0 dv=0
PairPos2: "'kern' Horizontal Kerning lookup 10 per glyph data 8" uni0434 dx=0 dy=0 dh=20 dv=0 dx=0 dy=0 dh=0 dv=0
PairPos2: "'kern' Horizontal Kerning lookup 10 per glyph data 0" uni041B.sc dx=0 dy=0 dh=-7 dv=0 dx=0 dy=0 dh=0 dv=0
EndChar
StartChar: bracketright
Encoding: 93 93 1178
Width: 303
Flags: MW
HStem: -152 47<31 147 31 147 31 209> 661 47<31 147 31 209>
VStem: 147 62<-105 661 661 661>
LayerCount: 2
Fore
SplineSet
31 -152 m 1
 31 -105 l 1
 147 -105 l 1
 147 661 l 1
 31 661 l 1
 31 708 l 1
 209 708 l 1
 209 -152 l 1
 31 -152 l 1
EndSplineSet
Substitution2: "'c2sc' Capitals to Small Capitals lookup 19 subtable" bracketright.sc
Substitution2: "'aalt' Access All Alternates lookup 0 subtable" bracketright.sc
EndChar
StartChar: asciicircum
Encoding: 94 94 1759
Width: 497
Flags: MW
HStem: 593 77<247 251 247 247>
VStem: 60 377<284 284>
LayerCount: 2
Fore
SplineSet
60 284 m 1
 212 670 l 1
 285 670 l 1
 437 284 l 1
 365 284 l 1
 300 460 l 1
 251 593 l 1
 247 593 l 1
 197 460 l 1
 132 284 l 1
 60 284 l 1
EndSplineSet
EndChar
StartChar: underscore
Encoding: 95 95 1172
Width: 500
Flags: MW
HStem: -126 55<12 488 12 488>
VStem: 12 476<-126 -71 -126 -71>
LayerCount: 2
Fore
SplineSet
12 -126 m 1
 12 -71 l 1
 488 -71 l 1
 488 -126 l 1
 12 -126 l 1
EndSplineSet
EndChar
StartChar: grave
Encoding: 96 96 1804
Width: 542
Flags: MW
HStem: 573 208<186 285>
VStem: 128 199<614 726>
LayerCount: 2
Fore
SplineSet
285 573 m 1
 128 726 l 1
 186 781 l 1
 327 614 l 1
 285 573 l 1
EndSplineSet
EndChar
StartChar: d
Encoding: 100 100 31
Width: 555
GlyphClass: 2
Flags: MW
HStem: -12 69<223.5 276.5> 0 21G<405 473 405 405> 429 69<233 286 202.5 292> 692 20G<390 473 473 473>
VStem: 47 85<185 298.5 185 321> 390 83<124 378 378 378 525 712 0 712>
AnchorPoint: "Anchor-4" 301 -22 basechar 0
AnchorPoint: "Anchor-0" 393 730 basechar 0
LayerCount: 2
Fore
SplineSet
248 -12 m 0xbc
 126 -12 47 80 47 242 c 0
 47 400 147 498 258 498 c 0
 314 498 351 477 394 442 c 1
 390 525 l 1
 390 712 l 1
 473 712 l 1
 473 0 l 1
 405 0 l 1x7c
 398 57 l 1
 395 57 l 1
 357 20 305 -12 248 -12 c 0xbc
266 57 m 0
 311 57 350 79 390 124 c 1
 390 378 l 1
 349 415 312 429 272 429 c 0
 194 429 132 354 132 243 c 0
 132 127 181 57 266 57 c 0
EndSplineSet
Substitution2: "'sups' Superscript lookup 26 subtable" d.sups
Substitution2: "'smcp' Lowercase to Small Capitals lookup 20 subtable" D.sc
AlternateSubs2: "'aalt' Access All Alternates lookup 1 subtable" D.sc d.sups
EndChar
